EncodeSans-Black.ufo
<glyph name="numbersign" format="2">
  <advance width="1320.0"/>
  <unicode hex="0023"/>
  <outline>
    <contour>
      <point x="647.0" y="0.0" type="line"/>
      <point x="968.0" y="0.0" type="line"/>
      <point x="1122.0" y="1480.0" type="line"/>
      <point x="801.0" y="1480.0" type="line"/>
    </contour>
    <contour>
      <point x="100.0" y="350.0" type="line"/>
      <point x="1220.0" y="350.0" type="line"/>
      <point x="1220.0" y="666.0" type="line"/>
      <point x="100.0" y="666.0" type="line"/>
    </contour>
    <contour>
      <point x="198.0" y="0.0" type="line"/>
      <point x="519.0" y="0.0" type="line"/>
      <point x="673.0" y="1480.0" type="line"/>
      <point x="352.0" y="1480.0" type="line"/>
    </contour>
    <contour>
      <point x="100.0" y="814.0" type="line"/>
      <point x="1220.0" y="814.0" type="line"/>
      <point x="1220.0" y="1130.0" type="line"/>
      <point x="100.0" y="1130.0" type="line"/>
    </contour>
  </outline>
</glyph>
<glyph name="asterisk" format="2">
  <advance width="1064.0"/>
  <unicode hex="002A"/>
  <outline>
    <contour>
      <point x="690.0" y="1109.0" type="line"/>
      <point x="873.0" y="1125.0" type="line"/>
      <point x="1034.0" y="1177.0" type="line"/>
      <point x="949.0" y="1438.0" type="line"/>
      <point x="788.0" y="1385.0" type="line"/>
      <point x="625.0" y="1285.0" type="line"/>
      <point x="669.0" y="1472.0" type="line"/>
      <point x="669.0" y="1616.0" type="line"/>
      <point x="395.0" y="1616.0" type="line"/>
      <point x="395.0" y="1472.0" type="line"/>
      <point x="439.0" y="1285.0" type="line"/>
      <point x="276.0" y="1385.0" type="line"/>
      <point x="115.0" y="1438.0" type="line"/>
      <point x="30.0" y="1177.0" type="line"/>
      <point x="191.0" y="1125.0" type="line"/>
      <point x="374.0" y="1109.0" type="line"/>
      <point x="232.0" y="987.0" type="line"/>
      <point x="146.0" y="867.0" type="line"/>
      <point x="368.0" y="706.0" type="line"/>
      <point x="454.0" y="825.0" type="line"/>
      <point x="532.0" y="1013.0" type="line"/>
      <point x="610.0" y="825.0" type="line"/>
      <point x="696.0" y="706.0" type="line"/>
      <point x="918.0" y="867.0" type="line"/>
      <point x="832.0" y="987.0" type="line"/>
    </contour>
  </outline>
</glyph>
<glyph name="plus" format="2">
  <advance width="1116.0"/>
  <unicode hex="002B"/>
  <outline>
    <contour>
      <point x="391.0" y="294.0" type="line"/>
      <point x="725.0" y="294.0" type="line"/>
      <point x="725.0" y="600.0" type="line"/>
      <point x="1020.0" y="600.0" type="line"/>
      <point x="1020.0" y="920.0" type="line"/>
      <point x="725.0" y="920.0" type="line"/>
      <point x="725.0" y="1226.0" type="line"/>
      <point x="391.0" y="1226.0" type="line"/>
      <point x="391.0" y="920.0" type="line"/>
      <point x="96.0" y="920.0" type="line"/>
      <point x="96.0" y="600.0" type="line"/>
      <point x="391.0" y="600.0" type="line"/>
    </contour>
  </outline>
</glyph>
<glyph name="hyphen" format="2">
  <advance width="956.0"/>
  <unicode hex="002D"/>
  <outline>
    <contour>
      <point x="96.0" y="399.0" type="line"/>
      <point x="860.0" y="399.0" type="line"/>
      <point x="860.0" y="741.0" type="line"/>
      <point x="96.0" y="741.0" type="line"/>
    </contour>
  </outline>
</glyph>
<glyph name="two" format="2">
  <advance width="1132.0"/>
  <unicode hex="0032"/>
  <outline>
    <contour>
      <point x="40.0" y="0.0" type="line"/>
      <point x="1086.0" y="0.0" type="line"/>
      <point x="1086.0" y="355.0" type="line"/>
      <point x="514.0" y="355.0" type="line"/>
      <point x="519.0" y="248.0" type="line"/>
      <point x="818.0" y="587.0" type="line" smooth="yes"/>
      <point x="970.0" y="761.0"/>
      <point x="1021.0" y="905.0"/>
      <point x="1021.0" y="1049.0" type="curve" smooth="yes"/>
      <point x="1021.0" y="1362.0"/>
      <point x="814.0" y="1500.0"/>
      <point x="403.0" y="1500.0" type="curve" smooth="yes"/>
      <point x="278.0" y="1500.0"/>
      <point x="113.0" y="1475.0"/>
      <point x="21.0" y="1445.0" type="curve"/>
      <point x="21.0" y="1098.0" type="line"/>
      <point x="109.0" y="1131.0"/>
      <point x="236.0" y="1155.0"/>
      <point x="354.0" y="1155.0" type="curve" smooth="yes"/>
      <point x="532.0" y="1155.0"/>
      <point x="594.0" y="1103.0"/>
      <point x="594.0" y="1005.0" type="curve" smooth="yes"/>
      <point x="594.0" y="927.0"/>
      <point x="553.0" y="842.0"/>
      <point x="439.0" y="705.0" type="curve" smooth="yes"/>
      <point x="40.0" y="231.0" type="line"/>
    </contour>
  </outline>
</glyph>
<glyph name="three" format="2">
  <advance width="1137.0"/>
  <unicode hex="0033"/>
  <outline>
    <contour>
      <point x="441.0" y="-20.0" type="curve" smooth="yes"/>
      <point x="876.0" y="-20.0"/>
      <point x="1084.0" y="146.0"/>
      <point x="1084.0" y="419.0" type="curve" smooth="yes"/>
      <point x="1084.0" y="618.0"/>
      <point x="970.0" y="735.0"/>
      <point x="773.0" y="768.0" type="curve"/>
      <point x="773.0" y="756.0" type="line"/>
      <point x="936.0" y="793.0"/>
      <point x="1036.0" y="918.0"/>
      <point x="1036.0" y="1089.0" type="curve" smooth="yes"/>
      <point x="1036.0" y="1351.0"/>
      <point x="843.0" y="1500.0"/>
      <point x="447.0" y="1500.0" type="curve" smooth="yes"/>
      <point x="316.0" y="1500.0"/>
      <point x="155.0" y="1477.0"/>
      <point x="57.0" y="1445.0" type="curve"/>
      <point x="57.0" y="1128.0" type="line"/>
      <point x="155.0" y="1162.0"/>
      <point x="286.0" y="1183.0"/>
      <point x="397.0" y="1183.0" type="curve" smooth="yes"/>
      <point x="560.0" y="1183.0"/>
      <point x="623.0" y="1136.0"/>
      <point x="623.0" y="1048.0" type="curve" smooth="yes"/>
      <point x="623.0" y="967.0"/>
      <point x="568.0" y="916.0"/>
      <point x="391.0" y="916.0" type="curve" smooth="yes"/>
      <point x="175.0" y="916.0" type="line"/>
      <point x="175.0" y="594.0" type="line"/>
      <point x="418.0" y="594.0" type="line" smooth="yes"/>
      <point x="614.0" y="594.0"/>
      <point x="678.0" y="544.0"/>
      <point x="678.0" y="447.0" type="curve" smooth="yes"/>
      <point x="678.0" y="349.0"/>
      <point x="608.0" y="297.0"/>
      <point x="422.0" y="297.0" type="curve" smooth="yes"/>
      <point x="298.0" y="297.0"/>
      <point x="150.0" y="317.0"/>
      <point x="37.0" y="345.0" type="curve"/>
      <point x="37.0" y="28.0" type="line"/>
      <point x="158.0" y="-2.0"/>
      <point x="294.0" y="-20.0"/>
    </contour>
  </outline>
</glyph>
<glyph name="four" format="2">
  <advance width="1334.0"/>
  <unicode hex="0034"/>
  <outline>
    <contour>
      <point x="30.0" y="271.0" type="line"/>
      <point x="1307.0" y="271.0" type="line"/>
      <point x="1307.0" y="601.0" type="line"/>
      <point x="407.0" y="601.0" type="line"/>
      <point x="451.0" y="506.0" type="line"/>
      <point x="919.0" y="1480.0" type="line"/>
      <point x="507.0" y="1480.0" type="line"/>
      <point x="30.0" y="506.0" type="line"/>
    </contour>
    <contour>
      <point x="742.0" y="0.0" type="line"/>
      <point x="1128.0" y="0.0" type="line"/>
      <point x="1128.0" y="980.0" type="line"/>
      <point x="782.0" y="980.0" type="line"/>
      <point x="742.0" y="601.0" type="line"/>
    </contour>
  </outline>
</glyph>
<glyph name="six" format="2">
  <advance width="1317.0"/>
  <unicode hex="0036"/>
  <outline>
    <contour>
      <point x="708.0" y="-20.0" type="curve" smooth="yes"/>
      <point x="1058.0" y="-20.0"/>
      <point x="1268.0" y="168.0"/>
      <point x="1268.0" y="461.0" type="curve" smooth="yes"/>
      <point x="1268.0" y="780.0"/>
      <point x="1056.0" y="916.0"/>
      <point x="784.0" y="916.0" type="curve" smooth="yes"/>
      <point x="651.0" y="916.0"/>
      <point x="515.0" y="873.0"/>
      <point x="443.0" y="799.0" type="curve"/>
      <point x="443.0" y="512.0" type="line"/>
      <point x="513.0" y="581.0"/>
      <point x="603.0" y="612.0"/>
      <point x="695.0" y="612.0" type="curve" smooth="yes"/>
      <point x="807.0" y="612.0"/>
      <point x="879.0" y="562.0"/>
      <point x="879.0" y="449.0" type="curve" smooth="yes"/>
      <point x="879.0" y="339.0"/>
      <point x="811.0" y="286.0"/>
      <point x="710.0" y="286.0" type="curve" smooth="yes"/>
      <point x="585.0" y="286.0"/>
      <point x="508.0" y="355.0"/>
      <point x="508.0" y="622.0" type="curve" smooth="yes"/>
      <point x="508.0" y="808.0" type="line" smooth="yes"/>
      <point x="508.0" y="1050.0"/>
      <point x="626.0" y="1175.0"/>
      <point x="886.0" y="1175.0" type="curve" smooth="yes"/>
      <point x="993.0" y="1175.0"/>
      <point x="1093.0" y="1160.0"/>
      <point x="1187.0" y="1129.0" type="curve"/>
      <point x="1187.0" y="1454.0" type="line"/>
      <point x="1094.0" y="1488.0"/>
      <point x="985.0" y="1500.0"/>
      <point x="863.0" y="1500.0" type="curve" smooth="yes"/>
      <point x="370.0" y="1500.0"/>
      <point x="88.0" y="1228.0"/>
      <point x="88.0" y="692.0" type="curve" smooth="yes"/>
      <point x="88.0" y="198.0"/>
      <point x="339.0" y="-20.0"/>
    </contour>
  </outline>
</glyph>
<glyph name="seven" format="2">
  <advance width="1078.0"/>
  <unicode hex="0037"/>
  <outline>
    <contour>
      <point x="143.0" y="0.0" type="line"/>
      <point x="587.0" y="0.0" type="line"/>
      <point x="1021.0" y="1249.0" type="line"/>
      <point x="1021.0" y="1480.0" type="line"/>
      <point x="11.0" y="1480.0" type="line"/>
      <point x="11.0" y="1125.0" type="line"/>
      <point x="757.0" y="1125.0" type="line"/>
      <point x="610.0" y="1249.0" type="line"/>
    </contour>
  </outline>
</glyph>
<glyph name="eight" format="2">
  <advance width="1397.0"/>
  <unicode hex="0038"/>
  <outline>
    <contour>
      <point x="700.0" y="-20.0" type="curve" smooth="yes"/>
      <point x="1123.0" y="-20.0"/>
      <point x="1325.0" y="174.0"/>
      <point x="1325.0" y="422.0" type="curve" smooth="yes"/>
      <point x="1325.0" y="639.0"/>
      <point x="1214.0" y="779.0"/>
      <point x="827.0" y="889.0" type="curve" smooth="yes"/>
      <point x="554.0" y="966.0"/>
      <point x="511.0" y="1007.0"/>
      <point x="511.0" y="1088.0" type="curve" smooth="yes"/>
      <point x="511.0" y="1154.0"/>
      <point x="571.0" y="1209.0"/>
      <point x="721.0" y="1209.0" type="curve" smooth="yes"/>
      <point x="854.0" y="1209.0"/>
      <point x="918.0" y="1162.0"/>
      <point x="918.0" y="1080.0" type="curve" smooth="yes"/>
      <point x="918.0" y="999.0"/>
      <point x="872.0" y="931.0"/>
      <point x="751.0" y="866.0" type="curve"/>
      <point x="999.0" y="762.0" type="line"/>
      <point x="1219.0" y="847.0"/>
      <point x="1288.0" y="982.0"/>
      <point x="1288.0" y="1124.0" type="curve" smooth="yes"/>
      <point x="1288.0" y="1358.0"/>
      <point x="1082.0" y="1500.0"/>
      <point x="726.0" y="1500.0" type="curve" smooth="yes"/>
      <point x="308.0" y="1500.0"/>
      <point x="105.0" y="1323.0"/>
      <point x="105.0" y="1072.0" type="curve" smooth="yes"/>
      <point x="105.0" y="860.0"/>
      <point x="226.0" y="694.0"/>
      <point x="611.0" y="595.0" type="curve" smooth="yes"/>
      <point x="867.0" y="530.0"/>
      <point x="925.0" y="484.0"/>
      <point x="925.0" y="398.0" type="curve" smooth="yes"/>
      <point x="925.0" y="320.0"/>
      <point x="862.0" y="271.0"/>
      <point x="701.0" y="271.0" type="curve" smooth="yes"/>
      <point x="541.0" y="271.0"/>
      <point x="470.0" y="326.0"/>
      <point x="470.0" y="419.0" type="curve" smooth="yes"/>
      <point x="470.0" y="495.0"/>
      <point x="522.0" y="583.0"/>
      <point x="660.0" y="630.0" type="curve"/>
      <point x="389.0" y="731.0" type="line"/>
      <point x="178.0" y="664.0"/>
      <point x="68.0" y="532.0"/>
      <point x="68.0" y="368.0" type="curve" smooth="yes"/>
      <point x="68.0" y="148.0"/>
      <point x="254.0" y="-20.0"/>
    </contour>
  </outline>
</glyph>
<glyph name="less" format="2">
  <advance width="1116.0"/>
  <unicode hex="003C"/>
  <outline>
    <contour>
      <point x="1020.0" y="226.0" type="line"/>
      <point x="1020.0" y="546.0" type="line"/>
      <point x="323.0" y="783.0" type="line"/>
      <point x="323.0" y="742.0" type="line"/>
      <point x="1020.0" y="974.0" type="line"/>
      <point x="1020.0" y="1294.0" type="line"/>
      <point x="96.0" y="964.0" type="line"/>
      <point x="96.0" y="556.0" type="line"/>
    </contour>
  </outline>
</glyph>
<glyph name="question" format="2">
  <advance width="1050.0"/>
  <unicode hex="003F"/>
  <outline>
    <contour>
      <point x="340.0" y="532.0" type="line"/>
      <point x="597.0" y="532.0" type="line"/>
      <point x="626.0" y="675.0" type="line"/>
      <point x="855.0" y="734.0"/>
      <point x="1005.0" y="868.0"/>
      <point x="1005.0" y="1084.0" type="curve" smooth="yes"/>
      <point x="1005.0" y="1351.0"/>
      <point x="812.0" y="1500.0"/>
      <point x="416.0" y="1500.0" type="curve" smooth="yes"/>
      <point x="285.0" y="1500.0"/>
      <point x="124.0" y="1477.0"/>
      <point x="26.0" y="1445.0" type="curve"/>
      <point x="26.0" y="1118.0" type="line"/>
      <point x="124.0" y="1152.0"/>
      <point x="253.0" y="1173.0"/>
      <point x="364.0" y="1173.0" type="curve" smooth="yes"/>
      <point x="529.0" y="1173.0"/>
      <point x="592.0" y="1129.0"/>
      <point x="592.0" y="1046.0" type="curve" smooth="yes"/>
      <point x="592.0" y="968.0"/>
      <point x="526.0" y="908.0"/>
      <point x="267.0" y="873.0" type="curve"/>
    </contour>
    <contour>
      <point x="469.0" y="-20.0" type="curve" smooth="yes"/>
      <point x="632.0" y="-20.0"/>
      <point x="737.0" y="75.0"/>
      <point x="737.0" y="216.0" type="curve" smooth="yes"/>
      <point x="737.0" y="357.0"/>
      <point x="636.0" y="452.0"/>
      <point x="469.0" y="452.0" type="curve" smooth="yes"/>
      <point x="302.0" y="452.0"/>
      <point x="201.0" y="361.0"/>
      <point x="201.0" y="216.0" type="curve" smooth="yes"/>
      <point x="201.0" y="71.0"/>
      <point x="306.0" y="-20.0"/>
    </contour>
  </outline>
</glyph>
<glyph name="F" format="2">
  <advance width="1272.0"/>
  <unicode hex="0046"/>
  <outline>
    <contour>
      <point x="109.0" y="0.0" type="line"/>
      <point x="543.0" y="0.0" type="line"/>
      <point x="543.0" y="1131.0" type="line"/>
      <point x="1231.0" y="1131.0" type="line"/>
      <point x="1231.0" y="1480.0" type="line"/>
      <point x="109.0" y="1480.0" type="line"/>
    </contour>
    <contour>
      <point x="378.0" y="532.0" type="line"/>
      <point x="1126.0" y="532.0" type="line"/>
      <point x="1126.0" y="881.0" type="line"/>
      <point x="378.0" y="881.0" type="line"/>
    </contour>
  </outline>
</glyph>
<glyph name="H" format="2">
  <advance width="1580.0"/>
  <unicode hex="0048"/>
  <anchor x="791.0" y="0.0" name="bottom"/>
  <anchor x="791.0" y="1211.0" name="center"/>
  <anchor x="791.0" y="1520.0" name="top"/>
  <anchor x="36.0" y="1480.0" name="topleft"/>
  <outline>
    <contour>
      <point x="109.0" y="0.0" type="line"/>
      <point x="543.0" y="0.0" type="line"/>
      <point x="543.0" y="565.0" type="line"/>
      <point x="1037.0" y="565.0" type="line"/>
      <point x="1037.0" y="0.0" type="line"/>
      <point x="1471.0" y="0.0" type="line"/>
      <point x="1471.0" y="1480.0" type="line"/>
      <point x="1037.0" y="1480.0" type="line"/>
      <point x="1037.0" y="945.0" type="line"/>
      <point x="543.0" y="945.0" type="line"/>
      <point x="543.0" y="1480.0" type="line"/>
      <point x="109.0" y="1480.0" type="line"/>
    </contour>
  </outline>
</glyph>
<glyph name="J" format="2">
  <advance width="652.0"/>
  <unicode hex="004A"/>
  <anchor x="543.0" y="0.0" name="bottom"/>
  <anchor x="327.0" y="1520.0" name="top"/>
  <outline>
    <contour>
      <point x="243.0" y="-354.0" type="line"/>
      <point x="467.0" y="-136.0"/>
      <point x="543.0" y="70.0"/>
      <point x="543.0" y="320.0" type="curve"/>
      <point x="543.0" y="1480.0" type="line"/>
      <point x="111.0" y="1480.0" type="line"/>
      <point x="111.0" y="304.0" type="line" smooth="yes"/>
      <point x="111.0" y="98.0"/>
      <point x="78.0" y="-28.0"/>
      <point x="-31.0" y="-172.0" type="curve"/>
    </contour>
  </outline>
</glyph>
<glyph name="L" format="2">
  <advance width="1199.0"/>
  <unicode hex="004C"/>
  <anchor x="650.0" y="0.0" name="bottom"/>
  <anchor x="796.0" y="1616.0" name="caronalt"/>
  <anchor x="917.0" y="912.0" name="periodcentered"/>
  <anchor x="330.0" y="854.0" name="slash"/>
  <anchor x="330.0" y="1520.0" name="top"/>
  <outline>
    <contour>
      <point x="109.0" y="0.0" type="line"/>
      <point x="1191.0" y="0.0" type="line"/>
      <point x="1191.0" y="357.0" type="line"/>
      <point x="543.0" y="357.0" type="line"/>
      <point x="543.0" y="1480.0" type="line"/>
      <point x="109.0" y="1480.0" type="line"/>
    </contour>
  </outline>
</glyph>
<glyph name="M" format="2">
  <advance width="1956.0"/>
  <unicode hex="004D"/>
  <anchor x="1007.0" y="0.0" name="bottom"/>
  <anchor x="1007.0" y="1480.0" name="top"/>
  <outline>
    <contour>
      <point x="113.0" y="0.0" type="line"/>
      <point x="517.0" y="0.0" type="line"/>
      <point x="517.0" y="1100.0" type="line"/>
      <point x="422.0" y="1100.0" type="line"/>
      <point x="804.0" y="220.0" type="line"/>
      <point x="1152.0" y="220.0" type="line"/>
      <point x="1515.0" y="1100.0" type="line"/>
      <point x="1439.0" y="1100.0" type="line"/>
      <point x="1439.0" y="0.0" type="line"/>
      <point x="1843.0" y="0.0" type="line"/>
      <point x="1843.0" y="1480.0" type="line"/>
      <point x="1312.0" y="1480.0" type="line"/>
      <point x="964.0" y="616.0" type="line"/>
      <point x="1006.0" y="616.0" type="line"/>
      <point x="644.0" y="1480.0" type="line"/>
      <point x="113.0" y="1480.0" type="line"/>
    </contour>
  </outline>
</glyph>
<glyph name="Q" format="2">
  <advance width="1644.0"/>
  <unicode hex="0051"/>
  <outline>
    <contour>
      <point x="1487.0" y="-374.0" type="curve"/>
      <point x="1559.0" y="-40.0" type="line"/>
      <point x="1320.0" y="-9.0"/>
      <point x="1097.0" y="41.0"/>
      <point x="841.0" y="135.0" type="curve"/>
      <point x="696.0" y="31.0" type="line"/>
      <point x="1283.0" y="-47.0"/>
      <point x="1575.0" y="249.0"/>
      <point x="1575.0" y="740.0" type="curve" smooth="yes"/>
      <point x="1575.0" y="1241.0"/>
      <point x="1280.0" y="1500.0"/>
      <point x="822.0" y="1500.0" type="curve" smooth="yes"/>
      <point x="364.0" y="1500.0"/>
      <point x="69.0" y="1243.0"/>
      <point x="69.0" y="730.0" type="curve" smooth="yes"/>
      <point x="69.0" y="204.0"/>
      <point x="382.0" y="-192.0"/>
    </contour>
    <contour>
      <point x="822.0" y="326.0" type="curve" smooth="yes"/>
      <point x="620.0" y="326.0"/>
      <point x="513.0" y="445.0"/>
      <point x="513.0" y="748.0" type="curve" smooth="yes"/>
      <point x="513.0" y="1033.0"/>
      <point x="625.0" y="1154.0"/>
      <point x="822.0" y="1154.0" type="curve" smooth="yes"/>
      <point x="1019.0" y="1154.0"/>
      <point x="1131.0" y="1030.0"/>
      <point x="1131.0" y="732.0" type="curve" smooth="yes"/>
      <point x="1131.0" y="450.0"/>
      <point x="1022.0" y="326.0"/>
    </contour>
  </outline>
</glyph>
<glyph name="V" format="2">
  <advance width="1510.0"/>
  <unicode hex="0056"/>
  <outline>
    <contour>
      <point x="433.0" y="0.0" type="line"/>
      <point x="1077.0" y="0.0" type="line"/>
      <point x="1516.0" y="1480.0" type="line"/>
      <point x="1095.0" y="1480.0" type="line"/>
      <point x="719.0" y="173.0" type="line"/>
      <point x="813.0" y="173.0" type="line"/>
      <point x="446.0" y="1480.0" type="line"/>
      <point x="-6.0" y="1480.0" type="line"/>
    </contour>
  </outline>
</glyph>
<glyph name="X" format="2">
  <advance width="1441.0"/>
  <unicode hex="0058"/>
  <outline>
    <contour>
      <point x="1022.0" y="0.0" type="line"/>
      <point x="1497.0" y="0.0" type="line"/>
      <point x="972.0" y="780.0" type="line"/>
      <point x="721.0" y="1091.0" type="line"/>
      <point x="464.0" y="1480.0" type="line"/>
      <point x="-14.0" y="1480.0" type="line"/>
      <point x="465.0" y="775.0" type="line"/>
      <point x="716.0" y="467.0" type="line"/>
    </contour>
    <contour>
      <point x="-60.0" y="0.0" type="line"/>
      <point x="410.0" y="0.0" type="line"/>
      <point x="716.0" y="467.0" type="line"/>
      <point x="972.0" y="780.0" type="line"/>
      <point x="1442.0" y="1480.0" type="line"/>
      <point x="977.0" y="1480.0" type="line"/>
      <point x="721.0" y="1091.0" type="line"/>
      <point x="465.0" y="775.0" type="line"/>
    </contour>
  </outline>
</glyph>
<glyph name="Y" format="2">
  <advance width="1359.0"/>
  <unicode hex="0059"/>
  <anchor x="679.0" y="0.0" name="bottom"/>
  <anchor x="680.0" y="1520.0" name="top"/>
  <anchor x="-17.0" y="1480.0" name="topleft"/>
  <outline>
    <contour>
      <point x="465.0" y="0.0" type="line"/>
      <point x="899.0" y="0.0" type="line"/>
      <point x="899.0" y="773.0" type="line"/>
      <point x="813.0" y="463.0" type="line"/>
      <point x="1412.0" y="1480.0" type="line"/>
      <point x="990.0" y="1480.0" type="line"/>
      <point x="634.0" y="871.0" type="line"/>
      <point x="750.0" y="871.0" type="line"/>
      <point x="390.0" y="1480.0" type="line"/>
      <point x="-66.0" y="1480.0" type="line"/>
      <point x="551.0" y="463.0" type="line"/>
      <point x="465.0" y="779.0" type="line"/>
    </contour>
  </outline>
</glyph>
<glyph name="backslash" format="2">
  <advance width="903.0"/>
  <unicode hex="005C"/>
  <outline>
    <contour>
      <point x="485.0" y="-240.0" type="line"/>
      <point x="903.0" y="-240.0" type="line"/>
      <point x="418.0" y="1616.0" type="line"/>
      <point x="0.0" y="1616.0" type="line"/>
    </contour>
  </outline>
</glyph>
<glyph name="bracketright" format="2">
  <advance width="754.0"/>
  <unicode hex="005D"/>
  <outline>
    <contour>
      <point x="-16.0" y="-440.0" type="line"/>
      <point x="625.0" y="-440.0" type="line"/>
      <point x="625.0" y="1616.0" type="line"/>
      <point x="-26.0" y="1616.0" type="line"/>
      <point x="-26.0" y="1286.0" type="line"/>
      <point x="200.0" y="1286.0" type="line"/>
      <point x="200.0" y="-110.0" type="line"/>
      <point x="-16.0" y="-110.0" type="line"/>
    </contour>
  </outline>
</glyph>
<glyph name="underscore" format="2">
  <advance width="1268.0"/>
  <unicode hex="005F"/>
  <outline>
    <contour>
      <point x="85.0" y="-331.0" type="line"/>
      <point x="1183.0" y="-331.0" type="line"/>
      <point x="1183.0" y="-1.0" type="line"/>
      <point x="85.0" y="-1.0" type="line"/>
    </contour>
  </outline>
</glyph>
<glyph name="b" format="2">
  <advance width="1297.0"/>
  <unicode hex="0062"/>
  <anchor x="654.0" y="0.0" name="bottom"/>
  <anchor x="310.0" y="1616.0" name="top"/>
  <outline>
    <contour>
      <point x="577.0" y="-21.0" type="curve" smooth="yes"/>
      <point x="1031.0" y="-22.0"/>
      <point x="1244.0" y="192.0"/>
      <point x="1244.0" y="573.0" type="curve" smooth="yes"/>
      <point x="1244.0" y="944.0"/>
      <point x="1044.0" y="1118.0"/>
      <point x="813.0" y="1118.0" type="curve" smooth="yes"/>
      <point x="695.0" y="1118.0"/>
      <point x="603.0" y="1076.0"/>
      <point x="541.0" y="997.0" type="curve"/>
      <point x="522.0" y="997.0" type="line"/>
      <point x="522.0" y="1616.0" type="line"/>
      <point x="97.0" y="1616.0" type="line"/>
      <point x="97.0" y="48.0" type="line"/>
      <point x="241.0" y="0.0"/>
      <point x="418.0" y="-21.0"/>
    </contour>
    <contour>
      <point x="614.0" y="295.0" type="curve" smooth="yes"/>
      <point x="580.0" y="295.0"/>
      <point x="548.0" y="299.0"/>
      <point x="522.0" y="305.0" type="curve"/>
      <point x="522.0" y="749.0" type="line"/>
      <point x="557.0" y="766.0"/>
      <point x="601.0" y="774.0"/>
      <point x="642.0" y="774.0" type="curve" smooth="yes"/>
      <point x="753.0" y="774.0"/>
      <point x="818.0" y="722.0"/>
      <point x="818.0" y="540.0" type="curve" smooth="yes"/>
      <point x="818.0" y="360.0"/>
      <point x="751.0" y="295.0"/>
    </contour>
  </outline>
</glyph>
<glyph name="c" format="2">
  <advance width="1019.0"/>
  <unicode hex="0063"/>
  <anchor x="577.0" y="0.0" name="bottom"/>
  <anchor x="553.0" y="1200.0" name="top"/>
  <outline>
    <contour>
      <point x="679.0" y="-22.0" type="curve" smooth="yes"/>
      <point x="785.0" y="-22.0"/>
      <point x="888.0" y="-7.0"/>
      <point x="966.0" y="17.0" type="curve"/>
      <point x="966.0" y="347.0" type="line"/>
      <point x="876.0" y="326.0"/>
      <point x="815.0" y="316.0"/>
      <point x="747.0" y="316.0" type="curve" smooth="yes"/>
      <point x="576.0" y="316.0"/>
      <point x="490.0" y="384.0"/>
      <point x="490.0" y="550.0" type="curve" smooth="yes"/>
      <point x="490.0" y="707.0"/>
      <point x="571.0" y="780.0"/>
      <point x="769.0" y="780.0" type="curve" smooth="yes"/>
      <point x="836.0" y="780.0"/>
      <point x="897.0" y="774.0"/>
      <point x="966.0" y="764.0" type="curve"/>
      <point x="966.0" y="1094.0" type="line"/>
      <point x="888.0" y="1110.0"/>
      <point x="804.0" y="1118.0"/>
      <point x="707.0" y="1118.0" type="curve" smooth="yes"/>
      <point x="293.0" y="1118.0"/>
      <point x="53.0" y="929.0"/>
      <point x="53.0" y="547.0" type="curve" smooth="yes"/>
      <point x="53.0" y="172.0"/>
      <point x="274.0" y="-22.0"/>
    </contour>
  </outline>
</glyph>
<glyph name="f" format="2">
  <advance width="860.0"/>
  <unicode hex="0066"/>
  <outline>
    <contour>
      <point x="189.0" y="0.0" type="line"/>
      <point x="611.0" y="0.0" type="line"/>
      <point x="611.0" y="1141.0" type="line" smooth="yes"/>
      <point x="611.0" y="1249.0"/>
      <point x="669.0" y="1304.0"/>
      <point x="816.0" y="1304.0" type="curve" smooth="yes"/>
      <point x="848.0" y="1304.0"/>
      <point x="877.0" y="1302.0"/>
      <point x="913.0" y="1298.0" type="curve"/>
      <point x="913.0" y="1624.0" type="line"/>
      <point x="858.0" y="1632.0"/>
      <point x="808.0" y="1636.0"/>
      <point x="745.0" y="1636.0" type="curve" smooth="yes"/>
      <point x="386.0" y="1636.0"/>
      <point x="189.0" y="1439.0"/>
      <point x="189.0" y="1121.0" type="curve" smooth="yes"/>
    </contour>
    <contour>
      <point x="29.0" y="770.0" type="line"/>
      <point x="864.0" y="770.0" type="line"/>
      <point x="864.0" y="1100.0" type="line"/>
      <point x="29.0" y="1100.0" type="line"/>
    </contour>
  </outline>
</glyph>
<glyph name="q" format="2">
  <advance width="1297.0"/>
  <unicode hex="0071"/>
  <outline>
    <contour>
      <point x="775.0" y="-440.0" type="line"/>
      <point x="1200.0" y="-440.0" type="line"/>
      <point x="1200.0" y="1049.0" type="line"/>
      <point x="1065.0" y="1094.0"/>
      <point x="879.0" y="1118.0"/>
      <point x="720.0" y="1118.0" type="curve" smooth="yes"/>
      <point x="266.0" y="1118.0"/>
      <point x="53.0" y="905.0"/>
      <point x="53.0" y="524.0" type="curve" smooth="yes"/>
      <point x="53.0" y="153.0"/>
      <point x="253.0" y="-21.0"/>
      <point x="484.0" y="-21.0" type="curve" smooth="yes"/>
      <point x="602.0" y="-21.0"/>
      <point x="694.0" y="21.0"/>
      <point x="756.0" y="100.0" type="curve"/>
      <point x="775.0" y="100.0" type="line"/>
    </contour>
    <contour>
      <point x="655.0" y="323.0" type="curve" smooth="yes"/>
      <point x="544.0" y="323.0"/>
      <point x="479.0" y="375.0"/>
      <point x="479.0" y="557.0" type="curve" smooth="yes"/>
      <point x="479.0" y="737.0"/>
      <point x="552.0" y="802.0"/>
      <point x="682.0" y="802.0" type="curve" smooth="yes"/>
      <point x="717.0" y="802.0"/>
      <point x="749.0" y="798.0"/>
      <point x="775.0" y="793.0" type="curve"/>
      <point x="775.0" y="348.0" type="line"/>
      <point x="740.0" y="331.0"/>
      <point x="696.0" y="323.0"/>
    </contour>
  </outline>
</glyph>
<glyph name="v" format="2">
  <advance width="1238.0"/>
  <unicode hex="0076"/>
  <anchor x="619.0" y="0.0" name="bottom"/>
  <anchor x="619.0" y="1200.0" name="top"/>
  <outline>
    <contour>
      <point x="354.0" y="0.0" type="line"/>
      <point x="883.0" y="0.0" type="line"/>
      <point x="1250.0" y="1100.0" type="line"/>
      <point x="834.0" y="1100.0" type="line"/>
      <point x="619.0" y="344.0" type="line"/>
      <point x="645.0" y="344.0" type="line"/>
      <point x="430.0" y="1100.0" type="line"/>
      <point x="-12.0" y="1100.0" type="line"/>
    </contour>
  </outline>
</glyph>
<glyph name="exclamdown" format="2">
  <advance width="660.0"/>
  <unicode hex="00A1"/>
  <outline>
    <contour>
      <point x="204.0" y="542.0" type="line"/>
      <point x="104.0" y="91.0" type="line"/>
      <point x="104.0" y="-380.0" type="line"/>
      <point x="556.0" y="-380.0" type="line"/>
      <point x="556.0" y="91.0" type="line"/>
      <point x="461.0" y="542.0" type="line"/>
    </contour>
    <contour>
      <point x="330.0" y="1120.0" type="curve" smooth="yes"/>
      <point x="167.0" y="1120.0"/>
      <point x="62.0" y="1025.0"/>
      <point x="62.0" y="871.0" type="curve" smooth="yes"/>
      <point x="62.0" y="717.0"/>
      <point x="163.0" y="622.0"/>
      <point x="330.0" y="622.0" type="curve" smooth="yes"/>
      <point x="497.0" y="622.0"/>
      <point x="598.0" y="721.0"/>
      <point x="598.0" y="871.0" type="curve" smooth="yes"/>
      <point x="598.0" y="1021.0"/>
      <point x="493.0" y="1120.0"/>
    </contour>
  </outline>
</glyph>
<glyph name="sterling" format="2">
  <advance width="1395.0"/>
  <unicode hex="00A3"/>
  <outline>
    <contour>
      <point x="250.0" y="124.0" type="line"/>
      <point x="670.0" y="124.0" type="line"/>
      <point x="670.0" y="994.0" type="line" smooth="yes"/>
      <point x="670.0" y="1108.0"/>
      <point x="733.0" y="1155.0"/>
      <point x="971.0" y="1155.0" type="curve" smooth="yes"/>
      <point x="1075.0" y="1155.0"/>
      <point x="1206.0" y="1139.0"/>
      <point x="1296.0" y="1115.0" type="curve"/>
      <point x="1296.0" y="1462.0" type="line"/>
      <point x="1201.0" y="1484.0"/>
      <point x="1074.0" y="1500.0"/>
      <point x="940.0" y="1500.0" type="curve" smooth="yes"/>
      <point x="472.0" y="1500.0"/>
      <point x="250.0" y="1313.0"/>
      <point x="250.0" y="976.0" type="curve" smooth="yes"/>
    </contour>
    <contour>
      <point x="70.0" y="0.0" type="line"/>
      <point x="1343.0" y="0.0" type="line"/>
      <point x="1343.0" y="342.0" type="line"/>
      <point x="70.0" y="342.0" type="line"/>
    </contour>
    <contour>
      <point x="70.0" y="595.0" type="line"/>
      <point x="1096.0" y="595.0" type="line"/>
      <point x="1096.0" y="905.0" type="line"/>
      <point x="70.0" y="905.0" type="line"/>
    </contour>
  </outline>
</glyph>
<glyph name="yen" format="2">
  <advance width="1357.0"/>
  <unicode hex="00A5"/>
  <outline>
    <contour>
      <point x="464.0" y="0.0" type="line"/>
      <point x="898.0" y="0.0" type="line"/>
      <point x="898.0" y="773.0" type="line"/>
      <point x="812.0" y="463.0" type="line"/>
      <point x="1411.0" y="1480.0" type="line"/>
      <point x="989.0" y="1480.0" type="line"/>
      <point x="633.0" y="871.0" type="line"/>
      <point x="749.0" y="871.0" type="line"/>
      <point x="389.0" y="1480.0" type="line"/>
      <point x="-67.0" y="1480.0" type="line"/>
      <point x="550.0" y="463.0" type="line"/>
      <point x="464.0" y="779.0" type="line"/>
    </contour>
    <contour>
      <point x="154.0" y="237.0" type="line"/>
      <point x="1208.0" y="237.0" type="line"/>
      <point x="1208.0" y="479.0" type="line"/>
      <point x="154.0" y="479.0" type="line"/>
    </contour>
    <contour>
      <point x="154.0" y="569.0" type="line"/>
      <point x="1208.0" y="569.0" type="line"/>
      <point x="1208.0" y="811.0" type="line"/>
      <point x="154.0" y="811.0" type="line"/>
    </contour>
  </outline>
</glyph>
<glyph name="section" format="2">
  <advance width="1172.0"/>
  <unicode hex="00A7"/>
  <outline>
    <contour>
      <point x="491.0" y="-22.0" type="curve" smooth="yes"/>
      <point x="853.0" y="-22.0"/>
      <point x="1041.0" y="120.0"/>
      <point x="1041.0" y="345.0" type="curve" smooth="yes"/>
      <point x="1041.0" y="510.0"/>
      <point x="930.0" y="593.0"/>
      <point x="754.0" y="628.0" type="curve" smooth="yes"/>
      <point x="502.0" y="676.0" type="line" smooth="yes"/>
      <point x="437.0" y="689.0"/>
      <point x="418.0" y="716.0"/>
      <point x="418.0" y="755.0" type="curve" smooth="yes"/>
      <point x="418.0" y="790.0"/>
      <point x="433.0" y="820.0"/>
      <point x="472.0" y="868.0" type="curve"/>
      <point x="256.0" y="1008.0" type="line"/>
      <point x="145.0" y="946.0"/>
      <point x="74.0" y="858.0"/>
      <point x="74.0" y="732.0" type="curve" smooth="yes"/>
      <point x="74.0" y="542.0"/>
      <point x="192.0" y="448.0"/>
      <point x="355.0" y="416.0" type="curve" smooth="yes"/>
      <point x="606.0" y="368.0" type="line" smooth="yes"/>
      <point x="644.0" y="361.0"/>
      <point x="660.0" y="348.0"/>
      <point x="660.0" y="322.0" type="curve" smooth="yes"/>
      <point x="660.0" y="290.0"/>
      <point x="630.0" y="264.0"/>
      <point x="485.0" y="264.0" type="curve" smooth="yes"/>
      <point x="367.0" y="264.0"/>
      <point x="244.0" y="278.0"/>
      <point x="135.0" y="306.0" type="curve"/>
      <point x="135.0" y="20.0" type="line"/>
      <point x="246.0" y="-8.0"/>
      <point x="381.0" y="-22.0"/>
    </contour>
    <contour>
      <point x="897.0" y="460.0" type="line"/>
      <point x="1018.0" y="524.0"/>
      <point x="1098.0" y="616.0"/>
      <point x="1098.0" y="750.0" type="curve" smooth="yes"/>
      <point x="1098.0" y="942.0"/>
      <point x="987.0" y="1031.0"/>
      <point x="820.0" y="1062.0" type="curve" smooth="yes"/>
      <point x="559.0" y="1108.0" type="line" smooth="yes"/>
      <point x="521.0" y="1115.0"/>
      <point x="502.0" y="1126.0"/>
      <point x="502.0" y="1150.0" type="curve" smooth="yes"/>
      <point x="502.0" y="1178.0"/>
      <point x="537.0" y="1212.0"/>
      <point x="740.0" y="1212.0" type="curve" smooth="yes"/>
      <point x="827.0" y="1212.0"/>
      <point x="914.0" y="1204.0"/>
      <point x="999.0" y="1186.0" type="curve"/>
      <point x="999.0" y="1472.0" type="line"/>
      <point x="916.0" y="1488.0"/>
      <point x="808.0" y="1498.0"/>
      <point x="707.0" y="1498.0" type="curve" smooth="yes"/>
      <point x="292.0" y="1498.0"/>
      <point x="121.0" y="1352.0"/>
      <point x="121.0" y="1127.0" type="curve" smooth="yes"/>
      <point x="121.0" y="974.0"/>
      <point x="237.0" y="883.0"/>
      <point x="421.0" y="848.0" type="curve" smooth="yes"/>
      <point x="672.0" y="800.0" type="line" smooth="yes"/>
      <point x="737.0" y="787.0"/>
      <point x="754.0" y="758.0"/>
      <point x="754.0" y="722.0" type="curve" smooth="yes"/>
      <point x="754.0" y="685.0"/>
      <point x="735.0" y="659.0"/>
      <point x="672.0" y="607.0" type="curve"/>
    </contour>
  </outline>
</glyph>
<glyph name="copyright" format="2">
  <advance width="1638.0"/>
  <unicode hex="00A9"/>
  <outline>
    <contour>
      <point x="819.0" y="-22.0" type="curve" smooth="yes"/>
      <point x="1271.0" y="-22.0"/>
      <point x="1569.0" y="282.0"/>
      <point x="1569.0" y="740.0" type="curve" smooth="yes"/>
      <point x="1569.0" y="1198.0"/>
      <point x="1271.0" y="1502.0"/>
      <point x="819.0" y="1502.0" type="curve" smooth="yes"/>
      <point x="367.0" y="1502.0"/>
      <point x="69.0" y="1198.0"/>
      <point x="69.0" y="740.0" type="curve" smooth="yes"/>
      <point x="69.0" y="282.0"/>
      <point x="367.0" y="-22.0"/>
    </contour>
    <contour>
      <point x="889.0" y="324.0" type="curve" smooth="yes"/>
      <point x="971.0" y="324.0"/>
      <point x="1043.0" y="336.0"/>
      <point x="1093.0" y="354.0" type="curve"/>
      <point x="1093.0" y="604.0" type="line"/>
      <point x="1015.0" y="586.0"/>
      <point x="973.0" y="580.0"/>
      <point x="917.0" y="580.0" type="curve" smooth="yes"/>
      <point x="805.0" y="580.0"/>
      <point x="743.0" y="634.0"/>
      <point x="743.0" y="732.0" type="curve" smooth="yes"/>
      <point x="743.0" y="832.0"/>
      <point x="799.0" y="888.0"/>
      <point x="929.0" y="888.0" type="curve" smooth="yes"/>
      <point x="985.0" y="888.0"/>
      <point x="1033.0" y="882.0"/>
      <point x="1093.0" y="872.0" type="curve"/>
      <point x="1093.0" y="1122.0" type="line"/>
      <point x="1037.0" y="1136.0"/>
      <point x="975.0" y="1144.0"/>
      <point x="901.0" y="1144.0" type="curve" smooth="yes"/>
      <point x="621.0" y="1144.0"/>
      <point x="443.0" y="992.0"/>
      <point x="443.0" y="732.0" type="curve" smooth="yes"/>
      <point x="443.0" y="474.0"/>
      <point x="617.0" y="324.0"/>
    </contour>
    <contour>
      <point x="819.0" y="190.0" type="curve" smooth="yes"/>
      <point x="481.0" y="190.0"/>
      <point x="291.0" y="400.0"/>
      <point x="291.0" y="740.0" type="curve" smooth="yes"/>
      <point x="291.0" y="1080.0"/>
      <point x="481.0" y="1290.0"/>
      <point x="819.0" y="1290.0" type="curve" smooth="yes"/>
      <point x="1157.0" y="1290.0"/>
      <point x="1347.0" y="1080.0"/>
      <point x="1347.0" y="740.0" type="curve" smooth="yes"/>
      <point x="1347.0" y="400.0"/>
      <point x="1157.0" y="190.0"/>
    </contour>
  </outline>
</glyph>
<glyph name="logicalnot" format="2">
  <advance width="1332.0"/>
  <unicode hex="00AC"/>
  <outline>
    <contour>
      <point x="907.0" y="200.0" type="line"/>
      <point x="1241.0" y="200.0" type="line"/>
      <point x="1241.0" y="920.0" type="line"/>
      <point x="96.0" y="920.0" type="line"/>
      <point x="96.0" y="600.0" type="line"/>
      <point x="907.0" y="600.0" type="line"/>
    </contour>
  </outline>
</glyph>
<glyph name="paragraph" format="2">
  <advance width="1373.0"/>
  <unicode hex="00B6"/>
  <outline>
    <contour>
      <point x="548.0" y="0.0" type="line"/>
      <point x="841.0" y="0.0" type="line"/>
      <point x="841.0" y="1480.0" type="line"/>
      <point x="754.0" y="1493.0"/>
      <point x="651.0" y="1500.0"/>
      <point x="553.0" y="1500.0" type="curve" smooth="yes"/>
      <point x="211.0" y="1500.0"/>
      <point x="62.0" y="1330.0"/>
      <point x="62.0" y="945.0" type="curve" smooth="yes"/>
      <point x="62.0" y="579.0"/>
      <point x="209.0" y="391.0"/>
      <point x="483.0" y="391.0" type="curve" smooth="yes"/>
      <point x="507.0" y="391.0"/>
      <point x="526.0" y="392.0"/>
      <point x="548.0" y="392.0" type="curve"/>
    </contour>
    <contour>
      <point x="971.0" y="0.0" type="line"/>
      <point x="1264.0" y="0.0" type="line"/>
      <point x="1264.0" y="1480.0" type="line"/>
      <point x="971.0" y="1480.0" type="line"/>
    </contour>
  </outline>
</glyph>
<glyph name="multiply" format="2">
  <advance width="1068.0"/>
  <unicode hex="00D7"/>
  <outline>
    <contour>
      <point x="292.0" y="292.0" type="line"/>
      <point x="534.0" y="534.0" type="line"/>
      <point x="776.0" y="292.0" type="line"/>
      <point x="1002.0" y="518.0" type="line"/>
      <point x="760.0" y="760.0" type="line"/>
      <point x="1002.0" y="1002.0" type="line"/>
      <point x="776.0" y="1228.0" type="line"/>
      <point x="534.0" y="986.0" type="line"/>
      <point x="292.0" y="1228.0" type="line"/>
      <point x="66.0" y="1002.0" type="line"/>
      <point x="308.0" y="760.0" type="line"/>
      <point x="66.0" y="518.0" type="line"/>
    </contour>
  </outline>
</glyph>
<glyph name="Thorn" format="2">
  <advance width="1383.0"/>
  <unicode hex="00DE"/>
  <outline>
    <contour>
      <point x="109.0" y="0.0" type="line"/>
      <point x="543.0" y="0.0" type="line"/>
      <point x="543.0" y="208.0" type="line"/>
      <point x="579.0" y="208.0"/>
      <point x="615.0" y="206.0"/>
      <point x="656.0" y="206.0" type="curve" smooth="yes"/>
      <point x="1080.0" y="206.0"/>
      <point x="1311.0" y="392.0"/>
      <point x="1311.0" y="760.0" type="curve" smooth="yes"/>
      <point x="1311.0" y="1145.0"/>
      <point x="1078.0" y="1315.0"/>
      <point x="610.0" y="1315.0" type="curve" smooth="yes"/>
      <point x="590.0" y="1315.0"/>
      <point x="563.0" y="1313.0"/>
      <point x="543.0" y="1313.0" type="curve"/>
      <point x="543.0" y="1480.0" type="line"/>
      <point x="109.0" y="1480.0" type="line"/>
    </contour>
    <contour>
      <point x="656.0" y="526.0" type="curve" smooth="yes"/>
      <point x="612.0" y="526.0"/>
      <point x="581.0" y="528.0"/>
      <point x="543.0" y="532.0" type="curve"/>
      <point x="543.0" y="987.0" type="line"/>
      <point x="575.0" y="993.0"/>
      <point x="603.0" y="995.0"/>
      <point x="645.0" y="995.0" type="curve" smooth="yes"/>
      <point x="815.0" y="995.0"/>
      <point x="892.0" y="925.0"/>
      <point x="892.0" y="758.0" type="curve" smooth="yes"/>
      <point x="892.0" y="586.0"/>
      <point x="815.0" y="526.0"/>
    </contour>
  </outline>
</glyph>
<glyph name="eth" format="2">
  <advance width="1266.0"/>
  <unicode hex="00F0"/>
  <outline>
    <contour>
      <point x="633.0" y="-24.0" type="curve" smooth="yes"/>
      <point x="1001.0" y="-24.0"/>
      <point x="1214.0" y="174.0"/>
      <point x="1216.0" y="621.0" type="curve" smooth="yes"/>
      <point x="1218.0" y="988.0"/>
      <point x="992.0" y="1391.0"/>
      <point x="697.0" y="1616.0" type="curve"/>
      <point x="201.0" y="1616.0" type="line"/>
      <point x="457.0" y="1432.0"/>
      <point x="681.0" y="1185.0"/>
      <point x="754.0" y="934.0" type="curve"/>
      <point x="884.0" y="961.0" type="line"/>
      <point x="817.0" y="1062.0"/>
      <point x="704.0" y="1108.0"/>
      <point x="592.0" y="1108.0" type="curve" smooth="yes"/>
      <point x="271.0" y="1108.0"/>
      <point x="53.0" y="923.0"/>
      <point x="53.0" y="546.0" type="curve" smooth="yes"/>
      <point x="53.0" y="177.0"/>
      <point x="271.0" y="-24.0"/>
    </contour>
    <contour>
      <point x="633.0" y="292.0" type="curve" smooth="yes"/>
      <point x="529.0" y="292.0"/>
      <point x="479.0" y="349.0"/>
      <point x="479.0" y="545.0" type="curve" smooth="yes"/>
      <point x="479.0" y="742.0"/>
      <point x="531.0" y="801.0"/>
      <point x="633.0" y="801.0" type="curve" smooth="yes"/>
      <point x="735.0" y="801.0"/>
      <point x="787.0" y="742.0"/>
      <point x="787.0" y="543.0" type="curve" smooth="yes"/>
      <point x="787.0" y="349.0"/>
      <point x="737.0" y="292.0"/>
    </contour>
    <contour>
      <point x="175.0" y="1155.0" type="line"/>
      <point x="1181.0" y="1341.0" type="line"/>
      <point x="1136.0" y="1564.0" type="line"/>
      <point x="130.0" y="1378.0" type="line"/>
    </contour>
  </outline>
</glyph>
<glyph name="eogonek" format="2">
  <advance width="1162.0"/>
  <unicode hex="0119"/>
  <outline>
    <contour>
      <point x="874.0" y="-460.0" type="curve" smooth="yes"/>
      <point x="953.0" y="-460.0"/>
      <point x="1004.0" y="-447.0"/>
      <point x="1054.0" y="-430.0" type="curve"/>
      <point x="1054.0" y="-275.0" type="line"/>
      <point x="1008.0" y="-293.0"/>
      <point x="968.0" y="-300.0"/>
      <point x="936.0" y="-300.0" type="curve" smooth="yes"/>
      <point x="857.0" y="-300.0"/>
      <point x="818.0" y="-264.0"/>
      <point x="818.0" y="-208.0" type="curve" smooth="yes"/>
      <point x="818.0" y="-133.0"/>
      <point x="865.0" y="-58.0"/>
      <point x="1054.0" y="11.0" type="curve"/>
      <point x="1054.0" y="322.0" type="line"/>
      <point x="962.0" y="305.0"/>
      <point x="861.0" y="293.0"/>
      <point x="774.0" y="293.0" type="curve" smooth="yes"/>
      <point x="523.0" y="293.0"/>
      <point x="475.0" y="338.0"/>
      <point x="475.0" y="474.0" type="curve" smooth="yes"/>
      <point x="475.0" y="639.0" type="line" smooth="yes"/>
      <point x="475.0" y="798.0"/>
      <point x="513.0" y="848.0"/>
      <point x="602.0" y="848.0" type="curve" smooth="yes"/>
      <point x="690.0" y="848.0"/>
      <point x="727.0" y="797.0"/>
      <point x="727.0" y="638.0" type="curve"/>
      <point x="788.0" y="655.0" type="line"/>
      <point x="297.0" y="655.0" type="line"/>
      <point x="297.0" y="431.0" type="line"/>
      <point x="1119.0" y="431.0" type="line"/>
      <point x="1119.0" y="537.0" type="line" smooth="yes"/>
      <point x="1119.0" y="901.0"/>
      <point x="947.0" y="1118.0"/>
      <point x="607.0" y="1118.0" type="curve" smooth="yes"/>
      <point x="246.0" y="1118.0"/>
      <point x="53.0" y="901.0"/>
      <point x="53.0" y="551.0" type="curve" smooth="yes"/>
      <point x="53.0" y="153.0"/>
      <point x="249.0" y="-22.0"/>
      <point x="712.0" y="-22.0" type="curve" smooth="yes"/>
      <point x="764.0" y="-22.0"/>
      <point x="823.0" y="-20.0"/>
      <point x="882.0" y="-15.0" type="curve"/>
      <point x="869.0" y="60.0" type="line"/>
      <point x="649.0" y="-13.0"/>
      <point x="582.0" y="-115.0"/>
      <point x="582.0" y="-236.0" type="curve" smooth="yes"/>
      <point x="582.0" y="-372.0"/>
      <point x="679.0" y="-460.0"/>
    </contour>
  </outline>
</glyph>
<glyph name="kgreenlandic" format="2">
  <advance width="1273.0"/>
  <unicode hex="0138"/>
  <outline>
    <contour>
      <point x="856.0" y="0.0" type="line"/>
      <point x="1314.0" y="0.0" type="line"/>
      <point x="929.0" y="630.0" type="line"/>
      <point x="929.0" y="520.0" type="line"/>
      <point x="1277.0" y="1100.0" type="line"/>
      <point x="829.0" y="1100.0" type="line"/>
      <point x="502.0" y="566.0" type="line"/>
    </contour>
    <contour>
      <point x="97.0" y="0.0" type="line"/>
      <point x="522.0" y="0.0" type="line"/>
      <point x="522.0" y="1100.0" type="line"/>
      <point x="97.0" y="1100.0" type="line"/>
    </contour>
    <contour>
      <point x="490.0" y="398.0" type="line"/>
      <point x="644.0" y="398.0" type="line"/>
      <point x="644.0" y="734.0" type="line"/>
      <point x="490.0" y="734.0" type="line"/>
    </contour>
  </outline>
</glyph>
<glyph name="eng" format="2">
  <advance width="1280.0"/>
  <unicode hex="014B"/>
  <outline>
    <contour>
      <point x="894.0" y="-476.0" type="line"/>
      <point x="1115.0" y="-258.0"/>
      <point x="1189.0" y="-54.0"/>
      <point x="1189.0" y="196.0" type="curve" smooth="yes"/>
      <point x="1189.0" y="658.0" type="line" smooth="yes"/>
      <point x="1189.0" y="989.0"/>
      <point x="1024.0" y="1118.0"/>
      <point x="800.0" y="1118.0" type="curve" smooth="yes"/>
      <point x="674.0" y="1118.0"/>
      <point x="569.0" y="1075.0"/>
      <point x="492.0" y="996.0" type="curve"/>
      <point x="474.0" y="996.0" type="line"/>
      <point x="446.0" y="1100.0" type="line"/>
      <point x="97.0" y="1100.0" type="line"/>
      <point x="97.0" y="0.0" type="line"/>
      <point x="522.0" y="0.0" type="line"/>
      <point x="522.0" y="708.0" type="line"/>
      <point x="553.0" y="739.0"/>
      <point x="606.0" y="760.0"/>
      <point x="658.0" y="760.0" type="curve" smooth="yes"/>
      <point x="725.0" y="760.0"/>
      <point x="764.0" y="730.0"/>
      <point x="764.0" y="632.0" type="curve" smooth="yes"/>
      <point x="764.0" y="180.0" type="line" smooth="yes"/>
      <point x="764.0" y="-26.0"/>
      <point x="731.0" y="-152.0"/>
      <point x="622.0" y="-296.0" type="curve"/>
    </contour>
  </outline>
</glyph>
<glyph name="florin" format="2">
  <advance width="860.0"/>
  <unicode hex="0192"/>
  <outline>
    <contour>
      <point x="55.0" y="-460.0" type="curve" smooth="yes"/>
      <point x="414.0" y="-460.0"/>
      <point x="611.0" y="-263.0"/>
      <point x="611.0" y="55.0" type="curve" smooth="yes"/>
      <point x="611.0" y="1141.0" type="line" smooth="yes"/>
      <point x="611.0" y="1249.0"/>
      <point x="669.0" y="1304.0"/>
      <point x="816.0" y="1304.0" type="curve" smooth="yes"/>
      <point x="848.0" y="1304.0"/>
      <point x="877.0" y="1302.0"/>
      <point x="913.0" y="1298.0" type="curve"/>
      <point x="913.0" y="1624.0" type="line"/>
      <point x="858.0" y="1632.0"/>
      <point x="808.0" y="1636.0"/>
      <point x="745.0" y="1636.0" type="curve" smooth="yes"/>
      <point x="386.0" y="1636.0"/>
      <point x="189.0" y="1439.0"/>
      <point x="189.0" y="1121.0" type="curve" smooth="yes"/>
      <point x="189.0" y="35.0" type="line" smooth="yes"/>
      <point x="189.0" y="-73.0"/>
      <point x="131.0" y="-128.0"/>
      <point x="-16.0" y="-128.0" type="curve" smooth="yes"/>
      <point x="-48.0" y="-128.0"/>
      <point x="-77.0" y="-126.0"/>
      <point x="-113.0" y="-122.0" type="curve"/>
      <point x="-113.0" y="-448.0" type="line"/>
      <point x="-58.0" y="-456.0"/>
      <point x="-8.0" y="-460.0"/>
    </contour>
    <contour>
      <point x="29.0" y="770.0" type="line"/>
      <point x="864.0" y="770.0" type="line"/>
      <point x="864.0" y="1100.0" type="line"/>
      <point x="29.0" y="1100.0" type="line"/>
    </contour>
  </outline>
</glyph>
<glyph name="commaturnedmod" format="2">
  <advance width="1200.0"/>
  <unicode hex="02BB"/>
  <anchor x="600.0" y="1200.0" name="_top"/>
  <anchor x="600.0" y="1700.0" name="top"/>
  <outline>
    <contour>
      <point x="600.0" y="1212.0" type="curve" smooth="yes"/>
      <point x="761.0" y="1212.0"/>
      <point x="828.0" y="1262.0"/>
      <point x="828.0" y="1346.0" type="curve" smooth="yes"/>
      <point x="828.0" y="1428.0"/>
      <point x="766.0" y="1480.0"/>
      <point x="600.0" y="1480.0" type="curve" smooth="yes"/>
      <point x="572.0" y="1480.0" type="line"/>
      <point x="655.0" y="1402.0" type="line"/>
      <point x="655.0" y="1476.0"/>
      <point x="673.0" y="1531.0"/>
      <point x="726.0" y="1626.0" type="curve"/>
      <point x="464.0" y="1626.0" type="line"/>
      <point x="411.0" y="1566.0"/>
      <point x="372.0" y="1469.0"/>
      <point x="372.0" y="1388.0" type="curve" smooth="yes"/>
      <point x="372.0" y="1277.0"/>
      <point x="439.0" y="1212.0"/>
    </contour>
  </outline>
</glyph>
<glyph name="apostrophemod" format="2">
  <advance width="1200.0"/>
  <unicode hex="02BC"/>
  <anchor x="600.0" y="1200.0" name="_apostrophe"/>
  <outline>
    <contour>
      <point x="702.0" y="1212.0" type="curve"/>
      <point x="964.0" y="1212.0" type="line"/>
      <point x="1017.0" y="1272.0"/>
      <point x="1056.0" y="1369.0"/>
      <point x="1056.0" y="1450.0" type="curve" smooth="yes"/>
      <point x="1056.0" y="1561.0"/>
      <point x="989.0" y="1626.0"/>
      <point x="828.0" y="1626.0" type="curve" smooth="yes"/>
      <point x="667.0" y="1626.0"/>
      <point x="600.0" y="1576.0"/>
      <point x="600.0" y="1492.0" type="curve" smooth="yes"/>
      <point x="600.0" y="1410.0"/>
      <point x="662.0" y="1358.0"/>
      <point x="828.0" y="1358.0" type="curve" smooth="yes"/>
      <point x="856.0" y="1358.0" type="line"/>
      <point x="773.0" y="1436.0" type="line"/>
      <point x="773.0" y="1362.0"/>
      <point x="755.0" y="1307.0"/>
    </contour>
  </outline>
</glyph>
<glyph name="ringhalfleft" format="2">
  <advance width="1200.0"/>
  <unicode hex="02BF"/>
  <anchor x="600.0" y="1200.0" name="_top"/>
  <anchor x="600.0" y="1700.0" name="top"/>
  <outline>
    <contour>
      <point x="600.0" y="1214.0" type="curve"/>
      <point x="600.0" y="1352.0" type="line"/>
      <point x="554.0" y="1352.0"/>
      <point x="522.0" y="1384.0"/>
      <point x="522.0" y="1434.0" type="curve" smooth="yes"/>
      <point x="522.0" y="1484.0"/>
      <point x="554.0" y="1516.0"/>
      <point x="600.0" y="1516.0" type="curve"/>
      <point x="600.0" y="1654.0" type="line"/>
      <point x="468.0" y="1654.0"/>
      <point x="372.0" y="1562.0"/>
      <point x="372.0" y="1434.0" type="curve" smooth="yes"/>
      <point x="372.0" y="1306.0"/>
      <point x="468.0" y="1214.0"/>
    </contour>
  </outline>
</glyph>
<glyph name="firsttonechinese" format="2">
  <advance width="1200.0"/>
  <unicode hex="02C9"/>
  <anchor x="600.0" y="1200.0" name="_top"/>
  <anchor x="600.0" y="1700.0" name="top"/>
  <outline>
    <contour>
      <point x="214.0" y="1295.0" type="line"/>
      <point x="986.0" y="1295.0" type="line"/>
      <point x="986.0" y="1543.0" type="line"/>
      <point x="214.0" y="1543.0" type="line"/>
    </contour>
  </outline>
</glyph>
<glyph name="brevecomb" format="2">
  <unicode hex="0306"/>
  <anchor x="600.0" y="1200.0" name="_top"/>
  <anchor x="600.0" y="1616.0" name="top"/>
  <outline>
    <contour>
      <point x="600.0" y="1228.0" type="curve" smooth="yes"/>
      <point x="845.0" y="1228.0"/>
      <point x="993.0" y="1352.0"/>
      <point x="1007.0" y="1596.0" type="curve"/>
      <point x="756.0" y="1596.0" type="line"/>
      <point x="747.0" y="1486.0"/>
      <point x="696.0" y="1435.0"/>
      <point x="600.0" y="1435.0" type="curve" smooth="yes"/>
      <point x="504.0" y="1435.0"/>
      <point x="453.0" y="1486.0"/>
      <point x="444.0" y="1596.0" type="curve"/>
      <point x="193.0" y="1596.0" type="line"/>
      <point x="207.0" y="1352.0"/>
      <point x="355.0" y="1228.0"/>
    </contour>
  </outline>
</glyph>
<glyph name="dotaccentcomb" format="2">
  <unicode hex="0307"/>
  <anchor x="600.0" y="1200.0" name="_top"/>
  <anchor x="600.0" y="1656.0" name="top"/>
  <outline>
    <contour>
      <point x="600.0" y="1208.0" type="curve" smooth="yes"/>
      <point x="776.0" y="1208.0"/>
      <point x="854.0" y="1284.0"/>
      <point x="854.0" y="1418.0" type="curve" smooth="yes"/>
      <point x="854.0" y="1552.0"/>
      <point x="776.0" y="1628.0"/>
      <point x="600.0" y="1628.0" type="curve" smooth="yes"/>
      <point x="424.0" y="1628.0"/>
      <point x="346.0" y="1552.0"/>
      <point x="346.0" y="1418.0" type="curve" smooth="yes"/>
      <point x="346.0" y="1284.0"/>
      <point x="424.0" y="1208.0"/>
    </contour>
  </outline>
</glyph>
<glyph name="dieresiscomb" format="2">
  <unicode hex="0308"/>
  <anchor x="600.0" y="1200.0" name="_top"/>
  <anchor x="600.0" y="1616.0" name="top"/>
  <outline>
    <contour>
      <point x="864.0" y="1215.0" type="curve" smooth="yes"/>
      <point x="1007.0" y="1215.0"/>
      <point x="1083.0" y="1291.0"/>
      <point x="1083.0" y="1418.0" type="curve" smooth="yes"/>
      <point x="1083.0" y="1545.0"/>
      <point x="1007.0" y="1621.0"/>
      <point x="864.0" y="1621.0" type="curve" smooth="yes"/>
      <point x="721.0" y="1621.0"/>
      <point x="645.0" y="1545.0"/>
      <point x="645.0" y="1418.0" type="curve" smooth="yes"/>
      <point x="645.0" y="1291.0"/>
      <point x="721.0" y="1215.0"/>
    </contour>
    <contour>
      <point x="336.0" y="1215.0" type="curve" smooth="yes"/>
      <point x="479.0" y="1215.0"/>
      <point x="555.0" y="1291.0"/>
      <point x="555.0" y="1418.0" type="curve" smooth="yes"/>
      <point x="555.0" y="1545.0"/>
      <point x="479.0" y="1621.0"/>
      <point x="336.0" y="1621.0" type="curve" smooth="yes"/>
      <point x="193.0" y="1621.0"/>
      <point x="117.0" y="1545.0"/>
      <point x="117.0" y="1418.0" type="curve" smooth="yes"/>
      <point x="117.0" y="1291.0"/>
      <point x="193.0" y="1215.0"/>
    </contour>
  </outline>
</glyph>
<glyph name="hookabovecomb" format="2">
  <unicode hex="0309"/>
  <anchor x="600.0" y="1200.0" name="_top"/>
  <anchor x="600.0" y="1656.0" name="top"/>
  <outline>
    <contour>
      <point x="499.0" y="1220.0" type="curve"/>
      <point x="701.0" y="1220.0" type="line"/>
      <point x="715.0" y="1328.0"/>
      <point x="860.0" y="1322.0"/>
      <point x="860.0" y="1466.0" type="curve" smooth="yes"/>
      <point x="860.0" y="1578.0"/>
      <point x="775.0" y="1628.0"/>
      <point x="594.0" y="1628.0" type="curve" smooth="yes"/>
      <point x="532.0" y="1628.0"/>
      <point x="445.0" y="1619.0"/>
      <point x="389.0" y="1602.0" type="curve"/>
      <point x="389.0" y="1451.0" type="line"/>
      <point x="452.0" y="1468.0"/>
      <point x="507.0" y="1475.0"/>
      <point x="560.0" y="1475.0" type="curve" smooth="yes"/>
      <point x="620.0" y="1475.0"/>
      <point x="645.0" y="1464.0"/>
      <point x="645.0" y="1438.0" type="curve" smooth="yes"/>
      <point x="645.0" y="1380.0"/>
      <point x="507.0" y="1368.0"/>
    </contour>
  </outline>
</glyph>
<glyph name="hungarumlautcomb" format="2">
  <unicode hex="030B"/>
  <anchor x="600.0" y="1200.0" name="_top"/>
  <anchor x="600.0" y="1666.0" name="top"/>
  <outline>
    <contour>
      <point x="671.0" y="1220.0" type="line"/>
      <point x="981.0" y="1220.0" type="line"/>
      <point x="1153.0" y="1616.0" type="line"/>
      <point x="823.0" y="1616.0" type="line"/>
    </contour>
    <contour>
      <point x="219.0" y="1220.0" type="line"/>
      <point x="529.0" y="1220.0" type="line"/>
      <point x="701.0" y="1616.0" type="line"/>
      <point x="371.0" y="1616.0" type="line"/>
    </contour>
  </outline>
</glyph>
<glyph name="dblgravecomb" format="2">
  <unicode hex="030F"/>
  <anchor x="600.0" y="1200.0" name="_top"/>
  <anchor x="600.0" y="1656.0" name="top"/>
  <outline>
    <contour>
      <point x="671.0" y="1220.0" type="line"/>
      <point x="981.0" y="1220.0" type="line"/>
      <point x="829.0" y="1616.0" type="line"/>
      <point x="499.0" y="1616.0" type="line"/>
    </contour>
    <contour>
      <point x="219.0" y="1220.0" type="line"/>
      <point x="529.0" y="1220.0" type="line"/>
      <point x="377.0" y="1616.0" type="line"/>
      <point x="47.0" y="1616.0" type="line"/>
    </contour>
  </outline>
</glyph>
<glyph name="breveinvertedcomb" format="2">
  <unicode hex="0311"/>
  <anchor x="600.0" y="1200.0" name="_top"/>
  <anchor x="600.0" y="1656.0" name="top"/>
  <outline>
    <contour>
      <point x="193.0" y="1248.0" type="curve"/>
      <point x="444.0" y="1248.0" type="line"/>
      <point x="453.0" y="1361.0"/>
      <point x="500.0" y="1412.0"/>
      <point x="600.0" y="1412.0" type="curve" smooth="yes"/>
      <point x="695.0" y="1412.0"/>
      <point x="747.0" y="1361.0"/>
      <point x="756.0" y="1248.0" type="curve"/>
      <point x="1007.0" y="1248.0" type="line"/>
      <point x="993.0" y="1492.0"/>
      <point x="843.0" y="1616.0"/>
      <point x="600.0" y="1616.0" type="curve" smooth="yes"/>
      <point x="352.0" y="1616.0"/>
      <point x="207.0" y="1492.0"/>
    </contour>
  </outline>
</glyph>
<glyph name="horncomb" format="2">
  <unicode hex="031B"/>
  <anchor x="400.0" y="1480.0" name="_topright"/>
  <anchor x="400.0" y="1480.0" name="topright"/>
  <outline>
    <contour>
      <point x="400.0" y="1293.0" type="line"/>
      <point x="623.0" y="1293.0" type="line" smooth="yes"/>
      <point x="827.0" y="1293.0"/>
      <point x="966.0" y="1389.0"/>
      <point x="966.0" y="1613.0" type="curve" smooth="yes"/>
      <point x="966.0" y="1662.0"/>
      <point x="963.0" y="1712.0"/>
      <point x="947.0" y="1769.0" type="curve"/>
      <point x="688.0" y="1769.0" type="line"/>
      <point x="699.0" y="1710.0"/>
      <point x="702.0" y="1668.0"/>
      <point x="702.0" y="1631.0" type="curve" smooth="yes"/>
      <point x="702.0" y="1518.0"/>
      <point x="641.0" y="1480.0"/>
      <point x="530.0" y="1480.0" type="curve" smooth="yes"/>
      <point x="400.0" y="1480.0" type="line"/>
    </contour>
  </outline>
</glyph>
<glyph name="dieresisbelowcomb" format="2">
  <unicode hex="0324"/>
  <anchor x="600.0" y="0.0" name="_bottom"/>
  <anchor x="600.0" y="-520.0" name="bottom"/>
  <outline>
    <contour>
      <point x="864.0" y="-510.0" type="curve" smooth="yes"/>
      <point x="1007.0" y="-510.0"/>
      <point x="1083.0" y="-434.0"/>
      <point x="1083.0" y="-307.0" type="curve" smooth="yes"/>
      <point x="1083.0" y="-180.0"/>
      <point x="1007.0" y="-104.0"/>
      <point x="864.0" y="-104.0" type="curve" smooth="yes"/>
      <point x="721.0" y="-104.0"/>
      <point x="645.0" y="-180.0"/>
      <point x="645.0" y="-307.0" type="curve" smooth="yes"/>
      <point x="645.0" y="-434.0"/>
      <point x="721.0" y="-510.0"/>
    </contour>
    <contour>
      <point x="336.0" y="-510.0" type="curve" smooth="yes"/>
      <point x="479.0" y="-510.0"/>
      <point x="555.0" y="-434.0"/>
      <point x="555.0" y="-307.0" type="curve" smooth="yes"/>
      <point x="555.0" y="-180.0"/>
      <point x="479.0" y="-104.0"/>
      <point x="336.0" y="-104.0" type="curve" smooth="yes"/>
      <point x="193.0" y="-104.0"/>
      <point x="117.0" y="-180.0"/>
      <point x="117.0" y="-307.0" type="curve" smooth="yes"/>
      <point x="117.0" y="-434.0"/>
      <point x="193.0" y="-510.0"/>
    </contour>
  </outline>
</glyph>
<glyph name="pi" format="2">
  <advance width="1518.0"/>
  <unicode hex="03C0"/>
  <outline>
    <contour>
      <point x="1245.0" y="-21.0" type="curve" smooth="yes"/>
      <point x="1322.0" y="-21.0"/>
      <point x="1411.0" y="-9.0"/>
      <point x="1471.0" y="5.0" type="curve"/>
      <point x="1471.0" y="335.0" type="line"/>
      <point x="1429.0" y="329.0"/>
      <point x="1398.0" y="325.0"/>
      <point x="1367.0" y="325.0" type="curve" smooth="yes"/>
      <point x="1256.0" y="325.0"/>
      <point x="1218.0" y="363.0"/>
      <point x="1218.0" y="491.0" type="curve" smooth="yes"/>
      <point x="1218.0" y="908.0" type="line"/>
      <point x="793.0" y="908.0" type="line"/>
      <point x="793.0" y="425.0" type="line" smooth="yes"/>
      <point x="793.0" y="117.0"/>
      <point x="952.0" y="-21.0"/>
    </contour>
    <contour>
      <point x="181.0" y="0.0" type="line"/>
      <point x="606.0" y="0.0" type="line"/>
      <point x="606.0" y="911.0" type="line"/>
      <point x="181.0" y="911.0" type="line"/>
    </contour>
    <contour>
      <point x="21.0" y="770.0" type="line"/>
      <point x="1378.0" y="770.0" type="line"/>
      <point x="1378.0" y="1100.0" type="line"/>
      <point x="21.0" y="1100.0" type="line"/>
    </contour>
  </outline>
</glyph>
<glyph name="Germandbls" format="2">
  <advance width="1903.0"/>
  <unicode hex="1E9E"/>
  <outline>
    <contour>
      <point x="1237.0" y="-20.0" type="curve" smooth="yes"/>
      <point x="1631.0" y="-20.0"/>
      <point x="1861.0" y="166.0"/>
      <point x="1861.0" y="461.0" type="curve" smooth="yes"/>
      <point x="1861.0" y="697.0"/>
      <point x="1730.0" y="835.0"/>
      <point x="1447.0" y="908.0" type="curve" smooth="yes"/>
      <point x="1321.0" y="942.0" type="line" smooth="yes"/>
      <point x="1227.0" y="968.0"/>
      <point x="1205.0" y="997.0"/>
      <point x="1205.0" y="1045.0" type="curve" smooth="yes"/>
      <point x="1205.0" y="1105.0"/>
      <point x="1257.0" y="1155.0"/>
      <point x="1470.0" y="1155.0" type="curve" smooth="yes"/>
      <point x="1569.0" y="1155.0"/>
      <point x="1694.0" y="1139.0"/>
      <point x="1781.0" y="1115.0" type="curve"/>
      <point x="1781.0" y="1462.0" type="line"/>
      <point x="1690.0" y="1484.0"/>
      <point x="1568.0" y="1500.0"/>
      <point x="1440.0" y="1500.0" type="curve" smooth="yes"/>
      <point x="993.0" y="1500.0"/>
      <point x="780.0" y="1323.0"/>
      <point x="780.0" y="1022.0" type="curve" smooth="yes"/>
      <point x="780.0" y="786.0"/>
      <point x="914.0" y="646.0"/>
      <point x="1168.0" y="581.0" type="curve" smooth="yes"/>
      <point x="1294.0" y="547.0" type="line" smooth="yes"/>
      <point x="1409.0" y="516.0"/>
      <point x="1437.0" y="484.0"/>
      <point x="1437.0" y="431.0" type="curve" smooth="yes"/>
      <point x="1437.0" y="368.0"/>
      <point x="1391.0" y="325.0"/>
      <point x="1230.0" y="325.0" type="curve" smooth="yes"/>
      <point x="1114.0" y="325.0"/>
      <point x="942.0" y="350.0"/>
      <point x="823.0" y="388.0" type="curve"/>
      <point x="823.0" y="41.0" type="line"/>
      <point x="942.0" y="3.0"/>
      <point x="1095.0" y="-20.0"/>
    </contour>
    <contour>
      <point x="109.0" y="0.0" type="line"/>
      <point x="543.0" y="0.0" type="line"/>
      <point x="543.0" y="954.0" type="line" smooth="yes"/>
      <point x="543.0" y="1086.0"/>
      <point x="608.0" y="1157.0"/>
      <point x="729.0" y="1157.0" type="curve" smooth="yes"/>
      <point x="788.0" y="1157.0"/>
      <point x="834.0" y="1139.0"/>
      <point x="879.0" y="1107.0" type="curve"/>
      <point x="1129.0" y="1399.0" type="line"/>
      <point x="1025.0" y="1463.0"/>
      <point x="892.0" y="1500.0"/>
      <point x="729.0" y="1500.0" type="curve" smooth="yes"/>
      <point x="309.0" y="1500.0"/>
      <point x="109.0" y="1274.0"/>
      <point x="109.0" y="901.0" type="curve" smooth="yes"/>
    </contour>
  </outline>
</glyph>
<glyph name="Ohorntilde" format="2">
  <advance width="1644.0"/>
  <unicode hex="1EE0"/>
  <outline>
    <contour>
      <point x="822.0" y="-20.0" type="curve" smooth="yes"/>
      <point x="1282.0" y="-20.0"/>
      <point x="1575.0" y="239.0"/>
      <point x="1575.0" y="740.0" type="curve" smooth="yes"/>
      <point x="1575.0" y="1042.0"/>
      <point x="1468.0" y="1258.0"/>
      <point x="1280.0" y="1377.0" type="curve"/>
      <point x="1250.0" y="1293.0" type="line"/>
      <point x="1454.0" y="1293.0"/>
      <point x="1593.0" y="1389.0"/>
      <point x="1593.0" y="1618.0" type="curve" smooth="yes"/>
      <point x="1593.0" y="1669.0"/>
      <point x="1590.0" y="1719.0"/>
      <point x="1574.0" y="1776.0" type="curve"/>
      <point x="1296.0" y="1776.0" type="line"/>
      <point x="1307.0" y="1717.0"/>
      <point x="1310.0" y="1675.0"/>
      <point x="1310.0" y="1636.0" type="curve" smooth="yes"/>
      <point x="1310.0" y="1518.0"/>
      <point x="1249.0" y="1480.0"/>
      <point x="1128.0" y="1480.0" type="curve" smooth="yes"/>
      <point x="1038.0" y="1480.0"/>
      <point x="933.0" y="1500.0"/>
      <point x="822.0" y="1500.0" type="curve" smooth="yes"/>
      <point x="364.0" y="1500.0"/>
      <point x="69.0" y="1243.0"/>
      <point x="69.0" y="740.0" type="curve" smooth="yes"/>
      <point x="69.0" y="237.0"/>
      <point x="362.0" y="-20.0"/>
    </contour>
    <contour>
      <point x="822.0" y="326.0" type="curve" smooth="yes"/>
      <point x="622.0" y="326.0"/>
      <point x="513.0" y="447.0"/>
      <point x="513.0" y="748.0" type="curve" smooth="yes"/>
      <point x="513.0" y="1033.0"/>
      <point x="625.0" y="1154.0"/>
      <point x="822.0" y="1154.0" type="curve" smooth="yes"/>
      <point x="1019.0" y="1154.0"/>
      <point x="1131.0" y="1030.0"/>
      <point x="1131.0" y="732.0" type="curve" smooth="yes"/>
      <point x="1131.0" y="450.0"/>
      <point x="1022.0" y="326.0"/>
    </contour>
    <contour>
      <point x="998.0" y="1586.0" type="curve" smooth="yes"/>
      <point x="1093.0" y="1586.0"/>
      <point x="1156.0" y="1608.0"/>
      <point x="1213.0" y="1661.0" type="curve"/>
      <point x="1213.0" y="1894.0" type="line"/>
      <point x="1147.0" y="1847.0"/>
      <point x="1090.0" y="1824.0"/>
      <point x="1005.0" y="1824.0" type="curve" smooth="yes"/>
      <point x="882.0" y="1824.0"/>
      <point x="789.0" y="1902.0"/>
      <point x="647.0" y="1902.0" type="curve" smooth="yes"/>
      <point x="551.0" y="1902.0"/>
      <point x="488.0" y="1878.0"/>
      <point x="431.0" y="1825.0" type="curve"/>
      <point x="431.0" y="1592.0" type="line"/>
      <point x="497.0" y="1639.0"/>
      <point x="554.0" y="1662.0"/>
      <point x="639.0" y="1662.0" type="curve" smooth="yes"/>
      <point x="762.0" y="1662.0"/>
      <point x="855.0" y="1586.0"/>
    </contour>
  </outline>
</glyph>
<glyph name="uhorntilde" format="2">
  <advance width="1311.0"/>
  <unicode hex="1EEF"/>
  <outline>
    <contour>
      <point x="487.0" y="-19.0" type="curve" smooth="yes"/>
      <point x="602.0" y="-19.0"/>
      <point x="702.0" y="24.0"/>
      <point x="781.0" y="104.0" type="curve"/>
      <point x="797.0" y="104.0" type="line"/>
      <point x="825.0" y="0.0" type="line"/>
      <point x="1174.0" y="0.0" type="line"/>
      <point x="1174.0" y="1080.0" type="line"/>
      <point x="1004.0" y="913.0" type="line"/>
      <point x="1208.0" y="913.0"/>
      <point x="1347.0" y="1009.0"/>
      <point x="1347.0" y="1233.0" type="curve" smooth="yes"/>
      <point x="1347.0" y="1282.0"/>
      <point x="1344.0" y="1332.0"/>
      <point x="1328.0" y="1389.0" type="curve"/>
      <point x="1069.0" y="1389.0" type="line"/>
      <point x="1080.0" y="1330.0"/>
      <point x="1083.0" y="1288.0"/>
      <point x="1083.0" y="1251.0" type="curve" smooth="yes"/>
      <point x="1083.0" y="1138.0"/>
      <point x="1022.0" y="1100.0"/>
      <point x="911.0" y="1100.0" type="curve" smooth="yes"/>
      <point x="749.0" y="1100.0" type="line"/>
      <point x="749.0" y="396.0" type="line"/>
      <point x="718.0" y="365.0"/>
      <point x="665.0" y="344.0"/>
      <point x="617.0" y="344.0" type="curve" smooth="yes"/>
      <point x="555.0" y="344.0"/>
      <point x="516.0" y="374.0"/>
      <point x="516.0" y="470.0" type="curve" smooth="yes"/>
      <point x="516.0" y="1100.0" type="line"/>
      <point x="91.0" y="1100.0" type="line"/>
      <point x="91.0" y="439.0" type="line" smooth="yes"/>
      <point x="91.0" y="110.0"/>
      <point x="258.0" y="-19.0"/>
    </contour>
    <contour>
      <point x="793.0" y="1245.0" type="curve" smooth="yes"/>
      <point x="881.0" y="1245.0"/>
      <point x="944.0" y="1270.0"/>
      <point x="1001.0" y="1329.0" type="curve"/>
      <point x="1001.0" y="1585.0" type="line"/>
      <point x="935.5" y="1521.0"/>
      <point x="878.0" y="1494.0"/>
      <point x="801.0" y="1494.0" type="curve" smooth="yes"/>
      <point x="693.0" y="1494.0"/>
      <point x="599.5" y="1593.0"/>
      <point x="473.0" y="1593.0" type="curve" smooth="yes"/>
      <point x="385.0" y="1593.0"/>
      <point x="322.0" y="1568.0"/>
      <point x="265.0" y="1509.0" type="curve"/>
      <point x="265.0" y="1253.0" type="line"/>
      <point x="330.5" y="1317.0"/>
      <point x="388.0" y="1344.0"/>
      <point x="465.0" y="1344.0" type="curve" smooth="yes"/>
      <point x="573.0" y="1344.0"/>
      <point x="666.5" y="1245.0"/>
    </contour>
  </outline>
</glyph>
<glyph name="figuredash" format="2">
  <advance width="1320.0"/>
  <unicode hex="2012"/>
  <outline>
    <contour>
      <point x="96.0" y="425.0" type="line"/>
      <point x="1224.0" y="425.0" type="line"/>
      <point x="1224.0" y="715.0" type="line"/>
      <point x="96.0" y="715.0" type="line"/>
    </contour>
  </outline>
</glyph>
<glyph name="quoteleft" format="2">
  <advance width="620.0"/>
  <unicode hex="2018"/>
  <outline>
    <contour>
      <point x="326.0" y="778.0" type="curve" smooth="yes"/>
      <point x="477.0" y="778.0"/>
      <point x="578.0" y="870.0"/>
      <point x="578.0" y="1027.0" type="curve" smooth="yes"/>
      <point x="578.0" y="1181.0"/>
      <point x="471.0" y="1276.0"/>
      <point x="310.0" y="1276.0" type="curve" smooth="yes"/>
      <point x="258.0" y="1276.0" type="line"/>
      <point x="355.0" y="1204.0" type="line"/>
      <point x="355.0" y="1338.0"/>
      <point x="400.0" y="1462.0"/>
      <point x="478.0" y="1616.0" type="curve"/>
      <point x="238.0" y="1616.0" type="line"/>
      <point x="120.0" y="1474.0"/>
      <point x="44.0" y="1280.0"/>
      <point x="44.0" y="1101.0" type="curve" smooth="yes"/>
      <point x="44.0" y="887.0"/>
      <point x="138.0" y="778.0"/>
    </contour>
  </outline>
</glyph>
<glyph name="quoteright" format="2">
  <advance width="620.0"/>
  <unicode hex="2019"/>
  <outline>
    <contour>
      <point x="142.0" y="798.0" type="curve"/>
      <point x="382.0" y="798.0" type="line"/>
      <point x="500.0" y="940.0"/>
      <point x="576.0" y="1134.0"/>
      <point x="576.0" y="1313.0" type="curve" smooth="yes"/>
      <point x="576.0" y="1527.0"/>
      <point x="482.0" y="1636.0"/>
      <point x="304.0" y="1636.0" type="curve" smooth="yes"/>
      <point x="143.0" y="1636.0"/>
      <point x="42.0" y="1544.0"/>
      <point x="42.0" y="1387.0" type="curve" smooth="yes"/>
      <point x="42.0" y="1233.0"/>
      <point x="149.0" y="1138.0"/>
      <point x="310.0" y="1138.0" type="curve" smooth="yes"/>
      <point x="362.0" y="1138.0" type="line"/>
      <point x="265.0" y="1210.0" type="line"/>
      <point x="265.0" y="1076.0"/>
      <point x="220.0" y="952.0"/>
    </contour>
  </outline>
</glyph>
<glyph name="dagger" format="2">
  <advance width="1093.0"/>
  <unicode hex="2020"/>
  <outline>
    <contour>
      <point x="439.0" y="160.0" type="line"/>
      <point x="654.0" y="160.0" type="line"/>
      <point x="686.0" y="380.0" type="line"/>
      <point x="686.0" y="972.0" type="line"/>
      <point x="654.0" y="1113.0" type="line"/>
      <point x="874.0" y="1082.0" type="line"/>
      <point x="1044.0" y="1082.0" type="line"/>
      <point x="1044.0" y="1356.0" type="line"/>
      <point x="874.0" y="1356.0" type="line"/>
      <point x="654.0" y="1325.0" type="line"/>
      <point x="686.0" y="1466.0" type="line"/>
      <point x="686.0" y="1616.0" type="line"/>
      <point x="407.0" y="1616.0" type="line"/>
      <point x="407.0" y="1466.0" type="line"/>
      <point x="439.0" y="1325.0" type="line"/>
      <point x="219.0" y="1356.0" type="line"/>
      <point x="49.0" y="1356.0" type="line"/>
      <point x="49.0" y="1082.0" type="line"/>
      <point x="219.0" y="1082.0" type="line"/>
      <point x="439.0" y="1113.0" type="line"/>
      <point x="407.0" y="972.0" type="line"/>
      <point x="407.0" y="380.0" type="line"/>
    </contour>
  </outline>
</glyph>
<glyph name="bullet" format="2">
  <advance width="794.0"/>
  <unicode hex="2022"/>
  <outline>
    <contour>
      <point x="397.0" y="205.0" type="curve" smooth="yes"/>
      <point x="596.0" y="205.0"/>
      <point x="752.0" y="355.0"/>
      <point x="752.0" y="560.0" type="curve" smooth="yes"/>
      <point x="752.0" y="767.0"/>
      <point x="596.0" y="915.0"/>
      <point x="397.0" y="915.0" type="curve" smooth="yes"/>
      <point x="198.0" y="915.0"/>
      <point x="42.0" y="767.0"/>
      <point x="42.0" y="560.0" type="curve" smooth="yes"/>
      <point x="42.0" y="355.0"/>
      <point x="198.0" y="205.0"/>
    </contour>
  </outline>
</glyph>
<glyph name="perthousand" format="2">
  <advance width="3209.0"/>
  <unicode hex="2030"/>
  <outline>
    <contour>
      <point x="2697.0" y="-18.0" type="curve" smooth="yes"/>
      <point x="2960.0" y="-18.0"/>
      <point x="3139.0" y="144.0"/>
      <point x="3139.0" y="449.0" type="curve" smooth="yes"/>
      <point x="3139.0" y="754.0"/>
      <point x="2960.0" y="916.0"/>
      <point x="2697.0" y="916.0" type="curve" smooth="yes"/>
      <point x="2434.0" y="916.0"/>
      <point x="2255.0" y="754.0"/>
      <point x="2255.0" y="449.0" type="curve" smooth="yes"/>
      <point x="2255.0" y="144.0"/>
      <point x="2434.0" y="-18.0"/>
    </contour>
    <contour>
      <point x="2697.0" y="240.0" type="curve" smooth="yes"/>
      <point x="2632.0" y="240.0"/>
      <point x="2584.0" y="291.0"/>
      <point x="2584.0" y="449.0" type="curve" smooth="yes"/>
      <point x="2584.0" y="607.0"/>
      <point x="2632.0" y="658.0"/>
      <point x="2697.0" y="658.0" type="curve" smooth="yes"/>
      <point x="2762.0" y="658.0"/>
      <point x="2810.0" y="607.0"/>
      <point x="2810.0" y="449.0" type="curve" smooth="yes"/>
      <point x="2810.0" y="291.0"/>
      <point x="2762.0" y="240.0"/>
    </contour>
    <component base="percent"/>
  </outline>
</glyph>
<glyph name="guilsinglright" format="2">
  <advance width="770.0"/>
  <unicode hex="203A"/>
  <outline>
    <contour>
      <point x="26.0" y="130.0" type="line"/>
      <point x="456.0" y="130.0" type="line"/>
      <point x="704.0" y="570.0" type="line"/>
      <point x="456.0" y="1010.0" type="line"/>
      <point x="26.0" y="1010.0" type="line"/>
      <point x="274.0" y="570.0" type="line"/>
    </contour>
  </outline>
</glyph>
<glyph name="franc" format="2">
  <advance width="1403.0"/>
  <unicode hex="20A3"/>
  <outline>
    <contour>
      <point x="240.0" y="0.0" type="line"/>
      <point x="674.0" y="0.0" type="line"/>
      <point x="674.0" y="1131.0" type="line"/>
      <point x="1362.0" y="1131.0" type="line"/>
      <point x="1362.0" y="1480.0" type="line"/>
      <point x="240.0" y="1480.0" type="line"/>
    </contour>
    <contour>
      <point x="60.0" y="160.0" type="line"/>
      <point x="974.0" y="160.0" type="line"/>
      <point x="974.0" y="470.0" type="line"/>
      <point x="60.0" y="470.0" type="line"/>
    </contour>
    <contour>
      <point x="509.0" y="612.0" type="line"/>
      <point x="1257.0" y="612.0" type="line"/>
      <point x="1257.0" y="961.0" type="line"/>
      <point x="509.0" y="961.0" type="line"/>
    </contour>
  </outline>
</glyph>
<glyph name="naira" format="2">
  <advance width="1854.0"/>
  <unicode hex="20A6"/>
  <outline>
    <contour>
      <point x="240.0" y="0.0" type="line"/>
      <point x="647.0" y="0.0" type="line"/>
      <point x="647.0" y="932.0" type="line"/>
      <point x="581.0" y="932.0" type="line"/>
      <point x="1181.0" y="0.0" type="line"/>
      <point x="1614.0" y="0.0" type="line"/>
      <point x="1614.0" y="1480.0" type="line"/>
      <point x="1207.0" y="1480.0" type="line"/>
      <point x="1207.0" y="548.0" type="line"/>
      <point x="1273.0" y="548.0" type="line"/>
      <point x="673.0" y="1480.0" type="line"/>
      <point x="240.0" y="1480.0" type="line"/>
    </contour>
    <contour>
      <point x="60.0" y="463.0" type="line"/>
      <point x="442.0" y="463.0" type="line"/>
      <point x="442.0" y="705.0" type="line"/>
      <point x="60.0" y="705.0" type="line"/>
    </contour>
    <contour>
      <point x="60.0" y="795.0" type="line"/>
      <point x="442.0" y="795.0" type="line"/>
      <point x="442.0" y="1037.0" type="line"/>
      <point x="60.0" y="1037.0" type="line"/>
    </contour>
    <contour>
      <point x="1412.0" y="463.0" type="line"/>
      <point x="1794.0" y="463.0" type="line"/>
      <point x="1794.0" y="705.0" type="line"/>
      <point x="1412.0" y="705.0" type="line"/>
    </contour>
    <contour>
      <point x="1412.0" y="795.0" type="line"/>
      <point x="1794.0" y="795.0" type="line"/>
      <point x="1794.0" y="1037.0" type="line"/>
      <point x="1412.0" y="1037.0" type="line"/>
    </contour>
  </outline>
</glyph>
<glyph name="won" format="2">
  <advance width="2602.0"/>
  <unicode hex="20A9"/>
  <outline>
    <contour>
      <point x="494.0" y="0.0" type="line"/>
      <point x="1048.0" y="0.0" type="line"/>
      <point x="1368.0" y="1218.0" type="line"/>
      <point x="1253.0" y="1218.0" type="line"/>
      <point x="1554.0" y="0.0" type="line"/>
      <point x="2108.0" y="0.0" type="line"/>
      <point x="2481.0" y="1480.0" type="line"/>
      <point x="2072.0" y="1480.0" type="line"/>
      <point x="1762.0" y="187.0" type="line"/>
      <point x="1861.0" y="187.0" type="line"/>
      <point x="1550.0" y="1480.0" type="line"/>
      <point x="1078.0" y="1480.0" type="line"/>
      <point x="748.0" y="187.0" type="line"/>
      <point x="858.0" y="187.0" type="line"/>
      <point x="558.0" y="1480.0" type="line"/>
      <point x="121.0" y="1480.0" type="line"/>
    </contour>
    <contour>
      <point x="60.0" y="463.0" type="line"/>
      <point x="562.0" y="463.0" type="line"/>
      <point x="562.0" y="705.0" type="line"/>
      <point x="60.0" y="705.0" type="line"/>
    </contour>
    <contour>
      <point x="60.0" y="795.0" type="line"/>
      <point x="422.0" y="795.0" type="line"/>
      <point x="422.0" y="1037.0" type="line"/>
      <point x="60.0" y="1037.0" type="line"/>
    </contour>
    <contour>
      <point x="2040.0" y="463.0" type="line"/>
      <point x="2542.0" y="463.0" type="line"/>
      <point x="2542.0" y="705.0" type="line"/>
      <point x="2040.0" y="705.0" type="line"/>
    </contour>
    <contour>
      <point x="2180.0" y="795.0" type="line"/>
      <point x="2542.0" y="795.0" type="line"/>
      <point x="2542.0" y="1037.0" type="line"/>
      <point x="2180.0" y="1037.0" type="line"/>
    </contour>
  </outline>
</glyph>
<glyph name="euro" format="2">
  <advance width="1466.0"/>
  <unicode hex="20AC"/>
  <outline>
    <contour>
      <point x="1080.0" y="-20.0" type="curve" smooth="yes"/>
      <point x="1196.0" y="-20.0"/>
      <point x="1321.0" y="-3.0"/>
      <point x="1413.0" y="24.0" type="curve"/>
      <point x="1413.0" y="366.0" type="line"/>
      <point x="1319.0" y="342.0"/>
      <point x="1219.0" y="325.0"/>
      <point x="1124.0" y="325.0" type="curve" smooth="yes"/>
      <point x="816.0" y="325.0"/>
      <point x="683.0" y="443.0"/>
      <point x="683.0" y="740.0" type="curve" smooth="yes"/>
      <point x="683.0" y="1032.0"/>
      <point x="820.0" y="1155.0"/>
      <point x="1134.0" y="1155.0" type="curve" smooth="yes"/>
      <point x="1234.0" y="1155.0"/>
      <point x="1326.0" y="1144.0"/>
      <point x="1413.0" y="1127.0" type="curve"/>
      <point x="1413.0" y="1469.0" type="line"/>
      <point x="1314.0" y="1490.0"/>
      <point x="1207.0" y="1500.0"/>
      <point x="1096.0" y="1500.0" type="curve" smooth="yes"/>
      <point x="553.0" y="1500.0"/>
      <point x="240.0" y="1228.0"/>
      <point x="240.0" y="736.0" type="curve" smooth="yes"/>
      <point x="240.0" y="220.0"/>
      <point x="544.0" y="-20.0"/>
    </contour>
    <contour>
      <point x="60.0" y="463.0" type="line"/>
      <point x="1213.0" y="463.0" type="line"/>
      <point x="1213.0" y="705.0" type="line"/>
      <point x="60.0" y="705.0" type="line"/>
    </contour>
    <contour>
      <point x="60.0" y="795.0" type="line"/>
      <point x="1213.0" y="795.0" type="line"/>
      <point x="1213.0" y="1037.0" type="line"/>
      <point x="60.0" y="1037.0" type="line"/>
    </contour>
  </outline>
</glyph>
<glyph name="peso" format="2">
  <advance width="1657.0"/>
  <unicode hex="20B1"/>
  <outline>
    <contour>
      <point x="240.0" y="0.0" type="line"/>
      <point x="674.0" y="0.0" type="line"/>
      <point x="674.0" y="393.0" type="line"/>
      <point x="710.0" y="393.0"/>
      <point x="743.0" y="391.0"/>
      <point x="783.0" y="391.0" type="curve" smooth="yes"/>
      <point x="1210.0" y="391.0"/>
      <point x="1442.0" y="579.0"/>
      <point x="1442.0" y="945.0" type="curve" smooth="yes"/>
      <point x="1442.0" y="1330.0"/>
      <point x="1207.0" y="1500.0"/>
      <point x="734.0" y="1500.0" type="curve" smooth="yes"/>
      <point x="552.0" y="1500.0"/>
      <point x="390.0" y="1480.0"/>
      <point x="240.0" y="1450.0" type="curve"/>
    </contour>
    <contour>
      <point x="60.0" y="659.0" type="line"/>
      <point x="442.0" y="659.0" type="line"/>
      <point x="442.0" y="901.0" type="line"/>
      <point x="60.0" y="901.0" type="line"/>
    </contour>
    <contour>
      <point x="60.0" y="991.0" type="line"/>
      <point x="442.0" y="991.0" type="line"/>
      <point x="442.0" y="1233.0" type="line"/>
      <point x="60.0" y="1233.0" type="line"/>
    </contour>
    <contour>
      <point x="787.0" y="711.0" type="curve" smooth="yes"/>
      <point x="743.0" y="711.0"/>
      <point x="712.0" y="713.0"/>
      <point x="674.0" y="718.0" type="curve"/>
      <point x="674.0" y="1172.0" type="line"/>
      <point x="706.0" y="1178.0"/>
      <point x="734.0" y="1180.0"/>
      <point x="776.0" y="1180.0" type="curve" smooth="yes"/>
      <point x="946.0" y="1180.0"/>
      <point x="1023.0" y="1110.0"/>
      <point x="1023.0" y="943.0" type="curve" smooth="yes"/>
      <point x="1023.0" y="771.0"/>
      <point x="946.0" y="711.0"/>
    </contour>
    <contour>
      <point x="1240.0" y="659.0" type="line"/>
      <point x="1622.0" y="659.0" type="line"/>
      <point x="1622.0" y="901.0" type="line"/>
      <point x="1240.0" y="901.0" type="line"/>
    </contour>
    <contour>
      <point x="1240.0" y="991.0" type="line"/>
      <point x="1622.0" y="991.0" type="line"/>
      <point x="1622.0" y="1233.0" type="line"/>
      <point x="1240.0" y="1233.0" type="line"/>
    </contour>
  </outline>
</glyph>
<glyph name="rupeeIndian" format="2">
  <advance width="1176.0"/>
  <unicode hex="20B9"/>
  <outline>
    <contour>
      <point x="310.0" y="489.0" type="curve" smooth="yes"/>
      <point x="716.0" y="489.0"/>
      <point x="971.0" y="664.0"/>
      <point x="971.0" y="956.0" type="curve" smooth="yes"/>
      <point x="971.0" y="1224.0"/>
      <point x="764.0" y="1380.0"/>
      <point x="298.0" y="1380.0" type="curve"/>
      <point x="298.0" y="1236.0" type="line"/>
      <point x="486.0" y="1236.0"/>
      <point x="578.0" y="1176.0"/>
      <point x="578.0" y="1010.0" type="curve" smooth="yes"/>
      <point x="578.0" y="836.0"/>
      <point x="486.0" y="779.0"/>
      <point x="297.0" y="779.0" type="curve" smooth="yes"/>
      <point x="194.0" y="779.0"/>
      <point x="136.0" y="783.0"/>
      <point x="60.0" y="790.0" type="curve"/>
      <point x="60.0" y="505.0" type="line"/>
      <point x="134.0" y="496.0"/>
      <point x="202.0" y="489.0"/>
    </contour>
    <contour>
      <point x="639.0" y="0.0" type="line"/>
      <point x="1113.0" y="0.0" type="line"/>
      <point x="603.0" y="672.0" type="line"/>
      <point x="202.0" y="588.0" type="line"/>
    </contour>
    <contour>
      <point x="60.0" y="904.0" type="line"/>
      <point x="1151.0" y="904.0" type="line"/>
      <point x="1151.0" y="1146.0" type="line"/>
      <point x="60.0" y="1146.0" type="line"/>
    </contour>
    <contour>
      <point x="60.0" y="1236.0" type="line"/>
      <point x="1151.0" y="1236.0" type="line"/>
      <point x="1151.0" y="1480.0" type="line"/>
      <point x="60.0" y="1480.0" type="line"/>
    </contour>
  </outline>
</glyph>
<glyph name="liraTurkish" format="2">
  <advance width="1319.0"/>
  <unicode hex="20BA"/>
  <outline>
    <contour>
      <point x="886.0" y="-20.0" type="curve" smooth="yes"/>
      <point x="1032.0" y="-20.0"/>
      <point x="1191.0" y="-4.0"/>
      <point x="1286.0" y="18.0" type="curve"/>
      <point x="1286.0" y="355.0" type="line"/>
      <point x="1196.0" y="331.0"/>
      <point x="1033.0" y="315.0"/>
      <point x="909.0" y="315.0" type="curve" smooth="yes"/>
      <point x="701.0" y="315.0"/>
      <point x="660.0" y="352.0"/>
      <point x="660.0" y="476.0" type="curve" smooth="yes"/>
      <point x="660.0" y="1480.0" type="line"/>
      <point x="240.0" y="1480.0" type="line"/>
      <point x="240.0" y="434.0" type="line" smooth="yes"/>
      <point x="240.0" y="107.0"/>
      <point x="410.0" y="-20.0"/>
    </contour>
    <contour>
      <point x="60.0" y="461.0" type="line"/>
      <point x="1086.0" y="806.0" type="line"/>
      <point x="1086.0" y="1050.0" type="line"/>
      <point x="60.0" y="705.0" type="line"/>
    </contour>
    <contour>
      <point x="60.0" y="795.0" type="line"/>
      <point x="1086.0" y="1140.0" type="line"/>
      <point x="1086.0" y="1384.0" type="line"/>
      <point x="60.0" y="1039.0" type="line"/>
    </contour>
  </outline>
</glyph>
<glyph name="manat" format="2">
  <advance width="1595.0"/>
  <unicode hex="20BC"/>
  <outline>
    <contour>
      <point x="92.0" y="0.0" type="curve"/>
      <point x="509.0" y="0.0" type="line"/>
      <point x="509.0" y="1084.0"/>
      <point x="588.0" y="1154.0"/>
      <point x="799.0" y="1154.0" type="curve" smooth="yes"/>
      <point x="1009.0" y="1154.0"/>
      <point x="1086.0" y="1084.0"/>
      <point x="1086.0" y="0.0" type="curve"/>
      <point x="1503.0" y="0.0" type="line"/>
      <point x="1503.0" y="1106.0"/>
      <point x="1345.0" y="1500.0"/>
      <point x="799.0" y="1500.0" type="curve" smooth="yes"/>
      <point x="252.0" y="1500.0"/>
      <point x="92.0" y="1106.0"/>
    </contour>
    <contour>
      <point x="663.0" y="490.0" type="line"/>
      <point x="935.0" y="490.0" type="line"/>
      <point x="935.0" y="1288.0" type="line"/>
      <point x="999.0" y="1414.0" type="line"/>
      <point x="999.0" y="1720.0" type="line"/>
      <point x="599.0" y="1720.0" type="line"/>
      <point x="599.0" y="1414.0" type="line"/>
      <point x="663.0" y="1288.0" type="line"/>
    </contour>
  </outline>
</glyph>
<glyph name="servicemark" format="2">
  <advance width="2236.0"/>
  <unicode hex="2120"/>
  <outline>
    <contour>
      <point x="928.0" y="480.0" type="line"/>
      <point x="1243.0" y="480.0" type="line"/>
      <point x="1243.0" y="1186.0" type="line"/>
      <point x="1170.0" y="1186.0" type="line"/>
      <point x="1395.0" y="630.0" type="line"/>
      <point x="1662.0" y="630.0" type="line"/>
      <point x="1872.0" y="1186.0" type="line"/>
      <point x="1814.0" y="1186.0" type="line"/>
      <point x="1814.0" y="480.0" type="line"/>
      <point x="2129.0" y="480.0" type="line"/>
      <point x="2129.0" y="1480.0" type="line"/>
      <point x="1717.0" y="1480.0" type="line"/>
      <point x="1519.0" y="939.0" type="line"/>
      <point x="1549.0" y="939.0" type="line"/>
      <point x="1340.0" y="1480.0" type="line"/>
      <point x="928.0" y="1480.0" type="line"/>
    </contour>
    <contour>
      <point x="385.0" y="466.0" type="curve" smooth="yes"/>
      <point x="671.0" y="466.0"/>
      <point x="838.0" y="596.0"/>
      <point x="838.0" y="799.0" type="curve" smooth="yes"/>
      <point x="838.0" y="968.0"/>
      <point x="737.0" y="1058.0"/>
      <point x="540.0" y="1105.0" type="curve" smooth="yes"/>
      <point x="398.0" y="1140.0"/>
      <point x="384.0" y="1154.0"/>
      <point x="384.0" y="1182.0" type="curve" smooth="yes"/>
      <point x="384.0" y="1209.0"/>
      <point x="410.0" y="1238.0"/>
      <point x="562.0" y="1238.0" type="curve" smooth="yes"/>
      <point x="631.0" y="1238.0"/>
      <point x="722.0" y="1227.0"/>
      <point x="779.0" y="1211.0" type="curve"/>
      <point x="779.0" y="1469.0" type="line"/>
      <point x="716.0" y="1483.0"/>
      <point x="630.0" y="1494.0"/>
      <point x="538.0" y="1494.0" type="curve" smooth="yes"/>
      <point x="207.0" y="1494.0"/>
      <point x="52.0" y="1372.0"/>
      <point x="52.0" y="1163.0" type="curve" smooth="yes"/>
      <point x="52.0" y="1002.0"/>
      <point x="153.0" y="896.0"/>
      <point x="328.0" y="859.0" type="curve" smooth="yes"/>
      <point x="486.0" y="825.0"/>
      <point x="506.0" y="807.0"/>
      <point x="506.0" y="772.0" type="curve" smooth="yes"/>
      <point x="506.0" y="745.0"/>
      <point x="487.0" y="724.0"/>
      <point x="379.0" y="724.0" type="curve" smooth="yes"/>
      <point x="296.0" y="724.0"/>
      <point x="169.0" y="741.0"/>
      <point x="86.0" y="766.0" type="curve"/>
      <point x="86.0" y="508.0" type="line"/>
      <point x="170.0" y="482.0"/>
      <point x="280.0" y="466.0"/>
    </contour>
  </outline>
</glyph>
<glyph name="trademark" format="2">
  <advance width="2316.0"/>
  <unicode hex="2122"/>
  <outline>
    <contour>
      <point x="302.0" y="480.0" type="line"/>
      <point x="639.0" y="480.0" type="line"/>
      <point x="639.0" y="1215.0" type="line"/>
      <point x="928.0" y="1215.0" type="line"/>
      <point x="928.0" y="1480.0" type="line"/>
      <point x="13.0" y="1480.0" type="line"/>
      <point x="13.0" y="1215.0" type="line"/>
      <point x="302.0" y="1215.0" type="line"/>
    </contour>
    <contour>
      <point x="1008.0" y="480.0" type="line"/>
      <point x="1323.0" y="480.0" type="line"/>
      <point x="1323.0" y="1186.0" type="line"/>
      <point x="1250.0" y="1186.0" type="line"/>
      <point x="1475.0" y="630.0" type="line"/>
      <point x="1742.0" y="630.0" type="line"/>
      <point x="1952.0" y="1186.0" type="line"/>
      <point x="1894.0" y="1186.0" type="line"/>
      <point x="1894.0" y="480.0" type="line"/>
      <point x="2209.0" y="480.0" type="line"/>
      <point x="2209.0" y="1480.0" type="line"/>
      <point x="1797.0" y="1480.0" type="line"/>
      <point x="1599.0" y="939.0" type="line"/>
      <point x="1629.0" y="939.0" type="line"/>
      <point x="1420.0" y="1480.0" type="line"/>
      <point x="1008.0" y="1480.0" type="line"/>
    </contour>
  </outline>
</glyph>
<glyph name="estimated" format="2">
  <advance width="1532.0"/>
  <unicode hex="212E"/>
  <outline>
    <contour>
      <point x="765.0" y="-18.0" type="curve" smooth="yes"/>
      <point x="1017.0" y="-18.0"/>
      <point x="1205.0" y="82.0"/>
      <point x="1389.0" y="352.0" type="curve"/>
      <point x="1333.0" y="390.0" type="line"/>
      <point x="1163.0" y="140.0"/>
      <point x="993.0" y="46.0"/>
      <point x="765.0" y="46.0" type="curve" smooth="yes"/>
      <point x="609.0" y="46.0"/>
      <point x="483.0" y="96.0"/>
      <point x="379.0" y="198.0" type="curve"/>
      <point x="379.0" y="738.0" type="line"/>
      <point x="1463.0" y="738.0" type="line"/>
      <point x="1441.0" y="1204.0"/>
      <point x="1169.0" y="1498.0"/>
      <point x="765.0" y="1498.0" type="curve" smooth="yes"/>
      <point x="355.0" y="1498.0"/>
      <point x="69.0" y="1186.0"/>
      <point x="69.0" y="738.0" type="curve" smooth="yes"/>
      <point x="69.0" y="306.0"/>
      <point x="367.0" y="-18.0"/>
    </contour>
    <contour>
      <point x="379.0" y="802.0" type="line"/>
      <point x="379.0" y="1280.0" type="line"/>
      <point x="463.0" y="1380.0"/>
      <point x="609.0" y="1434.0"/>
      <point x="763.0" y="1434.0" type="curve" smooth="yes"/>
      <point x="911.0" y="1434.0"/>
      <point x="1059.0" y="1380.0"/>
      <point x="1153.0" y="1280.0" type="curve"/>
      <point x="1153.0" y="802.0" type="line"/>
    </contour>
  </outline>
</glyph>
<glyph name="leftArrow" format="2">
  <advance width="1464.0"/>
  <unicode hex="2190"/>
  <outline>
    <contour>
      <point x="720.0" y="136.0" type="line"/>
      <point x="917.0" y="333.0" type="line"/>
      <point x="650.0" y="600.0" type="line"/>
      <point x="1368.0" y="600.0" type="line"/>
      <point x="1368.0" y="920.0" type="line"/>
      <point x="650.0" y="920.0" type="line"/>
      <point x="917.0" y="1187.0" type="line"/>
      <point x="720.0" y="1384.0" type="line"/>
      <point x="96.0" y="760.0" type="line"/>
    </contour>
  </outline>
</glyph>
<glyph name="rightArrow" format="2">
  <advance width="1464.0"/>
  <unicode hex="2192"/>
  <outline>
    <contour>
      <point x="744.0" y="136.0" type="line"/>
      <point x="1368.0" y="760.0" type="line"/>
      <point x="744.0" y="1384.0" type="line"/>
      <point x="547.0" y="1187.0" type="line"/>
      <point x="814.0" y="920.0" type="line"/>
      <point x="96.0" y="920.0" type="line"/>
      <point x="96.0" y="600.0" type="line"/>
      <point x="814.0" y="600.0" type="line"/>
      <point x="547.0" y="333.0" type="line"/>
    </contour>
  </outline>
</glyph>
<glyph name="divisionslash" format="2">
  <advance width="903.0"/>
  <unicode hex="2215"/>
  <outline>
    <contour>
      <point x="62.0" y="0.0" type="line"/>
      <point x="480.0" y="0.0" type="line"/>
      <point x="867.0" y="1480.0" type="line"/>
      <point x="449.0" y="1480.0" type="line"/>
    </contour>
  </outline>
</glyph>
<glyph name="bulletoperator" format="2">
  <advance width="620.0"/>
  <unicode hex="2219"/>
  <anchor x="310.0" y="760.0" name="_periodcentered"/>
  <outline>
    <contour>
      <point x="310.0" y="511.0" type="curve" smooth="yes"/>
      <point x="473.0" y="511.0"/>
      <point x="578.0" y="610.0"/>
      <point x="578.0" y="760.0" type="curve" smooth="yes"/>
      <point x="578.0" y="910.0"/>
      <point x="477.0" y="1009.0"/>
      <point x="310.0" y="1009.0" type="curve" smooth="yes"/>
      <point x="143.0" y="1009.0"/>
      <point x="42.0" y="914.0"/>
      <point x="42.0" y="760.0" type="curve" smooth="yes"/>
      <point x="42.0" y="606.0"/>
      <point x="147.0" y="511.0"/>
    </contour>
  </outline>
</glyph>
<glyph name="radical" format="2">
  <advance width="1497.0"/>
  <unicode hex="221A"/>
  <outline>
    <contour>
      <point x="522.0" y="0.0" type="line"/>
      <point x="1073.0" y="0.0" type="line"/>
      <point x="1503.0" y="1480.0" type="line"/>
      <point x="1114.0" y="1480.0" type="line"/>
      <point x="762.0" y="217.0" type="line"/>
      <point x="842.0" y="217.0" type="line"/>
      <point x="596.0" y="1100.0" type="line"/>
      <point x="56.0" y="1100.0" type="line"/>
      <point x="56.0" y="780.0" type="line"/>
      <point x="286.0" y="780.0" type="line"/>
    </contour>
  </outline>
</glyph>
<glyph name="notequal" format="2">
  <advance width="1116.0"/>
  <unicode hex="2260"/>
  <outline>
    <contour>
      <point x="418.0" y="89.0" type="line"/>
      <point x="980.0" y="1294.0" type="line"/>
      <point x="698.0" y="1431.0" type="line"/>
      <point x="136.0" y="226.0" type="line"/>
    </contour>
    <contour>
      <point x="96.0" y="360.0" type="line"/>
      <point x="1020.0" y="360.0" type="line"/>
      <point x="1020.0" y="680.0" type="line"/>
      <point x="96.0" y="680.0" type="line"/>
    </contour>
    <contour>
      <point x="96.0" y="840.0" type="line"/>
      <point x="1020.0" y="840.0" type="line"/>
      <point x="1020.0" y="1160.0" type="line"/>
      <point x="96.0" y="1160.0" type="line"/>
    </contour>
  </outline>
</glyph>
<glyph name="greaterequal" format="2">
  <advance width="1116.0"/>
  <unicode hex="2265"/>
  <outline>
    <contour>
      <point x="96.0" y="425.0" type="line"/>
      <point x="1020.0" y="693.0" type="line"/>
      <point x="1020.0" y="1025.0" type="line"/>
      <point x="96.0" y="1293.0" type="line"/>
      <point x="96.0" y="993.0" type="line"/>
      <point x="793.0" y="805.0" type="line"/>
      <point x="793.0" y="918.0" type="line"/>
      <point x="96.0" y="725.0" type="line"/>
    </contour>
    <contour>
      <point x="96.0" y="0.0" type="line"/>
      <point x="1020.0" y="0.0" type="line"/>
      <point x="1020.0" y="320.0" type="line"/>
      <point x="96.0" y="320.0" type="line"/>
    </contour>
  </outline>
</glyph>
<glyph name="Delta.tf" format="2">
  <advance width="1320.0"/>
  <outline>
    <contour>
      <point x="12.0" y="0.0" type="line"/>
      <point x="1308.0" y="0.0" type="line"/>
      <point x="933.0" y="1480.0" type="line"/>
      <point x="387.0" y="1480.0" type="line"/>
    </contour>
    <contour>
      <point x="443.0" y="159.0" type="line"/>
      <point x="708.0" y="1305.0" type="line"/>
      <point x="606.0" y="1305.0" type="line"/>
      <point x="874.0" y="159.0" type="line"/>
      <point x="932.0" y="340.0" type="line"/>
      <point x="384.0" y="340.0" type="line"/>
    </contour>
  </outline>
</glyph>
<glyph name="acutecomb_dotaccentcomb.case" format="2">
  <outline>
    <contour>
      <point x="300.0" y="1862.0" type="curve" smooth="yes"/>
      <point x="435.0" y="1862.0"/>
      <point x="501.0" y="1915.0"/>
      <point x="501.0" y="2006.0" type="curve" smooth="yes"/>
      <point x="501.0" y="2097.0"/>
      <point x="435.0" y="2150.0"/>
      <point x="300.0" y="2150.0" type="curve" smooth="yes"/>
      <point x="165.0" y="2150.0"/>
      <point x="99.0" y="2097.0"/>
      <point x="99.0" y="2006.0" type="curve" smooth="yes"/>
      <point x="99.0" y="1915.0"/>
      <point x="165.0" y="1862.0"/>
    </contour>
    <component base="acutecomb.case"/>
  </outline>
</glyph>
<glyph name="acutecomb_dotaccentcomb" format="2">
  <outline>
    <contour>
      <point x="380.0" y="1576.0" type="curve" smooth="yes"/>
      <point x="515.0" y="1576.0"/>
      <point x="581.0" y="1629.0"/>
      <point x="581.0" y="1720.0" type="curve" smooth="yes"/>
      <point x="581.0" y="1811.0"/>
      <point x="515.0" y="1864.0"/>
      <point x="380.0" y="1864.0" type="curve" smooth="yes"/>
      <point x="245.0" y="1864.0"/>
      <point x="179.0" y="1811.0"/>
      <point x="179.0" y="1720.0" type="curve" smooth="yes"/>
      <point x="179.0" y="1629.0"/>
      <point x="245.0" y="1576.0"/>
    </contour>
    <component base="acutecomb"/>
  </outline>
</glyph>
<glyph name="ampersand.sc" format="2">
  <advance width="1472.0"/>
  <outline>
    <contour>
      <point x="1290.0" y="-18.0" type="line"/>
      <point x="1472.0" y="281.0" type="line"/>
      <point x="649.0" y="736.0" type="line" smooth="yes"/>
      <point x="606.0" y="760.0"/>
      <point x="589.0" y="778.0"/>
      <point x="589.0" y="804.0" type="curve" smooth="yes"/>
      <point x="589.0" y="849.0"/>
      <point x="634.0" y="883.0"/>
      <point x="816.0" y="883.0" type="curve" smooth="yes"/>
      <point x="881.0" y="883.0"/>
      <point x="965.0" y="874.0"/>
      <point x="1023.0" y="864.0" type="curve"/>
      <point x="1023.0" y="1189.0" type="line"/>
      <point x="947.0" y="1200.0"/>
      <point x="870.0" y="1206.0"/>
      <point x="780.0" y="1206.0" type="curve" smooth="yes"/>
      <point x="370.0" y="1206.0"/>
      <point x="163.0" y="1061.0"/>
      <point x="163.0" y="811.0" type="curve" smooth="yes"/>
      <point x="163.0" y="678.0"/>
      <point x="239.0" y="560.0"/>
      <point x="467.0" y="437.0" type="curve" smooth="yes"/>
    </contour>
    <contour>
      <point x="611.0" y="-14.0" type="curve" smooth="yes"/>
      <point x="1022.0" y="-14.0"/>
      <point x="1262.0" y="188.0"/>
      <point x="1262.0" y="566.0" type="curve" smooth="yes"/>
      <point x="1262.0" y="621.0"/>
      <point x="1254.0" y="690.0"/>
      <point x="1239.0" y="753.0" type="curve"/>
      <point x="920.0" y="753.0" type="line"/>
      <point x="935.0" y="690.0"/>
      <point x="944.0" y="619.0"/>
      <point x="944.0" y="562.0" type="curve" smooth="yes"/>
      <point x="944.0" y="348.0"/>
      <point x="837.0" y="255.0"/>
      <point x="665.0" y="255.0" type="curve" smooth="yes"/>
      <point x="521.0" y="255.0"/>
      <point x="466.0" y="301.0"/>
      <point x="466.0" y="372.0" type="curve" smooth="yes"/>
      <point x="466.0" y="416.0"/>
      <point x="486.0" y="448.0"/>
      <point x="512.0" y="487.0" type="curve"/>
      <point x="312.0" y="626.0" type="line"/>
      <point x="174.0" y="594.0"/>
      <point x="62.0" y="478.0"/>
      <point x="62.0" y="327.0" type="curve" smooth="yes"/>
      <point x="62.0" y="113.0"/>
      <point x="254.0" y="-14.0"/>
    </contour>
  </outline>
</glyph>
<glyph name="approxequal.osf" format="2">
  <advance width="1116.0"/>
  <outline>
    <contour>
      <point x="764.0" y="580.0" type="curve" smooth="yes"/>
      <point x="874.0" y="580.0"/>
      <point x="951.0" y="610.0"/>
      <point x="1020.0" y="682.0" type="curve"/>
      <point x="1020.0" y="1007.0" type="line"/>
      <point x="939.0" y="930.0"/>
      <point x="866.0" y="897.0"/>
      <point x="768.0" y="897.0" type="curve" smooth="yes"/>
      <point x="636.0" y="897.0"/>
      <point x="516.0" y="1015.0"/>
      <point x="352.0" y="1015.0" type="curve" smooth="yes"/>
      <point x="242.0" y="1015.0"/>
      <point x="165.0" y="985.0"/>
      <point x="96.0" y="913.0" type="curve"/>
      <point x="96.0" y="588.0" type="line"/>
      <point x="177.0" y="665.0"/>
      <point x="250.0" y="698.0"/>
      <point x="348.0" y="698.0" type="curve" smooth="yes"/>
      <point x="480.0" y="698.0"/>
      <point x="600.0" y="580.0"/>
    </contour>
    <contour>
      <point x="764.0" y="105.0" type="curve" smooth="yes"/>
      <point x="874.0" y="105.0"/>
      <point x="951.0" y="135.0"/>
      <point x="1020.0" y="207.0" type="curve"/>
      <point x="1020.0" y="532.0" type="line"/>
      <point x="939.0" y="455.0"/>
      <point x="866.0" y="422.0"/>
      <point x="768.0" y="422.0" type="curve" smooth="yes"/>
      <point x="636.0" y="422.0"/>
      <point x="516.0" y="540.0"/>
      <point x="352.0" y="540.0" type="curve" smooth="yes"/>
      <point x="242.0" y="540.0"/>
      <point x="165.0" y="510.0"/>
      <point x="96.0" y="438.0" type="curve"/>
      <point x="96.0" y="113.0" type="line"/>
      <point x="177.0" y="190.0"/>
      <point x="250.0" y="223.0"/>
      <point x="348.0" y="223.0" type="curve" smooth="yes"/>
      <point x="480.0" y="223.0"/>
      <point x="600.0" y="105.0"/>
    </contour>
  </outline>
</glyph>
<glyph name="approxequal.tf" format="2">
  <advance width="1320.0"/>
  <outline>
    <contour>
      <point x="866.0" y="780.0" type="curve" smooth="yes"/>
      <point x="976.0" y="780.0"/>
      <point x="1053.0" y="810.0"/>
      <point x="1122.0" y="882.0" type="curve"/>
      <point x="1122.0" y="1207.0" type="line"/>
      <point x="1041.0" y="1130.0"/>
      <point x="968.0" y="1097.0"/>
      <point x="870.0" y="1097.0" type="curve" smooth="yes"/>
      <point x="738.0" y="1097.0"/>
      <point x="618.0" y="1215.0"/>
      <point x="454.0" y="1215.0" type="curve" smooth="yes"/>
      <point x="344.0" y="1215.0"/>
      <point x="267.0" y="1185.0"/>
      <point x="198.0" y="1113.0" type="curve"/>
      <point x="198.0" y="788.0" type="line"/>
      <point x="279.0" y="865.0"/>
      <point x="352.0" y="898.0"/>
      <point x="450.0" y="898.0" type="curve" smooth="yes"/>
      <point x="582.0" y="898.0"/>
      <point x="702.0" y="780.0"/>
    </contour>
    <contour>
      <point x="866.0" y="305.0" type="curve" smooth="yes"/>
      <point x="976.0" y="305.0"/>
      <point x="1053.0" y="335.0"/>
      <point x="1122.0" y="407.0" type="curve"/>
      <point x="1122.0" y="732.0" type="line"/>
      <point x="1041.0" y="655.0"/>
      <point x="968.0" y="622.0"/>
      <point x="870.0" y="622.0" type="curve" smooth="yes"/>
      <point x="738.0" y="622.0"/>
      <point x="618.0" y="740.0"/>
      <point x="454.0" y="740.0" type="curve" smooth="yes"/>
      <point x="344.0" y="740.0"/>
      <point x="267.0" y="710.0"/>
      <point x="198.0" y="638.0" type="curve"/>
      <point x="198.0" y="313.0" type="line"/>
      <point x="279.0" y="390.0"/>
      <point x="352.0" y="423.0"/>
      <point x="450.0" y="423.0" type="curve" smooth="yes"/>
      <point x="582.0" y="423.0"/>
      <point x="702.0" y="305.0"/>
    </contour>
  </outline>
</glyph>
<glyph name="asciicircum.osf" format="2">
  <advance width="1320.0"/>
  <outline>
    <contour>
      <point x="44.0" y="360.0" type="line"/>
      <point x="452.0" y="360.0" type="line"/>
      <point x="751.0" y="897.0" type="line"/>
      <point x="569.0" y="897.0" type="line"/>
      <point x="868.0" y="360.0" type="line"/>
      <point x="1276.0" y="360.0" type="line"/>
      <point x="855.0" y="1100.0" type="line"/>
      <point x="465.0" y="1100.0" type="line"/>
    </contour>
  </outline>
</glyph>
<glyph name="b.sc" format="2">
  <advance width="1254.0"/>
  <anchor x="646.0" y="0.0" name="bottom"/>
  <anchor x="646.0" y="1230.0" name="top"/>
  <outline>
    <contour>
      <point x="537.0" y="-18.0" type="curve" smooth="yes"/>
      <point x="1031.0" y="-18.0"/>
      <point x="1212.0" y="118.0"/>
      <point x="1212.0" y="345.0" type="curve" smooth="yes"/>
      <point x="1212.0" y="516.0"/>
      <point x="1103.0" y="594.0"/>
      <point x="982.0" y="617.0" type="curve"/>
      <point x="983.0" y="608.0" type="line"/>
      <point x="1089.0" y="635.0"/>
      <point x="1179.0" y="732.0"/>
      <point x="1179.0" y="859.0" type="curve" smooth="yes"/>
      <point x="1179.0" y="1091.0"/>
      <point x="998.0" y="1207.0"/>
      <point x="580.0" y="1207.0" type="curve" smooth="yes"/>
      <point x="436.0" y="1207.0"/>
      <point x="242.0" y="1185.0"/>
      <point x="111.0" y="1156.0" type="curve"/>
      <point x="111.0" y="11.0" type="line"/>
      <point x="224.0" y="-6.0"/>
      <point x="407.0" y="-18.0"/>
    </contour>
    <contour>
      <point x="635.0" y="259.0" type="curve" smooth="yes"/>
      <point x="602.0" y="259.0"/>
      <point x="569.0" y="260.0"/>
      <point x="520.0" y="264.0" type="curve"/>
      <point x="520.0" y="920.0" type="line"/>
      <point x="564.0" y="927.0"/>
      <point x="603.0" y="930.0"/>
      <point x="636.0" y="930.0" type="curve" smooth="yes"/>
      <point x="741.0" y="930.0"/>
      <point x="779.0" y="903.0"/>
      <point x="779.0" y="838.0" type="curve" smooth="yes"/>
      <point x="779.0" y="776.0"/>
      <point x="744.0" y="748.0"/>
      <point x="641.0" y="748.0" type="curve" smooth="yes"/>
      <point x="482.0" y="748.0" type="line"/>
      <point x="482.0" y="464.0" type="line"/>
      <point x="667.0" y="464.0" type="line" smooth="yes"/>
      <point x="777.0" y="464.0"/>
      <point x="820.0" y="438.0"/>
      <point x="820.0" y="364.0" type="curve" smooth="yes"/>
      <point x="820.0" y="291.0"/>
      <point x="777.0" y="259.0"/>
    </contour>
  </outline>
</glyph>
<glyph name="braceright.sc" format="2">
  <advance width="794.0"/>
  <outline>
    <contour>
      <point x="171.0" y="-260.0" type="curve" smooth="yes"/>
      <point x="472.0" y="-260.0"/>
      <point x="625.0" y="-114.0"/>
      <point x="625.0" y="154.0" type="curve" smooth="yes"/>
      <point x="625.0" y="358.0" type="line" smooth="yes"/>
      <point x="625.0" y="423.0"/>
      <point x="669.0" y="467.0"/>
      <point x="734.0" y="467.0" type="curve" smooth="yes"/>
      <point x="802.0" y="467.0" type="line"/>
      <point x="802.0" y="797.0" type="line"/>
      <point x="734.0" y="797.0" type="line" smooth="yes"/>
      <point x="669.0" y="797.0"/>
      <point x="625.0" y="841.0"/>
      <point x="625.0" y="906.0" type="curve" smooth="yes"/>
      <point x="625.0" y="1086.0" type="line" smooth="yes"/>
      <point x="625.0" y="1354.0"/>
      <point x="472.0" y="1500.0"/>
      <point x="171.0" y="1500.0" type="curve" smooth="yes"/>
      <point x="94.0" y="1500.0"/>
      <point x="31.0" y="1494.0"/>
      <point x="-26.0" y="1486.0" type="curve"/>
      <point x="-26.0" y="1164.0" type="line"/>
      <point x="98.0" y="1164.0" type="line" smooth="yes"/>
      <point x="168.0" y="1164.0"/>
      <point x="205.0" y="1138.0"/>
      <point x="205.0" y="1070.0" type="curve" smooth="yes"/>
      <point x="205.0" y="912.0" type="line" smooth="yes"/>
      <point x="205.0" y="716.0"/>
      <point x="313.0" y="608.0"/>
      <point x="594.0" y="608.0" type="curve"/>
      <point x="594.0" y="656.0" type="line"/>
      <point x="313.0" y="656.0"/>
      <point x="205.0" y="548.0"/>
      <point x="205.0" y="352.0" type="curve" smooth="yes"/>
      <point x="205.0" y="170.0" type="line" smooth="yes"/>
      <point x="205.0" y="102.0"/>
      <point x="168.0" y="76.0"/>
      <point x="98.0" y="76.0" type="curve" smooth="yes"/>
      <point x="-26.0" y="76.0" type="line"/>
      <point x="-26.0" y="-246.0" type="line"/>
      <point x="31.0" y="-254.0"/>
      <point x="94.0" y="-260.0"/>
    </contour>
  </outline>
</glyph>
<glyph name="bracketright.sc" format="2">
  <advance width="754.0"/>
  <outline>
    <contour>
      <point x="-16.0" y="-240.0" type="line"/>
      <point x="625.0" y="-240.0" type="line"/>
      <point x="625.0" y="1480.0" type="line"/>
      <point x="-26.0" y="1480.0" type="line"/>
      <point x="-26.0" y="1150.0" type="line"/>
      <point x="205.0" y="1150.0" type="line"/>
      <point x="205.0" y="90.0" type="line"/>
      <point x="-16.0" y="90.0" type="line"/>
    </contour>
  </outline>
</glyph>
<glyph name="brevebelowcomb.case" format="2">
  <anchor x="600.0" y="0.0" name="_bottom"/>
  <anchor x="600.0" y="-454.0" name="bottom"/>
  <outline>
    <contour>
      <point x="600.0" y="-451.0" type="curve" smooth="yes"/>
      <point x="863.0" y="-451.0"/>
      <point x="1000.0" y="-325.0"/>
      <point x="1025.0" y="-135.0" type="curve"/>
      <point x="772.0" y="-135.0" type="line"/>
      <point x="756.0" y="-213.0"/>
      <point x="703.0" y="-254.0"/>
      <point x="600.0" y="-254.0" type="curve" smooth="yes"/>
      <point x="497.0" y="-254.0"/>
      <point x="444.0" y="-213.0"/>
      <point x="428.0" y="-135.0" type="curve"/>
      <point x="175.0" y="-135.0" type="line"/>
      <point x="200.0" y="-325.0"/>
      <point x="337.0" y="-451.0"/>
    </contour>
  </outline>
</glyph>
<glyph name="brevecomb_gravecomb" format="2">
  <anchor x="600.0" y="1200.0" name="_top"/>
  <outline>
    <contour>
      <point x="600.0" y="1232.0" type="curve" smooth="yes"/>
      <point x="863.0" y="1232.0"/>
      <point x="1000.0" y="1358.0"/>
      <point x="1025.0" y="1548.0" type="curve"/>
      <point x="772.0" y="1548.0" type="line"/>
      <point x="756.0" y="1470.0"/>
      <point x="703.0" y="1429.0"/>
      <point x="600.0" y="1429.0" type="curve" smooth="yes"/>
      <point x="497.0" y="1429.0"/>
      <point x="444.0" y="1470.0"/>
      <point x="428.0" y="1548.0" type="curve"/>
      <point x="175.0" y="1548.0" type="line"/>
      <point x="200.0" y="1358.0"/>
      <point x="337.0" y="1232.0"/>
    </contour>
    <contour>
      <point x="457.0" y="1598.0" type="line"/>
      <point x="747.0" y="1598.0" type="line"/>
      <point x="564.0" y="1868.0" type="line"/>
      <point x="212.0" y="1868.0" type="line"/>
    </contour>
  </outline>
</glyph>
<glyph name="brevecomb_tildecomb.case" format="2">
  <anchor x="600.0" y="1520.0" name="_top"/>
  <outline>
    <contour>
      <point x="600.0" y="1586.0" type="curve" smooth="yes"/>
      <point x="847.0" y="1586.0"/>
      <point x="973.0" y="1695.0"/>
      <point x="1000.0" y="1858.0" type="curve"/>
      <point x="782.0" y="1858.0" type="line"/>
      <point x="764.0" y="1791.0"/>
      <point x="726.0" y="1751.0"/>
      <point x="600.0" y="1751.0" type="curve" smooth="yes"/>
      <point x="474.0" y="1751.0"/>
      <point x="436.0" y="1791.0"/>
      <point x="418.0" y="1858.0" type="curve"/>
      <point x="200.0" y="1858.0" type="line"/>
      <point x="227.0" y="1695.0"/>
      <point x="353.0" y="1586.0"/>
    </contour>
    <contour>
      <point x="760.0" y="1900.0" type="curve" smooth="yes"/>
      <point x="847.0" y="1900.0"/>
      <point x="910.0" y="1908.0"/>
      <point x="1000.0" y="1962.0" type="curve"/>
      <point x="1000.0" y="2132.0" type="line"/>
      <point x="901.0" y="2082.0"/>
      <point x="843.0" y="2066.0"/>
      <point x="764.0" y="2066.0" type="curve" smooth="yes"/>
      <point x="665.0" y="2066.0"/>
      <point x="565.0" y="2124.0"/>
      <point x="440.0" y="2124.0" type="curve" smooth="yes"/>
      <point x="353.0" y="2124.0"/>
      <point x="290.0" y="2114.0"/>
      <point x="200.0" y="2060.0" type="curve"/>
      <point x="200.0" y="1890.0" type="line"/>
      <point x="299.0" y="1940.0"/>
      <point x="357.0" y="1956.0"/>
      <point x="436.0" y="1956.0" type="curve" smooth="yes"/>
      <point x="535.0" y="1956.0"/>
      <point x="635.0" y="1900.0"/>
    </contour>
  </outline>
</glyph>
<glyph name="brevecomb_tildecomb" format="2">
  <anchor x="600.0" y="1200.0" name="_top"/>
  <outline>
    <contour>
      <point x="600.0" y="1232.0" type="curve" smooth="yes"/>
      <point x="863.0" y="1232.0"/>
      <point x="1000.0" y="1358.0"/>
      <point x="1025.0" y="1548.0" type="curve"/>
      <point x="772.0" y="1548.0" type="line"/>
      <point x="756.0" y="1470.0"/>
      <point x="703.0" y="1429.0"/>
      <point x="600.0" y="1429.0" type="curve" smooth="yes"/>
      <point x="497.0" y="1429.0"/>
      <point x="444.0" y="1470.0"/>
      <point x="428.0" y="1548.0" type="curve"/>
      <point x="175.0" y="1548.0" type="line"/>
      <point x="200.0" y="1358.0"/>
      <point x="337.0" y="1232.0"/>
    </contour>
    <contour>
      <point x="791.0" y="1596.0" type="curve" smooth="yes"/>
      <point x="895.0" y="1596.0"/>
      <point x="963.0" y="1614.0"/>
      <point x="1025.0" y="1661.0" type="curve"/>
      <point x="1025.0" y="1861.0" type="line"/>
      <point x="954.0" y="1821.0"/>
      <point x="892.0" y="1801.0"/>
      <point x="799.0" y="1801.0" type="curve" smooth="yes"/>
      <point x="665.0" y="1801.0"/>
      <point x="563.0" y="1868.0"/>
      <point x="409.0" y="1868.0" type="curve" smooth="yes"/>
      <point x="305.0" y="1868.0"/>
      <point x="237.0" y="1848.0"/>
      <point x="175.0" y="1801.0" type="curve"/>
      <point x="175.0" y="1601.0" type="line"/>
      <point x="246.0" y="1641.0"/>
      <point x="308.0" y="1661.0"/>
      <point x="401.0" y="1661.0" type="curve" smooth="yes"/>
      <point x="535.0" y="1661.0"/>
      <point x="637.0" y="1596.0"/>
    </contour>
  </outline>
</glyph>
<glyph name="bulletoperator.osf" format="2">
  <advance width="620.0"/>
  <anchor x="310.0" y="560.0" name="_periodcentered"/>
  <outline>
    <contour>
      <point x="310.0" y="311.0" type="curve" smooth="yes"/>
      <point x="473.0" y="311.0"/>
      <point x="578.0" y="410.0"/>
      <point x="578.0" y="560.0" type="curve" smooth="yes"/>
      <point x="578.0" y="710.0"/>
      <point x="477.0" y="809.0"/>
      <point x="310.0" y="809.0" type="curve" smooth="yes"/>
      <point x="143.0" y="809.0"/>
      <point x="42.0" y="714.0"/>
      <point x="42.0" y="560.0" type="curve" smooth="yes"/>
      <point x="42.0" y="406.0"/>
      <point x="147.0" y="311.0"/>
    </contour>
  </outline>
</glyph>
<glyph name="caroncomb_dotaccentcomb.case" format="2">
  <advance width="1200.0"/>
  <outline>
    <contour>
      <point x="600.0" y="1942.0" type="curve" smooth="yes"/>
      <point x="735.0" y="1942.0"/>
      <point x="801.0" y="1995.0"/>
      <point x="801.0" y="2086.0" type="curve" smooth="yes"/>
      <point x="801.0" y="2177.0"/>
      <point x="735.0" y="2230.0"/>
      <point x="600.0" y="2230.0" type="curve" smooth="yes"/>
      <point x="465.0" y="2230.0"/>
      <point x="399.0" y="2177.0"/>
      <point x="399.0" y="2086.0" type="curve" smooth="yes"/>
      <point x="399.0" y="1995.0"/>
      <point x="465.0" y="1942.0"/>
    </contour>
    <component base="caroncomb.case"/>
  </outline>
</glyph>
<glyph name="caroncomb_dotaccentcomb" format="2">
  <advance width="1200.0"/>
  <outline>
    <contour>
      <point x="600.0" y="1656.0" type="curve" smooth="yes"/>
      <point x="735.0" y="1656.0"/>
      <point x="801.0" y="1709.0"/>
      <point x="801.0" y="1800.0" type="curve" smooth="yes"/>
      <point x="801.0" y="1891.0"/>
      <point x="735.0" y="1944.0"/>
      <point x="600.0" y="1944.0" type="curve" smooth="yes"/>
      <point x="465.0" y="1944.0"/>
      <point x="399.0" y="1891.0"/>
      <point x="399.0" y="1800.0" type="curve" smooth="yes"/>
      <point x="399.0" y="1709.0"/>
      <point x="465.0" y="1656.0"/>
    </contour>
    <component base="caroncomb"/>
  </outline>
</glyph>
<glyph name="cedi.tf" format="2">
  <advance width="1320.0"/>
  <outline>
    <contour>
      <point x="908.0" y="-20.0" type="curve" smooth="yes"/>
      <point x="1022.0" y="-20.0"/>
      <point x="1145.0" y="-3.0"/>
      <point x="1235.0" y="24.0" type="curve"/>
      <point x="1235.0" y="376.0" type="line"/>
      <point x="1143.0" y="352.0"/>
      <point x="1046.0" y="335.0"/>
      <point x="954.0" y="335.0" type="curve" smooth="yes"/>
      <point x="662.0" y="335.0"/>
      <point x="536.0" y="453.0"/>
      <point x="536.0" y="740.0" type="curve" smooth="yes"/>
      <point x="536.0" y="1022.0"/>
      <point x="666.0" y="1145.0"/>
      <point x="964.0" y="1145.0" type="curve" smooth="yes"/>
      <point x="1061.0" y="1145.0"/>
      <point x="1150.0" y="1134.0"/>
      <point x="1235.0" y="1117.0" type="curve"/>
      <point x="1235.0" y="1469.0" type="line"/>
      <point x="1138.0" y="1490.0"/>
      <point x="1032.0" y="1500.0"/>
      <point x="923.0" y="1500.0" type="curve" smooth="yes"/>
      <point x="380.0" y="1500.0"/>
      <point x="82.0" y="1228.0"/>
      <point x="82.0" y="736.0" type="curve" smooth="yes"/>
      <point x="82.0" y="220.0"/>
      <point x="371.0" y="-20.0"/>
    </contour>
    <contour>
      <point x="603.0" y="-240.0" type="line"/>
      <point x="1003.0" y="-240.0" type="line"/>
      <point x="1003.0" y="60.0" type="line"/>
      <point x="603.0" y="60.0" type="line"/>
    </contour>
    <contour>
      <point x="603.0" y="1420.0" type="line"/>
      <point x="1003.0" y="1420.0" type="line"/>
      <point x="1003.0" y="1720.0" type="line"/>
      <point x="603.0" y="1720.0" type="line"/>
    </contour>
  </outline>
</glyph>
<glyph name="cent.tf" format="2">
  <advance width="1320.0"/>
  <outline>
    <contour>
      <point x="860.0" y="-22.0" type="curve" smooth="yes"/>
      <point x="1000.0" y="-22.0"/>
      <point x="1120.0" y="-2.0"/>
      <point x="1203.0" y="26.0" type="curve"/>
      <point x="1203.0" y="356.0" type="line"/>
      <point x="1067.0" y="328.0"/>
      <point x="989.0" y="316.0"/>
      <point x="890.0" y="316.0" type="curve" smooth="yes"/>
      <point x="666.0" y="316.0"/>
      <point x="554.0" y="398.0"/>
      <point x="554.0" y="546.0" type="curve" smooth="yes"/>
      <point x="554.0" y="695.0"/>
      <point x="655.0" y="780.0"/>
      <point x="912.0" y="780.0" type="curve" smooth="yes"/>
      <point x="1013.0" y="780.0"/>
      <point x="1096.0" y="770.0"/>
      <point x="1203.0" y="753.0" type="curve"/>
      <point x="1203.0" y="1082.0" type="line"/>
      <point x="1109.0" y="1106.0"/>
      <point x="1002.0" y="1118.0"/>
      <point x="880.0" y="1118.0" type="curve" smooth="yes"/>
      <point x="379.0" y="1118.0"/>
      <point x="117.0" y="906.0"/>
      <point x="117.0" y="546.0" type="curve" smooth="yes"/>
      <point x="117.0" y="186.0"/>
      <point x="374.0" y="-22.0"/>
    </contour>
    <contour>
      <point x="619.0" y="-240.0" type="line"/>
      <point x="979.0" y="-240.0" type="line"/>
      <point x="979.0" y="60.0" type="line"/>
      <point x="619.0" y="60.0" type="line"/>
    </contour>
    <contour>
      <point x="619.0" y="1040.0" type="line"/>
      <point x="979.0" y="1040.0" type="line"/>
      <point x="979.0" y="1340.0" type="line"/>
      <point x="619.0" y="1340.0" type="line"/>
    </contour>
  </outline>
</glyph>
<glyph name="circumflexcomb_acutecomb" format="2">
  <anchor x="600.0" y="1200.0" name="_top"/>
  <outline>
    <contour>
      <point x="191.0" y="1220.0" type="line"/>
      <point x="486.0" y="1220.0" type="line"/>
      <point x="628.0" y="1474.0" type="line"/>
      <point x="572.0" y="1474.0" type="line"/>
      <point x="714.0" y="1220.0" type="line"/>
      <point x="1009.0" y="1220.0" type="line"/>
      <point x="770.0" y="1616.0" type="line"/>
      <point x="430.0" y="1616.0" type="line"/>
    </contour>
    <contour>
      <point x="840.0" y="1598.0" type="line"/>
      <point x="1130.0" y="1598.0" type="line"/>
      <point x="1375.0" y="1868.0" type="line"/>
      <point x="1023.0" y="1868.0" type="line"/>
    </contour>
  </outline>
</glyph>
<glyph name="circumflexcomb_gravecomb" format="2">
  <anchor x="600.0" y="1200.0" name="_top"/>
  <outline>
    <contour>
      <point x="191.0" y="1220.0" type="line"/>
      <point x="486.0" y="1220.0" type="line"/>
      <point x="628.0" y="1474.0" type="line"/>
      <point x="572.0" y="1474.0" type="line"/>
      <point x="714.0" y="1220.0" type="line"/>
      <point x="1009.0" y="1220.0" type="line"/>
      <point x="770.0" y="1616.0" type="line"/>
      <point x="430.0" y="1616.0" type="line"/>
    </contour>
    <contour>
      <point x="880.0" y="1598.0" type="line"/>
      <point x="1170.0" y="1598.0" type="line"/>
      <point x="987.0" y="1868.0" type="line"/>
      <point x="635.0" y="1868.0" type="line"/>
    </contour>
  </outline>
</glyph>
<glyph name="circumflexcomb_hookabovecomb.case" format="2">
  <anchor x="600.0" y="1520.0" name="_top"/>
  <outline>
    <contour>
      <point x="161.0" y="1586.0" type="line"/>
      <point x="471.0" y="1586.0" type="line"/>
      <point x="630.0" y="1763.0" type="line"/>
      <point x="570.0" y="1763.0" type="line"/>
      <point x="729.0" y="1586.0" type="line"/>
      <point x="1039.0" y="1586.0" type="line"/>
      <point x="777.0" y="1858.0" type="line"/>
      <point x="423.0" y="1858.0" type="line"/>
    </contour>
    <contour>
      <point x="865.0" y="1828.0" type="curve"/>
      <point x="1067.0" y="1828.0" type="line"/>
      <point x="1078.0" y="1890.0"/>
      <point x="1246.0" y="1900.0"/>
      <point x="1246.0" y="1997.0" type="curve" smooth="yes"/>
      <point x="1246.0" y="2083.0"/>
      <point x="1158.0" y="2124.0"/>
      <point x="960.0" y="2124.0" type="curve" smooth="yes"/>
      <point x="892.0" y="2124.0"/>
      <point x="795.0" y="2116.0"/>
      <point x="735.0" y="2104.0" type="curve"/>
      <point x="735.0" y="1979.0" type="line"/>
      <point x="802.0" y="1991.0"/>
      <point x="867.0" y="1996.0"/>
      <point x="926.0" y="1996.0" type="curve" smooth="yes"/>
      <point x="996.0" y="1996.0"/>
      <point x="1031.0" y="1988.0"/>
      <point x="1031.0" y="1970.0" type="curve" smooth="yes"/>
      <point x="1031.0" y="1933.0"/>
      <point x="872.0" y="1926.0"/>
    </contour>
  </outline>
</glyph>
<glyph name="circumflexcomb_hookabovecomb" format="2">
  <anchor x="600.0" y="1200.0" name="_top"/>
  <outline>
    <contour>
      <point x="191.0" y="1220.0" type="line"/>
      <point x="486.0" y="1220.0" type="line"/>
      <point x="628.0" y="1474.0" type="line"/>
      <point x="572.0" y="1474.0" type="line"/>
      <point x="714.0" y="1220.0" type="line"/>
      <point x="1009.0" y="1220.0" type="line"/>
      <point x="770.0" y="1616.0" type="line"/>
      <point x="430.0" y="1616.0" type="line"/>
    </contour>
    <contour>
      <point x="839.0" y="1598.0" type="curve"/>
      <point x="1027.0" y="1598.0" type="line"/>
      <point x="1041.0" y="1678.0"/>
      <point x="1193.0" y="1678.0"/>
      <point x="1193.0" y="1768.0" type="curve" smooth="yes"/>
      <point x="1193.0" y="1858.0"/>
      <point x="1111.0" y="1894.0"/>
      <point x="927.0" y="1894.0" type="curve" smooth="yes"/>
      <point x="865.0" y="1894.0"/>
      <point x="769.0" y="1886.0"/>
      <point x="717.0" y="1874.0" type="curve"/>
      <point x="717.0" y="1752.0" type="line"/>
      <point x="769.0" y="1762.0"/>
      <point x="837.0" y="1768.0"/>
      <point x="893.0" y="1768.0" type="curve" smooth="yes"/>
      <point x="957.0" y="1768.0"/>
      <point x="987.0" y="1760.0"/>
      <point x="987.0" y="1740.0" type="curve" smooth="yes"/>
      <point x="987.0" y="1710.0"/>
      <point x="847.0" y="1704.0"/>
    </contour>
  </outline>
</glyph>
<glyph name="circumflexcomb_tildecomb" format="2">
  <anchor x="600.0" y="1200.0" name="_top"/>
  <outline>
    <contour>
      <point x="161.0" y="1222.0" type="line"/>
      <point x="471.0" y="1222.0" type="line"/>
      <point x="630.0" y="1427.0" type="line"/>
      <point x="570.0" y="1427.0" type="line"/>
      <point x="729.0" y="1222.0" type="line"/>
      <point x="1039.0" y="1222.0" type="line"/>
      <point x="777.0" y="1538.0" type="line"/>
      <point x="423.0" y="1538.0" type="line"/>
    </contour>
    <contour>
      <point x="784.0" y="1596.0" type="curve" smooth="yes"/>
      <point x="884.0" y="1596.0"/>
      <point x="950.0" y="1615.0"/>
      <point x="1010.0" y="1660.5" type="curve"/>
      <point x="1010.0" y="1861.0" type="line"/>
      <point x="941.0" y="1820.5"/>
      <point x="881.0" y="1800.5"/>
      <point x="792.0" y="1800.5" type="curve" smooth="yes"/>
      <point x="663.0" y="1800.5"/>
      <point x="565.0" y="1868.0"/>
      <point x="416.0" y="1868.0" type="curve" smooth="yes"/>
      <point x="316.0" y="1868.0"/>
      <point x="250.0" y="1847.0"/>
      <point x="190.0" y="1801.5" type="curve"/>
      <point x="190.0" y="1601.0" type="line"/>
      <point x="259.0" y="1641.5"/>
      <point x="319.0" y="1661.5"/>
      <point x="408.0" y="1661.5" type="curve" smooth="yes"/>
      <point x="537.0" y="1661.5"/>
      <point x="635.0" y="1596.0"/>
    </contour>
  </outline>
</glyph>
<glyph name="colonsign.tf" format="2">
  <advance width="1320.0"/>
  <outline>
    <contour>
      <point x="907.0" y="-20.0" type="curve" smooth="yes"/>
      <point x="1021.0" y="-20.0"/>
      <point x="1144.0" y="-3.0"/>
      <point x="1234.0" y="24.0" type="curve"/>
      <point x="1234.0" y="376.0" type="line"/>
      <point x="1142.0" y="352.0"/>
      <point x="1045.0" y="335.0"/>
      <point x="953.0" y="335.0" type="curve" smooth="yes"/>
      <point x="661.0" y="335.0"/>
      <point x="535.0" y="453.0"/>
      <point x="535.0" y="740.0" type="curve" smooth="yes"/>
      <point x="535.0" y="1022.0"/>
      <point x="665.0" y="1145.0"/>
      <point x="963.0" y="1145.0" type="curve" smooth="yes"/>
      <point x="1060.0" y="1145.0"/>
      <point x="1149.0" y="1134.0"/>
      <point x="1234.0" y="1117.0" type="curve"/>
      <point x="1234.0" y="1469.0" type="line"/>
      <point x="1137.0" y="1490.0"/>
      <point x="1031.0" y="1500.0"/>
      <point x="922.0" y="1500.0" type="curve" smooth="yes"/>
      <point x="379.0" y="1500.0"/>
      <point x="81.0" y="1228.0"/>
      <point x="81.0" y="736.0" type="curve" smooth="yes"/>
      <point x="81.0" y="220.0"/>
      <point x="370.0" y="-20.0"/>
    </contour>
    <contour>
      <point x="81.0" y="-240.0" type="line"/>
      <point x="325.0" y="-240.0" type="line"/>
      <point x="486.0" y="317.0" type="line"/>
      <point x="298.0" y="514.0" type="line"/>
    </contour>
    <contour>
      <point x="430.0" y="-240.0" type="line"/>
      <point x="674.0" y="-240.0" type="line"/>
      <point x="796.0" y="184.0" type="line"/>
      <point x="566.0" y="234.0" type="line"/>
    </contour>
    <contour>
      <point x="527.0" y="1329.0" type="line"/>
      <point x="771.0" y="1329.0" type="line"/>
      <point x="885.0" y="1720.0" type="line"/>
      <point x="641.0" y="1720.0" type="line"/>
    </contour>
    <contour>
      <point x="876.0" y="1329.0" type="line"/>
      <point x="1120.0" y="1329.0" type="line"/>
      <point x="1234.0" y="1720.0" type="line"/>
      <point x="990.0" y="1720.0" type="line"/>
    </contour>
  </outline>
</glyph>
<glyph name="dieresisbelowcomb.case" format="2">
  <anchor x="600.0" y="0.0" name="_bottom"/>
  <anchor x="600.0" y="-454.0" name="bottom"/>
  <outline>
    <contour>
      <point x="873.0" y="-464.0" type="curve" smooth="yes"/>
      <point x="1019.0" y="-464.0"/>
      <point x="1091.0" y="-398.0"/>
      <point x="1091.0" y="-284.0" type="curve" smooth="yes"/>
      <point x="1091.0" y="-170.0"/>
      <point x="1019.0" y="-104.0"/>
      <point x="873.0" y="-104.0" type="curve" smooth="yes"/>
      <point x="727.0" y="-104.0"/>
      <point x="655.0" y="-170.0"/>
      <point x="655.0" y="-284.0" type="curve" smooth="yes"/>
      <point x="655.0" y="-398.0"/>
      <point x="727.0" y="-464.0"/>
    </contour>
    <contour>
      <point x="327.0" y="-464.0" type="curve" smooth="yes"/>
      <point x="473.0" y="-464.0"/>
      <point x="545.0" y="-398.0"/>
      <point x="545.0" y="-284.0" type="curve" smooth="yes"/>
      <point x="545.0" y="-170.0"/>
      <point x="473.0" y="-104.0"/>
      <point x="327.0" y="-104.0" type="curve" smooth="yes"/>
      <point x="181.0" y="-104.0"/>
      <point x="109.0" y="-170.0"/>
      <point x="109.0" y="-284.0" type="curve" smooth="yes"/>
      <point x="109.0" y="-398.0"/>
      <point x="181.0" y="-464.0"/>
    </contour>
  </outline>
</glyph>
<glyph name="divide.tf" format="2">
  <advance width="1320.0"/>
  <outline>
    <contour>
      <point x="198.0" y="600.0" type="line"/>
      <point x="1122.0" y="600.0" type="line"/>
      <point x="1122.0" y="920.0" type="line"/>
      <point x="198.0" y="920.0" type="line"/>
    </contour>
    <contour>
      <point x="660.0" y="100.0" type="curve" smooth="yes"/>
      <point x="807.0" y="100.0"/>
      <point x="902.0" y="189.0"/>
      <point x="902.0" y="324.0" type="curve" smooth="yes"/>
      <point x="902.0" y="459.0"/>
      <point x="811.0" y="548.0"/>
      <point x="660.0" y="548.0" type="curve" smooth="yes"/>
      <point x="509.0" y="548.0"/>
      <point x="418.0" y="463.0"/>
      <point x="418.0" y="324.0" type="curve" smooth="yes"/>
      <point x="418.0" y="185.0"/>
      <point x="513.0" y="100.0"/>
    </contour>
    <contour>
      <point x="660.0" y="972.0" type="curve" smooth="yes"/>
      <point x="807.0" y="972.0"/>
      <point x="902.0" y="1061.0"/>
      <point x="902.0" y="1196.0" type="curve" smooth="yes"/>
      <point x="902.0" y="1331.0"/>
      <point x="811.0" y="1420.0"/>
      <point x="660.0" y="1420.0" type="curve" smooth="yes"/>
      <point x="509.0" y="1420.0"/>
      <point x="418.0" y="1335.0"/>
      <point x="418.0" y="1196.0" type="curve" smooth="yes"/>
      <point x="418.0" y="1057.0"/>
      <point x="513.0" y="972.0"/>
    </contour>
  </outline>
</glyph>
<glyph name="dollar.tf" format="2">
  <advance width="1320.0"/>
  <outline>
    <contour>
      <point x="566.0" y="-20.0" type="curve" smooth="yes"/>
      <point x="1005.0" y="-20.0"/>
      <point x="1260.0" y="166.0"/>
      <point x="1260.0" y="461.0" type="curve" smooth="yes"/>
      <point x="1260.0" y="700.0"/>
      <point x="1116.0" y="833.0"/>
      <point x="803.0" y="906.0" type="curve" smooth="yes"/>
      <point x="659.0" y="941.0" type="line" smooth="yes"/>
      <point x="516.0" y="978.0"/>
      <point x="488.0" y="997.0"/>
      <point x="488.0" y="1045.0" type="curve" smooth="yes"/>
      <point x="488.0" y="1105.0"/>
      <point x="549.0" y="1155.0"/>
      <point x="815.0" y="1155.0" type="curve" smooth="yes"/>
      <point x="935.0" y="1155.0"/>
      <point x="1075.0" y="1139.0"/>
      <point x="1171.0" y="1115.0" type="curve"/>
      <point x="1171.0" y="1462.0" type="line"/>
      <point x="1069.0" y="1484.0"/>
      <point x="934.0" y="1500.0"/>
      <point x="792.0" y="1500.0" type="curve" smooth="yes"/>
      <point x="294.0" y="1500.0"/>
      <point x="58.0" y="1323.0"/>
      <point x="58.0" y="1022.0" type="curve" smooth="yes"/>
      <point x="58.0" y="783.0"/>
      <point x="204.0" y="648.0"/>
      <point x="485.0" y="583.0" type="curve" smooth="yes"/>
      <point x="629.0" y="548.0" type="line" smooth="yes"/>
      <point x="793.0" y="507.0"/>
      <point x="830.0" y="484.0"/>
      <point x="830.0" y="431.0" type="curve" smooth="yes"/>
      <point x="830.0" y="368.0"/>
      <point x="775.0" y="325.0"/>
      <point x="568.0" y="325.0" type="curve" smooth="yes"/>
      <point x="428.0" y="325.0"/>
      <point x="238.0" y="350.0"/>
      <point x="105.0" y="388.0" type="curve"/>
      <point x="105.0" y="41.0" type="line"/>
      <point x="238.0" y="3.0"/>
      <point x="407.0" y="-20.0"/>
    </contour>
    <contour>
      <point x="459.0" y="-240.0" type="line"/>
      <point x="859.0" y="-240.0" type="line"/>
      <point x="859.0" y="80.0" type="line"/>
      <point x="459.0" y="80.0" type="line"/>
    </contour>
    <contour>
      <point x="459.0" y="1420.0" type="line"/>
      <point x="859.0" y="1420.0" type="line"/>
      <point x="859.0" y="1720.0" type="line"/>
      <point x="459.0" y="1720.0" type="line"/>
    </contour>
  </outline>
</glyph>
<glyph name="dotaccentcomb.case" format="2">
  <anchor x="600.0" y="1520.0" name="_top"/>
  <anchor x="600.0" y="1920.0" name="top"/>
  <outline>
    <contour>
      <point x="600.0" y="1570.0" type="curve" smooth="yes"/>
      <point x="769.0" y="1570.0"/>
      <point x="852.0" y="1636.0"/>
      <point x="852.0" y="1750.0" type="curve" smooth="yes"/>
      <point x="852.0" y="1864.0"/>
      <point x="769.0" y="1930.0"/>
      <point x="600.0" y="1930.0" type="curve" smooth="yes"/>
      <point x="431.0" y="1930.0"/>
      <point x="348.0" y="1864.0"/>
      <point x="348.0" y="1750.0" type="curve" smooth="yes"/>
      <point x="348.0" y="1636.0"/>
      <point x="431.0" y="1570.0"/>
    </contour>
  </outline>
</glyph>
<glyph name="dotbelowcomb.case" format="2">
  <anchor x="600.0" y="0.0" name="_bottom"/>
  <anchor x="600.0" y="-454.0" name="bottom"/>
  <outline>
    <contour>
      <point x="600.0" y="-464.0" type="curve" smooth="yes"/>
      <point x="769.0" y="-464.0"/>
      <point x="852.0" y="-398.0"/>
      <point x="852.0" y="-284.0" type="curve" smooth="yes"/>
      <point x="852.0" y="-170.0"/>
      <point x="769.0" y="-104.0"/>
      <point x="600.0" y="-104.0" type="curve" smooth="yes"/>
      <point x="431.0" y="-104.0"/>
      <point x="348.0" y="-170.0"/>
      <point x="348.0" y="-284.0" type="curve" smooth="yes"/>
      <point x="348.0" y="-398.0"/>
      <point x="431.0" y="-464.0"/>
    </contour>
  </outline>
</glyph>
<glyph name="eight.tf" format="2">
  <advance width="1320.0"/>
  <outline>
    <contour>
      <point x="663.0" y="-20.0" type="curve" smooth="yes"/>
      <point x="1069.0" y="-20.0"/>
      <point x="1263.0" y="174.0"/>
      <point x="1263.0" y="422.0" type="curve" smooth="yes"/>
      <point x="1263.0" y="639.0"/>
      <point x="1157.0" y="779.0"/>
      <point x="785.0" y="889.0" type="curve" smooth="yes"/>
      <point x="532.0" y="964.0"/>
      <point x="495.0" y="1007.0"/>
      <point x="495.0" y="1088.0" type="curve" smooth="yes"/>
      <point x="495.0" y="1154.0"/>
      <point x="552.0" y="1209.0"/>
      <point x="683.0" y="1209.0" type="curve" smooth="yes"/>
      <point x="799.0" y="1209.0"/>
      <point x="859.0" y="1162.0"/>
      <point x="859.0" y="1080.0" type="curve" smooth="yes"/>
      <point x="859.0" y="999.0"/>
      <point x="812.0" y="931.0"/>
      <point x="702.0" y="866.0" type="curve"/>
      <point x="951.0" y="762.0" type="line"/>
      <point x="1161.0" y="847.0"/>
      <point x="1227.0" y="982.0"/>
      <point x="1227.0" y="1124.0" type="curve" smooth="yes"/>
      <point x="1227.0" y="1358.0"/>
      <point x="1029.0" y="1500.0"/>
      <point x="688.0" y="1500.0" type="curve" smooth="yes"/>
      <point x="287.0" y="1500.0"/>
      <point x="92.0" y="1325.0"/>
      <point x="92.0" y="1074.0" type="curve" smooth="yes"/>
      <point x="92.0" y="860.0"/>
      <point x="208.0" y="694.0"/>
      <point x="578.0" y="595.0" type="curve" smooth="yes"/>
      <point x="811.0" y="533.0"/>
      <point x="864.0" y="486.0"/>
      <point x="864.0" y="400.0" type="curve" smooth="yes"/>
      <point x="864.0" y="322.0"/>
      <point x="804.0" y="271.0"/>
      <point x="664.0" y="271.0" type="curve" smooth="yes"/>
      <point x="522.0" y="271.0"/>
      <point x="455.0" y="326.0"/>
      <point x="455.0" y="419.0" type="curve" smooth="yes"/>
      <point x="455.0" y="495.0"/>
      <point x="504.0" y="583.0"/>
      <point x="634.0" y="630.0" type="curve"/>
      <point x="364.0" y="731.0" type="line"/>
      <point x="161.0" y="664.0"/>
      <point x="56.0" y="532.0"/>
      <point x="56.0" y="368.0" type="curve" smooth="yes"/>
      <point x="56.0" y="148.0"/>
      <point x="240.0" y="-20.0"/>
    </contour>
  </outline>
</glyph>
<glyph name="equal.osf" format="2">
  <advance width="1116.0"/>
  <outline>
    <contour>
      <point x="96.0" y="640.0" type="line"/>
      <point x="1020.0" y="640.0" type="line"/>
      <point x="1020.0" y="960.0" type="line"/>
      <point x="96.0" y="960.0" type="line"/>
    </contour>
    <contour>
      <point x="96.0" y="160.0" type="line"/>
      <point x="1020.0" y="160.0" type="line"/>
      <point x="1020.0" y="480.0" type="line"/>
      <point x="96.0" y="480.0" type="line"/>
    </contour>
  </outline>
</glyph>
<glyph name="euro.tf" format="2">
  <advance width="1320.0"/>
  <outline>
    <contour>
      <point x="977.0" y="-20.0" type="curve" smooth="yes"/>
      <point x="1078.0" y="-20.0"/>
      <point x="1188.0" y="-3.0"/>
      <point x="1269.0" y="24.0" type="curve"/>
      <point x="1269.0" y="366.0" type="line"/>
      <point x="1192.0" y="342.0"/>
      <point x="1111.0" y="325.0"/>
      <point x="1036.0" y="325.0" type="curve" smooth="yes"/>
      <point x="787.0" y="325.0"/>
      <point x="681.0" y="421.0"/>
      <point x="681.0" y="740.0" type="curve" smooth="yes"/>
      <point x="681.0" y="1054.0"/>
      <point x="791.0" y="1155.0"/>
      <point x="1043.0" y="1155.0" type="curve" smooth="yes"/>
      <point x="1124.0" y="1155.0"/>
      <point x="1198.0" y="1144.0"/>
      <point x="1269.0" y="1127.0" type="curve"/>
      <point x="1269.0" y="1469.0" type="line"/>
      <point x="1182.0" y="1490.0"/>
      <point x="1088.0" y="1500.0"/>
      <point x="991.0" y="1500.0" type="curve" smooth="yes"/>
      <point x="536.0" y="1500.0"/>
      <point x="240.0" y="1238.0"/>
      <point x="240.0" y="736.0" type="curve" smooth="yes"/>
      <point x="240.0" y="210.0"/>
      <point x="528.0" y="-20.0"/>
    </contour>
    <contour>
      <point x="60.0" y="463.0" type="line"/>
      <point x="1089.0" y="463.0" type="line"/>
      <point x="1089.0" y="705.0" type="line"/>
      <point x="60.0" y="705.0" type="line"/>
    </contour>
    <contour>
      <point x="60.0" y="795.0" type="line"/>
      <point x="1089.0" y="795.0" type="line"/>
      <point x="1089.0" y="1037.0" type="line"/>
      <point x="60.0" y="1037.0" type="line"/>
    </contour>
  </outline>
</glyph>
<glyph name="f.short" format="2">
  <advance width="860.0"/>
  <outline>
    <contour>
      <point x="189.0" y="0.0" type="line"/>
      <point x="611.0" y="0.0" type="line"/>
      <point x="611.0" y="1160.0" type="line" smooth="yes"/>
      <point x="611.0" y="1251.0"/>
      <point x="668.0" y="1304.0"/>
      <point x="778.0" y="1304.0" type="curve" smooth="yes"/>
      <point x="808.0" y="1304.0"/>
      <point x="835.0" y="1302.0"/>
      <point x="865.0" y="1293.0" type="curve"/>
      <point x="865.0" y="1619.0" type="line"/>
      <point x="816.0" y="1632.0"/>
      <point x="768.0" y="1636.0"/>
      <point x="707.0" y="1636.0" type="curve" smooth="yes"/>
      <point x="385.0" y="1636.0"/>
      <point x="189.0" y="1440.0"/>
      <point x="189.0" y="1138.0" type="curve" smooth="yes"/>
    </contour>
    <contour>
      <point x="29.0" y="770.0" type="line"/>
      <point x="864.0" y="770.0" type="line"/>
      <point x="864.0" y="1100.0" type="line"/>
      <point x="29.0" y="1100.0" type="line"/>
    </contour>
  </outline>
</glyph>
<glyph name="five.osf" format="2">
  <advance width="1147.0"/>
  <outline>
    <contour>
      <point x="468.0" y="-420.0" type="curve" smooth="yes"/>
      <point x="886.0" y="-420.0"/>
      <point x="1100.0" y="-254.0"/>
      <point x="1101.0" y="65.0" type="curve" smooth="yes"/>
      <point x="1102.0" y="362.0"/>
      <point x="921.0" y="516.0"/>
      <point x="462.0" y="541.0" type="curve" smooth="yes"/>
      <point x="273.0" y="551.0" type="line"/>
      <point x="522.0" y="408.0" type="line"/>
      <point x="558.0" y="960.0" type="line"/>
      <point x="372.0" y="771.0" type="line"/>
      <point x="1054.0" y="771.0" type="line"/>
      <point x="1054.0" y="1100.0" type="line"/>
      <point x="161.0" y="1100.0" type="line"/>
      <point x="109.0" y="239.0" type="line"/>
      <point x="298.0" y="229.0" type="line" smooth="yes"/>
      <point x="628.0" y="210.0"/>
      <point x="694.0" y="159.0"/>
      <point x="694.0" y="55.0" type="curve" smooth="yes"/>
      <point x="694.0" y="-47.0"/>
      <point x="624.0" y="-99.0"/>
      <point x="446.0" y="-99.0" type="curve" smooth="yes"/>
      <point x="329.0" y="-99.0"/>
      <point x="181.0" y="-78.0"/>
      <point x="68.0" y="-49.0" type="curve"/>
      <point x="68.0" y="-366.0" type="line"/>
      <point x="189.0" y="-400.0"/>
      <point x="325.0" y="-420.0"/>
    </contour>
  </outline>
</glyph>
<glyph name="five.tf" format="2">
  <advance width="1320.0"/>
  <outline>
    <contour>
      <point x="547.0" y="-20.0" type="curve" smooth="yes"/>
      <point x="987.0" y="-20.0"/>
      <point x="1212.0" y="146.0"/>
      <point x="1213.0" y="457.0" type="curve" smooth="yes"/>
      <point x="1214.0" y="748.0"/>
      <point x="1024.0" y="901.0"/>
      <point x="537.0" y="927.0" type="curve" smooth="yes"/>
      <point x="341.0" y="937.0" type="line"/>
      <point x="584.0" y="794.0" type="line"/>
      <point x="621.0" y="1340.0" type="line"/>
      <point x="444.0" y="1151.0" type="line"/>
      <point x="1152.0" y="1151.0" type="line"/>
      <point x="1152.0" y="1480.0" type="line"/>
      <point x="225.0" y="1480.0" type="line"/>
      <point x="171.0" y="625.0" type="line"/>
      <point x="366.0" y="615.0" type="line" smooth="yes"/>
      <point x="731.0" y="595.0"/>
      <point x="806.0" y="545.0"/>
      <point x="806.0" y="447.0" type="curve" smooth="yes"/>
      <point x="806.0" y="353.0"/>
      <point x="727.0" y="301.0"/>
      <point x="528.0" y="301.0" type="curve" smooth="yes"/>
      <point x="399.0" y="301.0"/>
      <point x="245.0" y="322.0"/>
      <point x="128.0" y="351.0" type="curve"/>
      <point x="128.0" y="34.0" type="line"/>
      <point x="253.0" y="1.0"/>
      <point x="395.0" y="-20.0"/>
    </contour>
  </outline>
</glyph>
<glyph name="five.tosf" format="2">
  <advance width="1320.0"/>
  <outline>
    <contour>
      <point x="549.0" y="-420.0" type="curve" smooth="yes"/>
      <point x="983.0" y="-420.0"/>
      <point x="1206.0" y="-254.0"/>
      <point x="1207.0" y="65.0" type="curve" smooth="yes"/>
      <point x="1208.0" y="362.0"/>
      <point x="1020.0" y="516.0"/>
      <point x="544.0" y="541.0" type="curve" smooth="yes"/>
      <point x="347.0" y="551.0" type="line"/>
      <point x="590.0" y="408.0" type="line"/>
      <point x="627.0" y="960.0" type="line"/>
      <point x="450.0" y="771.0" type="line"/>
      <point x="1158.0" y="771.0" type="line"/>
      <point x="1158.0" y="1100.0" type="line"/>
      <point x="231.0" y="1100.0" type="line"/>
      <point x="177.0" y="239.0" type="line"/>
      <point x="372.0" y="229.0" type="line" smooth="yes"/>
      <point x="723.0" y="210.0"/>
      <point x="800.0" y="159.0"/>
      <point x="800.0" y="55.0" type="curve" smooth="yes"/>
      <point x="800.0" y="-47.0"/>
      <point x="719.0" y="-99.0"/>
      <point x="527.0" y="-99.0" type="curve" smooth="yes"/>
      <point x="405.0" y="-99.0"/>
      <point x="251.0" y="-78.0"/>
      <point x="134.0" y="-49.0" type="curve"/>
      <point x="134.0" y="-366.0" type="line"/>
      <point x="259.0" y="-401.0"/>
      <point x="401.0" y="-420.0"/>
    </contour>
  </outline>
</glyph>
<glyph name="four.tf" format="2">
  <advance width="1320.0"/>
  <outline>
    <contour>
      <point x="35.0" y="271.0" type="line"/>
      <point x="1288.0" y="271.0" type="line"/>
      <point x="1288.0" y="601.0" type="line"/>
      <point x="403.0" y="601.0" type="line"/>
      <point x="447.0" y="506.0" type="line"/>
      <point x="887.0" y="1480.0" type="line"/>
      <point x="488.0" y="1480.0" type="line"/>
      <point x="35.0" y="506.0" type="line"/>
    </contour>
    <contour>
      <point x="723.0" y="0.0" type="line"/>
      <point x="1109.0" y="0.0" type="line"/>
      <point x="1109.0" y="980.0" type="line"/>
      <point x="763.0" y="980.0" type="line"/>
      <point x="723.0" y="601.0" type="line"/>
    </contour>
  </outline>
</glyph>
<glyph name="franc.tf" format="2">
  <advance width="1320.0"/>
  <outline>
    <contour>
      <point x="240.0" y="0.0" type="line"/>
      <point x="674.0" y="0.0" type="line"/>
      <point x="674.0" y="1131.0" type="line"/>
      <point x="1282.0" y="1131.0" type="line"/>
      <point x="1282.0" y="1480.0" type="line"/>
      <point x="240.0" y="1480.0" type="line"/>
    </contour>
    <contour>
      <point x="60.0" y="160.0" type="line"/>
      <point x="924.0" y="160.0" type="line"/>
      <point x="924.0" y="470.0" type="line"/>
      <point x="60.0" y="470.0" type="line"/>
    </contour>
    <contour>
      <point x="509.0" y="612.0" type="line"/>
      <point x="1177.0" y="612.0" type="line"/>
      <point x="1177.0" y="961.0" type="line"/>
      <point x="509.0" y="961.0" type="line"/>
    </contour>
  </outline>
</glyph>
<glyph name="germandbls.sc" format="2">
  <advance width="1717.0"/>
  <outline>
    <contour>
      <point x="1128.0" y="-16.0" type="curve" smooth="yes"/>
      <point x="1493.0" y="-16.0"/>
      <point x="1675.0" y="154.0"/>
      <point x="1675.0" y="384.0" type="curve" smooth="yes"/>
      <point x="1675.0" y="586.0"/>
      <point x="1561.0" y="697.0"/>
      <point x="1306.0" y="750.0" type="curve" smooth="yes"/>
      <point x="1206.0" y="770.0" type="line" smooth="yes"/>
      <point x="1127.0" y="787.0"/>
      <point x="1118.0" y="805.0"/>
      <point x="1118.0" y="829.0" type="curve" smooth="yes"/>
      <point x="1118.0" y="859.0"/>
      <point x="1145.0" y="886.0"/>
      <point x="1316.0" y="886.0" type="curve" smooth="yes"/>
      <point x="1414.0" y="886.0"/>
      <point x="1515.0" y="873.0"/>
      <point x="1602.0" y="854.0" type="curve"/>
      <point x="1602.0" y="1177.0" type="line"/>
      <point x="1520.0" y="1193.0"/>
      <point x="1412.0" y="1206.0"/>
      <point x="1304.0" y="1206.0" type="curve" smooth="yes"/>
      <point x="880.0" y="1206.0"/>
      <point x="710.0" y="1035.0"/>
      <point x="710.0" y="805.0" type="curve" smooth="yes"/>
      <point x="710.0" y="617.0"/>
      <point x="819.0" y="495.0"/>
      <point x="1056.0" y="446.0" type="curve" smooth="yes"/>
      <point x="1157.0" y="426.0" type="line" smooth="yes"/>
      <point x="1251.0" y="405.0"/>
      <point x="1267.0" y="385.0"/>
      <point x="1267.0" y="358.0" type="curve" smooth="yes"/>
      <point x="1267.0" y="327.0"/>
      <point x="1244.0" y="305.0"/>
      <point x="1122.0" y="305.0" type="curve" smooth="yes"/>
      <point x="1017.0" y="305.0"/>
      <point x="868.0" y="325.0"/>
      <point x="751.0" y="357.0" type="curve"/>
      <point x="751.0" y="34.0" type="line"/>
      <point x="851.0" y="5.0"/>
      <point x="988.0" y="-16.0"/>
    </contour>
    <contour>
      <point x="111.0" y="0.0" type="line"/>
      <point x="542.0" y="0.0" type="line"/>
      <point x="542.0" y="766.0" type="line" smooth="yes"/>
      <point x="542.0" y="844.0"/>
      <point x="587.0" y="888.0"/>
      <point x="660.0" y="888.0" type="curve" smooth="yes"/>
      <point x="707.0" y="888.0"/>
      <point x="743.0" y="873.0"/>
      <point x="778.0" y="848.0" type="curve"/>
      <point x="1022.0" y="1118.0" type="line"/>
      <point x="918.0" y="1173.0"/>
      <point x="797.0" y="1206.0"/>
      <point x="660.0" y="1206.0" type="curve" smooth="yes"/>
      <point x="289.0" y="1206.0"/>
      <point x="111.0" y="1015.0"/>
      <point x="111.0" y="717.0" type="curve" smooth="yes"/>
    </contour>
  </outline>
</glyph>
<glyph name="greater.tosf" format="2">
  <advance width="1320.0"/>
  <outline>
    <contour>
      <point x="198.0" y="26.0" type="line"/>
      <point x="1122.0" y="356.0" type="line"/>
      <point x="1122.0" y="764.0" type="line"/>
      <point x="198.0" y="1094.0" type="line"/>
      <point x="198.0" y="774.0" type="line"/>
      <point x="895.0" y="542.0" type="line"/>
      <point x="895.0" y="583.0" type="line"/>
      <point x="198.0" y="346.0" type="line"/>
    </contour>
  </outline>
</glyph>
<glyph name="greaterequal.tosf" format="2">
  <advance width="1320.0"/>
  <outline>
    <contour>
      <point x="198.0" y="368.0" type="line"/>
      <point x="1122.0" y="601.0" type="line"/>
      <point x="1122.0" y="887.0" type="line"/>
      <point x="198.0" y="1120.0" type="line"/>
      <point x="198.0" y="840.0" type="line"/>
      <point x="895.0" y="677.0" type="line"/>
      <point x="895.0" y="815.0" type="line"/>
      <point x="198.0" y="648.0" type="line"/>
    </contour>
    <contour>
      <point x="198.0" y="0.0" type="line"/>
      <point x="1122.0" y="0.0" type="line"/>
      <point x="1122.0" y="296.0" type="line"/>
      <point x="198.0" y="296.0" type="line"/>
    </contour>
  </outline>
</glyph>
<glyph name="hookabovecomb.case" format="2">
  <anchor x="600.0" y="1520.0" name="_top"/>
  <anchor x="600.0" y="1920.0" name="top"/>
  <outline>
    <contour>
      <point x="499.0" y="1586.0" type="curve"/>
      <point x="701.0" y="1586.0" type="line"/>
      <point x="712.0" y="1658.0"/>
      <point x="880.0" y="1670.0"/>
      <point x="880.0" y="1783.0" type="curve" smooth="yes"/>
      <point x="880.0" y="1882.0"/>
      <point x="792.0" y="1930.0"/>
      <point x="594.0" y="1930.0" type="curve" smooth="yes"/>
      <point x="526.0" y="1930.0"/>
      <point x="429.0" y="1922.0"/>
      <point x="369.0" y="1908.0" type="curve"/>
      <point x="369.0" y="1761.0" type="line"/>
      <point x="436.0" y="1775.0"/>
      <point x="501.0" y="1781.0"/>
      <point x="560.0" y="1781.0" type="curve" smooth="yes"/>
      <point x="630.0" y="1781.0"/>
      <point x="665.0" y="1772.0"/>
      <point x="665.0" y="1750.0" type="curve" smooth="yes"/>
      <point x="665.0" y="1708.0"/>
      <point x="506.0" y="1700.0"/>
    </contour>
  </outline>
</glyph>
<glyph name="infinity.osf" format="2">
  <advance width="1776.0"/>
  <outline>
    <contour>
      <point x="1309.0" y="166.0" type="curve" smooth="yes"/>
      <point x="1563.0" y="166.0"/>
      <point x="1723.0" y="320.0"/>
      <point x="1723.0" y="560.0" type="curve" smooth="yes"/>
      <point x="1723.0" y="800.0"/>
      <point x="1563.0" y="954.0"/>
      <point x="1309.0" y="954.0" type="curve" smooth="yes"/>
      <point x="832.0" y="954.0"/>
      <point x="746.0" y="422.0"/>
      <point x="501.0" y="422.0" type="curve" smooth="yes"/>
      <point x="419.0" y="422.0"/>
      <point x="368.0" y="476.0"/>
      <point x="368.0" y="560.0" type="curve" smooth="yes"/>
      <point x="368.0" y="644.0"/>
      <point x="419.0" y="698.0"/>
      <point x="501.0" y="698.0" type="curve" smooth="yes"/>
      <point x="746.0" y="698.0"/>
      <point x="832.0" y="166.0"/>
    </contour>
    <contour>
      <point x="467.0" y="166.0" type="curve" smooth="yes"/>
      <point x="942.0" y="166.0"/>
      <point x="1030.0" y="698.0"/>
      <point x="1275.0" y="698.0" type="curve" smooth="yes"/>
      <point x="1357.0" y="698.0"/>
      <point x="1408.0" y="644.0"/>
      <point x="1408.0" y="560.0" type="curve" smooth="yes"/>
      <point x="1408.0" y="476.0"/>
      <point x="1357.0" y="422.0"/>
      <point x="1275.0" y="422.0" type="curve" smooth="yes"/>
      <point x="1030.0" y="422.0"/>
      <point x="942.0" y="954.0"/>
      <point x="467.0" y="954.0" type="curve" smooth="yes"/>
      <point x="213.0" y="954.0"/>
      <point x="53.0" y="800.0"/>
      <point x="53.0" y="560.0" type="curve" smooth="yes"/>
      <point x="53.0" y="320.0"/>
      <point x="213.0" y="166.0"/>
    </contour>
  </outline>
</glyph>
<glyph name="infinity.tf" format="2">
  <advance width="1320.0"/>
  <outline>
    <contour>
      <point x="972.0" y="354.0" type="curve" smooth="yes"/>
      <point x="1160.0" y="354.0"/>
      <point x="1280.0" y="506.0"/>
      <point x="1280.0" y="760.0" type="curve" smooth="yes"/>
      <point x="1280.0" y="1014.0"/>
      <point x="1160.0" y="1166.0"/>
      <point x="972.0" y="1166.0" type="curve" smooth="yes"/>
      <point x="586.0" y="1166.0"/>
      <point x="558.0" y="612.0"/>
      <point x="405.0" y="612.0" type="curve" smooth="yes"/>
      <point x="343.0" y="612.0"/>
      <point x="304.0" y="668.0"/>
      <point x="304.0" y="760.0" type="curve" smooth="yes"/>
      <point x="304.0" y="852.0"/>
      <point x="343.0" y="908.0"/>
      <point x="405.0" y="908.0" type="curve" smooth="yes"/>
      <point x="558.0" y="908.0"/>
      <point x="586.0" y="354.0"/>
    </contour>
    <contour>
      <point x="348.0" y="354.0" type="curve" smooth="yes"/>
      <point x="734.0" y="354.0"/>
      <point x="762.0" y="908.0"/>
      <point x="915.0" y="908.0" type="curve" smooth="yes"/>
      <point x="977.0" y="908.0"/>
      <point x="1016.0" y="852.0"/>
      <point x="1016.0" y="760.0" type="curve" smooth="yes"/>
      <point x="1016.0" y="668.0"/>
      <point x="977.0" y="612.0"/>
      <point x="915.0" y="612.0" type="curve" smooth="yes"/>
      <point x="762.0" y="612.0"/>
      <point x="734.0" y="1166.0"/>
      <point x="348.0" y="1166.0" type="curve" smooth="yes"/>
      <point x="160.0" y="1166.0"/>
      <point x="40.0" y="1014.0"/>
      <point x="40.0" y="760.0" type="curve" smooth="yes"/>
      <point x="40.0" y="506.0"/>
      <point x="160.0" y="354.0"/>
    </contour>
  </outline>
</glyph>
<glyph name="infinity.tosf" format="2">
  <advance width="1320.0"/>
  <outline>
    <contour>
      <point x="972.0" y="154.0" type="curve" smooth="yes"/>
      <point x="1160.0" y="154.0"/>
      <point x="1280.0" y="306.0"/>
      <point x="1280.0" y="560.0" type="curve" smooth="yes"/>
      <point x="1280.0" y="814.0"/>
      <point x="1160.0" y="966.0"/>
      <point x="972.0" y="966.0" type="curve" smooth="yes"/>
      <point x="586.0" y="966.0"/>
      <point x="558.0" y="412.0"/>
      <point x="405.0" y="412.0" type="curve" smooth="yes"/>
      <point x="343.0" y="412.0"/>
      <point x="304.0" y="468.0"/>
      <point x="304.0" y="560.0" type="curve" smooth="yes"/>
      <point x="304.0" y="652.0"/>
      <point x="343.0" y="708.0"/>
      <point x="405.0" y="708.0" type="curve" smooth="yes"/>
      <point x="558.0" y="708.0"/>
      <point x="586.0" y="154.0"/>
    </contour>
    <contour>
      <point x="348.0" y="154.0" type="curve" smooth="yes"/>
      <point x="734.0" y="154.0"/>
      <point x="762.0" y="708.0"/>
      <point x="915.0" y="708.0" type="curve" smooth="yes"/>
      <point x="977.0" y="708.0"/>
      <point x="1016.0" y="652.0"/>
      <point x="1016.0" y="560.0" type="curve" smooth="yes"/>
      <point x="1016.0" y="468.0"/>
      <point x="977.0" y="412.0"/>
      <point x="915.0" y="412.0" type="curve" smooth="yes"/>
      <point x="762.0" y="412.0"/>
      <point x="734.0" y="966.0"/>
      <point x="348.0" y="966.0" type="curve" smooth="yes"/>
      <point x="160.0" y="966.0"/>
      <point x="40.0" y="814.0"/>
      <point x="40.0" y="560.0" type="curve" smooth="yes"/>
      <point x="40.0" y="306.0"/>
      <point x="160.0" y="154.0"/>
    </contour>
  </outline>
</glyph>
<glyph name="j.sc" format="2">
  <advance width="653.0"/>
  <anchor x="534.0" y="0.0" name="bottom"/>
  <anchor x="327.0" y="1230.0" name="top"/>
  <outline>
    <contour>
      <point x="271.0" y="-287.0" type="line"/>
      <point x="475.0" y="-109.0"/>
      <point x="544.0" y="64.0"/>
      <point x="542.0" y="268.0" type="curve"/>
      <point x="542.0" y="1190.0" type="line"/>
      <point x="111.0" y="1190.0" type="line"/>
      <point x="111.0" y="248.0" type="line" smooth="yes"/>
      <point x="111.0" y="88.0"/>
      <point x="88.0" y="-7.0"/>
      <point x="0.0" y="-117.0" type="curve"/>
    </contour>
  </outline>
</glyph>
<glyph name="kip.tf" format="2">
  <advance width="1320.0"/>
  <outline>
    <contour>
      <point x="921.0" y="0.0" type="line"/>
      <point x="1326.0" y="0.0" type="line"/>
      <point x="960.0" y="814.0" type="line"/>
      <point x="953.0" y="704.0" type="line"/>
      <point x="1287.0" y="1480.0" type="line"/>
      <point x="896.0" y="1480.0" type="line"/>
      <point x="589.0" y="752.0" type="line"/>
    </contour>
    <contour>
      <point x="224.0" y="0.0" type="line"/>
      <point x="619.0" y="0.0" type="line"/>
      <point x="619.0" y="1480.0" type="line"/>
      <point x="224.0" y="1480.0" type="line"/>
    </contour>
    <contour>
      <point x="60.0" y="601.0" type="line"/>
      <point x="1227.0" y="601.0" type="line"/>
      <point x="1227.0" y="911.0" type="line"/>
      <point x="60.0" y="911.0" type="line"/>
    </contour>
  </outline>
</glyph>
<glyph name="less.osf" format="2">
  <advance width="1116.0"/>
  <outline>
    <contour>
      <point x="1020.0" y="26.0" type="line"/>
      <point x="1020.0" y="346.0" type="line"/>
      <point x="323.0" y="583.0" type="line"/>
      <point x="323.0" y="542.0" type="line"/>
      <point x="1020.0" y="774.0" type="line"/>
      <point x="1020.0" y="1094.0" type="line"/>
      <point x="96.0" y="764.0" type="line"/>
      <point x="96.0" y="356.0" type="line"/>
    </contour>
  </outline>
</glyph>
<glyph name="lira.tf" format="2">
  <advance width="1320.0"/>
  <outline>
    <contour>
      <point x="250.0" y="124.0" type="line"/>
      <point x="670.0" y="124.0" type="line"/>
      <point x="670.0" y="1004.0" type="line" smooth="yes"/>
      <point x="670.0" y="1118.0"/>
      <point x="728.0" y="1165.0"/>
      <point x="966.0" y="1165.0" type="curve" smooth="yes"/>
      <point x="1061.0" y="1165.0"/>
      <point x="1181.0" y="1149.0"/>
      <point x="1264.0" y="1125.0" type="curve"/>
      <point x="1264.0" y="1462.0" type="line"/>
      <point x="1174.0" y="1484.0"/>
      <point x="1053.0" y="1500.0"/>
      <point x="926.0" y="1500.0" type="curve" smooth="yes"/>
      <point x="461.0" y="1500.0"/>
      <point x="250.0" y="1313.0"/>
      <point x="250.0" y="986.0" type="curve" smooth="yes"/>
    </contour>
    <contour>
      <point x="70.0" y="0.0" type="line"/>
      <point x="1311.0" y="0.0" type="line"/>
      <point x="1311.0" y="317.0" type="line"/>
      <point x="70.0" y="317.0" type="line"/>
    </contour>
    <contour>
      <point x="70.0" y="453.0" type="line"/>
      <point x="1064.0" y="453.0" type="line"/>
      <point x="1064.0" y="695.0" type="line"/>
      <point x="70.0" y="695.0" type="line"/>
    </contour>
    <contour>
      <point x="70.0" y="785.0" type="line"/>
      <point x="1064.0" y="785.0" type="line"/>
      <point x="1064.0" y="1027.0" type="line"/>
      <point x="70.0" y="1027.0" type="line"/>
    </contour>
  </outline>
</glyph>
<glyph name="liraTurkish.tf" format="2">
  <advance width="1320.0"/>
  <outline>
    <contour>
      <point x="876.0" y="-20.0" type="curve" smooth="yes"/>
      <point x="1017.0" y="-20.0"/>
      <point x="1176.0" y="-4.0"/>
      <point x="1271.0" y="18.0" type="curve"/>
      <point x="1271.0" y="355.0" type="line"/>
      <point x="1181.0" y="331.0"/>
      <point x="1018.0" y="315.0"/>
      <point x="899.0" y="315.0" type="curve" smooth="yes"/>
      <point x="706.0" y="315.0"/>
      <point x="660.0" y="352.0"/>
      <point x="660.0" y="476.0" type="curve" smooth="yes"/>
      <point x="660.0" y="1480.0" type="line"/>
      <point x="240.0" y="1480.0" type="line"/>
      <point x="240.0" y="434.0" type="line" smooth="yes"/>
      <point x="240.0" y="107.0"/>
      <point x="415.0" y="-20.0"/>
    </contour>
    <contour>
      <point x="60.0" y="461.0" type="line"/>
      <point x="1071.0" y="806.0" type="line"/>
      <point x="1071.0" y="1050.0" type="line"/>
      <point x="60.0" y="705.0" type="line"/>
    </contour>
    <contour>
      <point x="60.0" y="795.0" type="line"/>
      <point x="1071.0" y="1140.0" type="line"/>
      <point x="1071.0" y="1384.0" type="line"/>
      <point x="60.0" y="1039.0" type="line"/>
    </contour>
  </outline>
</glyph>
<glyph name="logicalnot.tosf" format="2">
  <advance width="1320.0"/>
  <outline>
    <contour>
      <point x="898.0" y="0.0" type="line"/>
      <point x="1232.0" y="0.0" type="line"/>
      <point x="1232.0" y="720.0" type="line"/>
      <point x="87.0" y="720.0" type="line"/>
      <point x="87.0" y="400.0" type="line"/>
      <point x="898.0" y="400.0" type="line"/>
    </contour>
  </outline>
</glyph>
<glyph name="m.sc" format="2">
  <advance width="1777.0"/>
  <anchor x="918.0" y="0.0" name="bottom"/>
  <anchor x="918.0" y="1230.0" name="top"/>
  <outline>
    <contour>
      <point x="115.0" y="0.0" type="line"/>
      <point x="510.0" y="0.0" type="line"/>
      <point x="510.0" y="828.0" type="line"/>
      <point x="423.0" y="828.0" type="line"/>
      <point x="721.0" y="180.0" type="line"/>
      <point x="1056.0" y="180.0" type="line"/>
      <point x="1335.0" y="828.0" type="line"/>
      <point x="1267.0" y="828.0" type="line"/>
      <point x="1267.0" y="0.0" type="line"/>
      <point x="1662.0" y="0.0" type="line"/>
      <point x="1662.0" y="1190.0" type="line"/>
      <point x="1143.0" y="1190.0" type="line"/>
      <point x="876.0" y="556.0" type="line"/>
      <point x="914.0" y="556.0" type="line"/>
      <point x="634.0" y="1190.0" type="line"/>
      <point x="115.0" y="1190.0" type="line"/>
    </contour>
  </outline>
</glyph>
<glyph name="macroncomb.case" format="2">
  <anchor x="600.0" y="1520.0" name="_top"/>
  <anchor x="600.0" y="1920.0" name="top"/>
  <outline>
    <contour>
      <point x="190.0" y="1621.0" type="line"/>
      <point x="1010.0" y="1621.0" type="line"/>
      <point x="1010.0" y="1869.0" type="line"/>
      <point x="190.0" y="1869.0" type="line"/>
    </contour>
  </outline>
</glyph>
<glyph name="macroncomb_acutecomb.case" format="2">
  <outline>
    <contour>
      <point x="385.0" y="1986.0" type="line"/>
      <point x="815.0" y="1986.0" type="line"/>
      <point x="1060.0" y="2218.0" type="line"/>
      <point x="568.0" y="2218.0" type="line"/>
    </contour>
    <component base="macroncomb.case"/>
  </outline>
</glyph>
<glyph name="minus.tf" format="2">
  <advance width="1320.0"/>
  <outline>
    <contour>
      <point x="198.0" y="600.0" type="line"/>
      <point x="1122.0" y="600.0" type="line"/>
      <point x="1122.0" y="920.0" type="line"/>
      <point x="198.0" y="920.0" type="line"/>
    </contour>
  </outline>
</glyph>
<glyph name="multiply.tf" format="2">
  <advance width="1320.0"/>
  <outline>
    <contour>
      <point x="418.0" y="292.0" type="line"/>
      <point x="660.0" y="534.0" type="line"/>
      <point x="902.0" y="292.0" type="line"/>
      <point x="1128.0" y="518.0" type="line"/>
      <point x="886.0" y="760.0" type="line"/>
      <point x="1128.0" y="1002.0" type="line"/>
      <point x="902.0" y="1228.0" type="line"/>
      <point x="660.0" y="986.0" type="line"/>
      <point x="418.0" y="1228.0" type="line"/>
      <point x="192.0" y="1002.0" type="line"/>
      <point x="434.0" y="760.0" type="line"/>
      <point x="192.0" y="518.0" type="line"/>
    </contour>
  </outline>
</glyph>
<glyph name="naira.tf" format="2">
  <advance width="1320.0"/>
  <outline>
    <contour>
      <point x="240.0" y="0.0" type="line"/>
      <point x="554.0" y="0.0" type="line"/>
      <point x="554.0" y="930.0" type="line"/>
      <point x="466.0" y="930.0" type="line"/>
      <point x="763.0" y="0.0" type="line"/>
      <point x="1080.0" y="0.0" type="line"/>
      <point x="1082.0" y="1480.0" type="line"/>
      <point x="768.0" y="1480.0" type="line"/>
      <point x="768.0" y="550.0" type="line"/>
      <point x="852.0" y="550.0" type="line"/>
      <point x="555.0" y="1480.0" type="line"/>
      <point x="240.0" y="1480.0" type="line"/>
    </contour>
    <contour>
      <point x="60.0" y="463.0" type="line"/>
      <point x="382.0" y="463.0" type="line"/>
      <point x="382.0" y="705.0" type="line"/>
      <point x="60.0" y="705.0" type="line"/>
    </contour>
    <contour>
      <point x="60.0" y="795.0" type="line"/>
      <point x="382.0" y="795.0" type="line"/>
      <point x="382.0" y="1037.0" type="line"/>
      <point x="60.0" y="1037.0" type="line"/>
    </contour>
    <contour>
      <point x="928.0" y="463.0" type="line"/>
      <point x="1260.0" y="463.0" type="line"/>
      <point x="1260.0" y="705.0" type="line"/>
      <point x="928.0" y="705.0" type="line"/>
    </contour>
    <contour>
      <point x="928.0" y="795.0" type="line"/>
      <point x="1260.0" y="795.0" type="line"/>
      <point x="1260.0" y="1037.0" type="line"/>
      <point x="928.0" y="1037.0" type="line"/>
    </contour>
  </outline>
</glyph>
<glyph name="nine.osf" format="2">
  <advance width="1314.0"/>
  <outline>
    <contour>
      <point x="459.0" y="-420.0" type="curve" smooth="yes"/>
      <point x="952.0" y="-420.0"/>
      <point x="1234.0" y="-148.0"/>
      <point x="1234.0" y="399.0" type="curve" smooth="yes"/>
      <point x="1234.0" y="902.0"/>
      <point x="983.0" y="1120.0"/>
      <point x="614.0" y="1120.0" type="curve" smooth="yes"/>
      <point x="264.0" y="1120.0"/>
      <point x="54.0" y="932.0"/>
      <point x="54.0" y="633.0" type="curve" smooth="yes"/>
      <point x="54.0" y="308.0"/>
      <point x="266.0" y="172.0"/>
      <point x="538.0" y="172.0" type="curve" smooth="yes"/>
      <point x="671.0" y="172.0"/>
      <point x="807.0" y="215.0"/>
      <point x="879.0" y="289.0" type="curve"/>
      <point x="879.0" y="576.0" type="line"/>
      <point x="809.0" y="507.0"/>
      <point x="719.0" y="476.0"/>
      <point x="627.0" y="476.0" type="curve" smooth="yes"/>
      <point x="515.0" y="476.0"/>
      <point x="443.0" y="526.0"/>
      <point x="443.0" y="645.0" type="curve" smooth="yes"/>
      <point x="443.0" y="761.0"/>
      <point x="511.0" y="814.0"/>
      <point x="612.0" y="814.0" type="curve" smooth="yes"/>
      <point x="737.0" y="814.0"/>
      <point x="814.0" y="745.0"/>
      <point x="814.0" y="472.0" type="curve" smooth="yes"/>
      <point x="814.0" y="280.0" type="line" smooth="yes"/>
      <point x="814.0" y="30.0"/>
      <point x="696.0" y="-95.0"/>
      <point x="436.0" y="-95.0" type="curve" smooth="yes"/>
      <point x="329.0" y="-95.0"/>
      <point x="229.0" y="-80.0"/>
      <point x="135.0" y="-49.0" type="curve"/>
      <point x="135.0" y="-374.0" type="line"/>
      <point x="228.0" y="-408.0"/>
      <point x="337.0" y="-420.0"/>
    </contour>
  </outline>
</glyph>
<glyph name="notequal.osf" format="2">
  <advance width="1116.0"/>
  <outline>
    <contour>
      <point x="418.0" y="-111.0" type="line"/>
      <point x="980.0" y="1094.0" type="line"/>
      <point x="698.0" y="1231.0" type="line"/>
      <point x="136.0" y="26.0" type="line"/>
    </contour>
    <contour>
      <point x="96.0" y="160.0" type="line"/>
      <point x="1020.0" y="160.0" type="line"/>
      <point x="1020.0" y="480.0" type="line"/>
      <point x="96.0" y="480.0" type="line"/>
    </contour>
    <contour>
      <point x="96.0" y="640.0" type="line"/>
      <point x="1020.0" y="640.0" type="line"/>
      <point x="1020.0" y="960.0" type="line"/>
      <point x="96.0" y="960.0" type="line"/>
    </contour>
  </outline>
</glyph>
<glyph name="notequal.tf" format="2">
  <advance width="1320.0"/>
  <outline>
    <contour>
      <point x="520.0" y="89.0" type="line"/>
      <point x="1082.0" y="1294.0" type="line"/>
      <point x="800.0" y="1431.0" type="line"/>
      <point x="238.0" y="226.0" type="line"/>
    </contour>
    <contour>
      <point x="198.0" y="360.0" type="line"/>
      <point x="1122.0" y="360.0" type="line"/>
      <point x="1122.0" y="680.0" type="line"/>
      <point x="198.0" y="680.0" type="line"/>
    </contour>
    <contour>
      <point x="198.0" y="840.0" type="line"/>
      <point x="1122.0" y="840.0" type="line"/>
      <point x="1122.0" y="1160.0" type="line"/>
      <point x="198.0" y="1160.0" type="line"/>
    </contour>
  </outline>
</glyph>
<glyph name="ogonekcomb.case" format="2">
  <anchor x="516.0" y="0.0" name="_ogonek"/>
  <outline>
    <contour>
      <point x="346.0" y="-460.0" type="curve" smooth="yes"/>
      <point x="425.0" y="-460.0"/>
      <point x="484.0" y="-448.0"/>
      <point x="539.0" y="-430.0" type="curve"/>
      <point x="539.0" y="-275.0" type="line"/>
      <point x="487.0" y="-293.0"/>
      <point x="443.0" y="-300.0"/>
      <point x="408.0" y="-300.0" type="curve" smooth="yes"/>
      <point x="310.0" y="-300.0"/>
      <point x="270.0" y="-264.0"/>
      <point x="270.0" y="-206.0" type="curve" smooth="yes"/>
      <point x="270.0" y="-133.0"/>
      <point x="320.0" y="-66.0"/>
      <point x="516.0" y="0.0" type="curve"/>
      <point x="404.0" y="82.0" type="line"/>
      <point x="124.0" y="3.0"/>
      <point x="34.0" y="-104.0"/>
      <point x="34.0" y="-236.0" type="curve" smooth="yes"/>
      <point x="34.0" y="-372.0"/>
      <point x="133.0" y="-460.0"/>
    </contour>
  </outline>
</glyph>
<glyph name="one.tosf" format="2">
  <advance width="1320.0"/>
  <outline>
    <contour>
      <point x="504.0" y="0.0" type="line"/>
      <point x="938.0" y="0.0" type="line"/>
      <point x="938.0" y="1106.0" type="line"/>
      <point x="658.0" y="1106.0" type="line"/>
      <point x="201.0" y="897.0" type="line"/>
      <point x="201.0" y="538.0" type="line"/>
      <point x="658.0" y="747.0" type="line"/>
      <point x="504.0" y="864.0" type="line"/>
    </contour>
    <contour>
      <point x="194.0" y="0.0" type="line"/>
      <point x="1233.0" y="0.0" type="line"/>
      <point x="1233.0" y="336.0" type="line"/>
      <point x="194.0" y="336.0" type="line"/>
    </contour>
  </outline>
</glyph>
<glyph name="oogonek.sc" format="2">
  <advance width="1469.0"/>
  <anchor x="734.0" y="1230.0" name="top"/>
  <outline>
    <contour>
      <point x="808.0" y="-460.0" type="curve" smooth="yes"/>
      <point x="887.0" y="-460.0"/>
      <point x="946.0" y="-448.0"/>
      <point x="1001.0" y="-430.0" type="curve"/>
      <point x="1001.0" y="-275.0" type="line"/>
      <point x="949.0" y="-293.0"/>
      <point x="905.0" y="-300.0"/>
      <point x="870.0" y="-300.0" type="curve" smooth="yes"/>
      <point x="772.0" y="-300.0"/>
      <point x="732.0" y="-264.0"/>
      <point x="732.0" y="-198.0" type="curve" smooth="yes"/>
      <point x="732.0" y="-127.0"/>
      <point x="781.0" y="-52.0"/>
      <point x="995.0" y="19.0" type="curve" smooth="yes"/>
      <point x="1254.0" y="101.0"/>
      <point x="1409.0" y="292.0"/>
      <point x="1409.0" y="594.0" type="curve" smooth="yes"/>
      <point x="1409.0" y="988.0"/>
      <point x="1144.0" y="1206.0"/>
      <point x="734.0" y="1206.0" type="curve" smooth="yes"/>
      <point x="324.0" y="1206.0"/>
      <point x="60.0" y="989.0"/>
      <point x="60.0" y="594.0" type="curve" smooth="yes"/>
      <point x="60.0" y="200.0"/>
      <point x="325.0" y="-16.0"/>
      <point x="734.0" y="-16.0" type="curve" smooth="yes"/>
      <point x="802.0" y="-16.0" type="line"/>
      <point x="818.0" y="67.0" type="line"/>
      <point x="574.0" y="-10.0"/>
      <point x="496.0" y="-113.0"/>
      <point x="496.0" y="-236.0" type="curve" smooth="yes"/>
      <point x="496.0" y="-372.0"/>
      <point x="595.0" y="-460.0"/>
    </contour>
    <contour>
      <point x="734.0" y="306.0" type="curve" smooth="yes"/>
      <point x="577.0" y="306.0"/>
      <point x="499.0" y="395.0"/>
      <point x="499.0" y="602.0" type="curve" smooth="yes"/>
      <point x="499.0" y="795.0"/>
      <point x="580.0" y="884.0"/>
      <point x="734.0" y="884.0" type="curve" smooth="yes"/>
      <point x="889.0" y="884.0"/>
      <point x="970.0" y="792.0"/>
      <point x="970.0" y="588.0" type="curve" smooth="yes"/>
      <point x="970.0" y="398.0"/>
      <point x="892.0" y="306.0"/>
    </contour>
  </outline>
</glyph>
<glyph name="parenleft.sc" format="2">
  <advance width="754.0"/>
  <outline>
    <contour>
      <point x="346.0" y="-240.0" type="curve"/>
      <point x="759.0" y="-240.0" type="line"/>
      <point x="594.0" y="15.0"/>
      <point x="524.0" y="290.0"/>
      <point x="524.0" y="604.0" type="curve" smooth="yes"/>
      <point x="524.0" y="932.0"/>
      <point x="598.0" y="1217.0"/>
      <point x="773.0" y="1480.0" type="curve"/>
      <point x="360.0" y="1480.0" type="line"/>
      <point x="156.0" y="1234.0"/>
      <point x="89.0" y="929.0"/>
      <point x="89.0" y="604.0" type="curve" smooth="yes"/>
      <point x="89.0" y="293.0"/>
      <point x="156.0" y="-1.0"/>
    </contour>
  </outline>
</glyph>
<glyph name="parenright.sc" format="2">
  <advance width="754.0"/>
  <outline>
    <contour>
      <point x="408.0" y="-240.0" type="line"/>
      <point x="598.0" y="-1.0"/>
      <point x="665.0" y="293.0"/>
      <point x="665.0" y="604.0" type="curve" smooth="yes"/>
      <point x="665.0" y="929.0"/>
      <point x="598.0" y="1234.0"/>
      <point x="394.0" y="1480.0" type="curve"/>
      <point x="-19.0" y="1480.0" type="line"/>
      <point x="156.0" y="1217.0"/>
      <point x="230.0" y="932.0"/>
      <point x="230.0" y="604.0" type="curve" smooth="yes"/>
      <point x="230.0" y="290.0"/>
      <point x="160.0" y="15.0"/>
      <point x="-5.0" y="-240.0" type="curve"/>
    </contour>
  </outline>
</glyph>
<glyph name="partialdiff.tf" format="2">
  <advance width="1320.0"/>
  <outline>
    <contour>
      <point x="629.0" y="-20.0" type="curve" smooth="yes"/>
      <point x="998.0" y="-20.0"/>
      <point x="1249.0" y="198.0"/>
      <point x="1249.0" y="692.0" type="curve" smooth="yes"/>
      <point x="1249.0" y="1228.0"/>
      <point x="967.0" y="1500.0"/>
      <point x="474.0" y="1500.0" type="curve" smooth="yes"/>
      <point x="352.0" y="1500.0"/>
      <point x="243.0" y="1488.0"/>
      <point x="150.0" y="1454.0" type="curve"/>
      <point x="150.0" y="1129.0" type="line"/>
      <point x="244.0" y="1160.0"/>
      <point x="344.0" y="1175.0"/>
      <point x="451.0" y="1175.0" type="curve" smooth="yes"/>
      <point x="711.0" y="1175.0"/>
      <point x="829.0" y="1050.0"/>
      <point x="829.0" y="808.0" type="curve" smooth="yes"/>
      <point x="829.0" y="622.0" type="line" smooth="yes"/>
      <point x="829.0" y="355.0"/>
      <point x="752.0" y="286.0"/>
      <point x="627.0" y="286.0" type="curve" smooth="yes"/>
      <point x="526.0" y="286.0"/>
      <point x="458.0" y="339.0"/>
      <point x="458.0" y="489.0" type="curve" smooth="yes"/>
      <point x="458.0" y="642.0"/>
      <point x="530.0" y="692.0"/>
      <point x="642.0" y="692.0" type="curve" smooth="yes"/>
      <point x="734.0" y="692.0"/>
      <point x="824.0" y="661.0"/>
      <point x="894.0" y="592.0" type="curve"/>
      <point x="894.0" y="879.0" type="line"/>
      <point x="822.0" y="953.0"/>
      <point x="686.0" y="996.0"/>
      <point x="553.0" y="996.0" type="curve" smooth="yes"/>
      <point x="281.0" y="996.0"/>
      <point x="69.0" y="860.0"/>
      <point x="69.0" y="501.0" type="curve" smooth="yes"/>
      <point x="69.0" y="168.0"/>
      <point x="279.0" y="-20.0"/>
    </contour>
  </outline>
</glyph>
<glyph name="percent.tf" format="2">
  <advance width="1320.0"/>
  <note>
450
</note>
  <outline>
    <contour>
      <point x="94.0" y="96.0" type="line"/>
      <point x="1226.0" y="1094.0" type="line"/>
      <point x="1226.0" y="1384.0" type="line"/>
      <point x="94.0" y="386.0" type="line"/>
    </contour>
    <contour>
      <point x="933.0" y="-20.0" type="curve" smooth="yes"/>
      <point x="1155.0" y="-20.0"/>
      <point x="1280.0" y="126.0"/>
      <point x="1280.0" y="310.0" type="curve" smooth="yes"/>
      <point x="1280.0" y="494.0"/>
      <point x="1155.0" y="640.0"/>
      <point x="933.0" y="640.0" type="curve" smooth="yes"/>
      <point x="711.0" y="640.0"/>
      <point x="585.0" y="494.0"/>
      <point x="585.0" y="310.0" type="curve" smooth="yes"/>
      <point x="585.0" y="126.0"/>
      <point x="711.0" y="-20.0"/>
    </contour>
    <contour>
      <point x="933.0" y="180.0" type="curve" smooth="yes"/>
      <point x="872.0" y="180.0"/>
      <point x="833.0" y="225.0"/>
      <point x="833.0" y="310.0" type="curve" smooth="yes"/>
      <point x="833.0" y="395.0"/>
      <point x="872.0" y="440.0"/>
      <point x="933.0" y="440.0" type="curve" smooth="yes"/>
      <point x="994.0" y="440.0"/>
      <point x="1032.0" y="395.0"/>
      <point x="1032.0" y="310.0" type="curve" smooth="yes"/>
      <point x="1032.0" y="225.0"/>
      <point x="994.0" y="180.0"/>
    </contour>
    <contour>
      <point x="388.0" y="840.0" type="curve" smooth="yes"/>
      <point x="610.0" y="840.0"/>
      <point x="735.0" y="986.0"/>
      <point x="735.0" y="1170.0" type="curve" smooth="yes"/>
      <point x="735.0" y="1354.0"/>
      <point x="610.0" y="1500.0"/>
      <point x="388.0" y="1500.0" type="curve" smooth="yes"/>
      <point x="166.0" y="1500.0"/>
      <point x="40.0" y="1354.0"/>
      <point x="40.0" y="1170.0" type="curve" smooth="yes"/>
      <point x="40.0" y="986.0"/>
      <point x="166.0" y="840.0"/>
    </contour>
    <contour>
      <point x="388.0" y="1040.0" type="curve" smooth="yes"/>
      <point x="327.0" y="1040.0"/>
      <point x="288.0" y="1085.0"/>
      <point x="288.0" y="1170.0" type="curve" smooth="yes"/>
      <point x="288.0" y="1255.0"/>
      <point x="327.0" y="1300.0"/>
      <point x="388.0" y="1300.0" type="curve" smooth="yes"/>
      <point x="449.0" y="1300.0"/>
      <point x="487.0" y="1255.0"/>
      <point x="487.0" y="1170.0" type="curve" smooth="yes"/>
      <point x="487.0" y="1085.0"/>
      <point x="449.0" y="1040.0"/>
    </contour>
  </outline>
</glyph>
<glyph name="period.tf" format="2">
  <advance width="660.0"/>
  <outline>
    <contour>
      <point x="330.0" y="-20.0" type="curve" smooth="yes"/>
      <point x="493.0" y="-20.0"/>
      <point x="598.0" y="79.0"/>
      <point x="598.0" y="229.0" type="curve" smooth="yes"/>
      <point x="598.0" y="379.0"/>
      <point x="497.0" y="478.0"/>
      <point x="330.0" y="478.0" type="curve" smooth="yes"/>
      <point x="163.0" y="478.0"/>
      <point x="62.0" y="383.0"/>
      <point x="62.0" y="229.0" type="curve" smooth="yes"/>
      <point x="62.0" y="75.0"/>
      <point x="167.0" y="-20.0"/>
    </contour>
  </outline>
</glyph>
<glyph name="periodcentered.CAT" format="2">
  <advance width="578.0"/>
  <anchor x="290.0" y="740.0" name="_periodcentered"/>
  <outline>
    <contour>
      <point x="290.0" y="530.0" type="curve" smooth="yes"/>
      <point x="466.0" y="530.0"/>
      <point x="544.0" y="606.0"/>
      <point x="544.0" y="740.0" type="curve" smooth="yes"/>
      <point x="544.0" y="874.0"/>
      <point x="466.0" y="950.0"/>
      <point x="290.0" y="950.0" type="curve" smooth="yes"/>
      <point x="114.0" y="950.0"/>
      <point x="36.0" y="874.0"/>
      <point x="36.0" y="740.0" type="curve" smooth="yes"/>
      <point x="36.0" y="606.0"/>
      <point x="114.0" y="530.0"/>
    </contour>
  </outline>
</glyph>
<glyph name="periodcentered.tf" format="2">
  <advance width="660.0"/>
  <outline>
    <contour>
      <point x="330.0" y="311.0" type="curve" smooth="yes"/>
      <point x="493.0" y="311.0"/>
      <point x="598.0" y="410.0"/>
      <point x="598.0" y="560.0" type="curve" smooth="yes"/>
      <point x="598.0" y="710.0"/>
      <point x="497.0" y="809.0"/>
      <point x="330.0" y="809.0" type="curve" smooth="yes"/>
      <point x="163.0" y="809.0"/>
      <point x="62.0" y="714.0"/>
      <point x="62.0" y="560.0" type="curve" smooth="yes"/>
      <point x="62.0" y="406.0"/>
      <point x="167.0" y="311.0"/>
    </contour>
  </outline>
</glyph>
<glyph name="perthousand.tf" format="2">
  <advance width="1320.0"/>
  <note>
450
</note>
  <outline>
    <contour>
      <point x="417.0" y="880.0" type="curve" smooth="yes"/>
      <point x="645.0" y="880.0"/>
      <point x="794.0" y="1001.0"/>
      <point x="794.0" y="1190.0" type="curve" smooth="yes"/>
      <point x="794.0" y="1379.0"/>
      <point x="645.0" y="1500.0"/>
      <point x="417.0" y="1500.0" type="curve" smooth="yes"/>
      <point x="190.0" y="1500.0"/>
      <point x="40.0" y="1379.0"/>
      <point x="40.0" y="1190.0" type="curve" smooth="yes"/>
      <point x="40.0" y="1001.0"/>
      <point x="190.0" y="880.0"/>
    </contour>
    <contour>
      <point x="417.0" y="1077.0" type="curve" smooth="yes"/>
      <point x="348.0" y="1077.0"/>
      <point x="308.0" y="1121.0"/>
      <point x="308.0" y="1190.0" type="curve" smooth="yes"/>
      <point x="308.0" y="1260.0"/>
      <point x="348.0" y="1304.0"/>
      <point x="417.0" y="1304.0" type="curve" smooth="yes"/>
      <point x="486.0" y="1304.0"/>
      <point x="525.0" y="1261.0"/>
      <point x="525.0" y="1190.0" type="curve" smooth="yes"/>
      <point x="525.0" y="1120.0"/>
      <point x="486.0" y="1077.0"/>
    </contour>
    <contour>
      <point x="80.0" y="601.0" type="line"/>
      <point x="1240.0" y="759.0" type="line"/>
      <point x="1240.0" y="954.0" type="line"/>
      <point x="80.0" y="796.0" type="line"/>
    </contour>
    <contour>
      <point x="402.0" y="-20.0" type="curve" smooth="yes"/>
      <point x="632.0" y="-20.0"/>
      <point x="754.0" y="107.0"/>
      <point x="754.0" y="290.0" type="curve" smooth="yes"/>
      <point x="754.0" y="473.0"/>
      <point x="632.0" y="600.0"/>
      <point x="402.0" y="600.0" type="curve" smooth="yes"/>
      <point x="190.0" y="600.0"/>
      <point x="40.0" y="479.0"/>
      <point x="40.0" y="290.0" type="curve" smooth="yes"/>
      <point x="40.0" y="101.0"/>
      <point x="190.0" y="-20.0"/>
    </contour>
    <contour>
      <point x="417.0" y="177.0" type="curve" smooth="yes"/>
      <point x="348.0" y="177.0"/>
      <point x="308.0" y="221.0"/>
      <point x="308.0" y="290.0" type="curve" smooth="yes"/>
      <point x="308.0" y="360.0"/>
      <point x="348.0" y="404.0"/>
      <point x="417.0" y="404.0" type="curve" smooth="yes"/>
      <point x="486.0" y="404.0"/>
      <point x="525.0" y="361.0"/>
      <point x="525.0" y="290.0" type="curve" smooth="yes"/>
      <point x="525.0" y="220.0"/>
      <point x="486.0" y="177.0"/>
    </contour>
    <contour>
      <point x="918.0" y="-20.0" type="curve" smooth="yes"/>
      <point x="1131.0" y="-20.0"/>
      <point x="1280.0" y="101.0"/>
      <point x="1280.0" y="290.0" type="curve" smooth="yes"/>
      <point x="1280.0" y="479.0"/>
      <point x="1131.0" y="600.0"/>
      <point x="918.0" y="600.0" type="curve" smooth="yes"/>
      <point x="699.0" y="600.0"/>
      <point x="566.0" y="473.0"/>
      <point x="566.0" y="290.0" type="curve" smooth="yes"/>
      <point x="566.0" y="107.0"/>
      <point x="699.0" y="-20.0"/>
    </contour>
    <contour>
      <point x="903.0" y="177.0" type="curve" smooth="yes"/>
      <point x="834.0" y="177.0"/>
      <point x="794.0" y="221.0"/>
      <point x="794.0" y="290.0" type="curve" smooth="yes"/>
      <point x="794.0" y="360.0"/>
      <point x="834.0" y="404.0"/>
      <point x="903.0" y="404.0" type="curve" smooth="yes"/>
      <point x="972.0" y="404.0"/>
      <point x="1011.0" y="361.0"/>
      <point x="1011.0" y="290.0" type="curve" smooth="yes"/>
      <point x="1011.0" y="220.0"/>
      <point x="972.0" y="177.0"/>
    </contour>
  </outline>
</glyph>
<glyph name="peso.tf" format="2">
  <advance width="1320.0"/>
  <outline>
    <contour>
      <point x="239.0" y="0.0" type="line"/>
      <point x="624.0" y="0.0" type="line"/>
      <point x="624.0" y="396.0" type="line"/>
      <point x="640.0" y="396.0"/>
      <point x="655.0" y="394.0"/>
      <point x="669.0" y="394.0" type="curve" smooth="yes"/>
      <point x="895.0" y="394.0"/>
      <point x="1091.0" y="543.0"/>
      <point x="1091.0" y="946.0" type="curve" smooth="yes"/>
      <point x="1091.0" y="1367.0"/>
      <point x="895.0" y="1500.0"/>
      <point x="587.0" y="1500.0" type="curve" smooth="yes"/>
      <point x="461.0" y="1500.0"/>
      <point x="346.0" y="1479.0"/>
      <point x="239.0" y="1448.0" type="curve"/>
    </contour>
    <contour>
      <point x="59.0" y="659.0" type="line"/>
      <point x="441.0" y="659.0" type="line"/>
      <point x="441.0" y="901.0" type="line"/>
      <point x="59.0" y="901.0" type="line"/>
    </contour>
    <contour>
      <point x="59.0" y="991.0" type="line"/>
      <point x="441.0" y="991.0" type="line"/>
      <point x="441.0" y="1233.0" type="line"/>
      <point x="59.0" y="1233.0" type="line"/>
    </contour>
    <contour>
      <point x="661.0" y="698.0" type="curve" smooth="yes"/>
      <point x="647.0" y="698.0"/>
      <point x="636.0" y="700.0"/>
      <point x="624.0" y="703.0" type="curve"/>
      <point x="624.0" y="1190.0" type="line"/>
      <point x="636.0" y="1194.0"/>
      <point x="645.0" y="1196.0"/>
      <point x="661.0" y="1196.0" type="curve" smooth="yes"/>
      <point x="702.0" y="1196.0"/>
      <point x="743.0" y="1168.0"/>
      <point x="743.0" y="948.0" type="curve" smooth="yes"/>
      <point x="743.0" y="728.0"/>
      <point x="702.0" y="698.0"/>
    </contour>
    <contour>
      <point x="877.0" y="659.0" type="line"/>
      <point x="1259.0" y="659.0" type="line"/>
      <point x="1259.0" y="901.0" type="line"/>
      <point x="877.0" y="901.0" type="line"/>
    </contour>
    <contour>
      <point x="877.0" y="991.0" type="line"/>
      <point x="1259.0" y="991.0" type="line"/>
      <point x="1259.0" y="1233.0" type="line"/>
      <point x="877.0" y="1233.0" type="line"/>
    </contour>
  </outline>
</glyph>
<glyph name="pi.tf" format="2">
  <advance width="1320.0"/>
  <outline>
    <contour>
      <point x="1087.0" y="-21.0" type="curve" smooth="yes"/>
      <point x="1181.0" y="-21.0"/>
      <point x="1260.0" y="-9.0"/>
      <point x="1320.0" y="5.0" type="curve"/>
      <point x="1320.0" y="335.0" type="line"/>
      <point x="1278.0" y="329.0"/>
      <point x="1247.0" y="325.0"/>
      <point x="1216.0" y="325.0" type="curve" smooth="yes"/>
      <point x="1138.0" y="325.0"/>
      <point x="1100.0" y="363.0"/>
      <point x="1100.0" y="451.0" type="curve" smooth="yes"/>
      <point x="1100.0" y="908.0" type="line"/>
      <point x="695.0" y="908.0" type="line"/>
      <point x="695.0" y="375.0" type="line" smooth="yes"/>
      <point x="695.0" y="117.0"/>
      <point x="834.0" y="-21.0"/>
    </contour>
    <contour>
      <point x="140.0" y="0.0" type="line"/>
      <point x="545.0" y="0.0" type="line"/>
      <point x="545.0" y="911.0" type="line"/>
      <point x="140.0" y="911.0" type="line"/>
    </contour>
    <contour>
      <point x="0.0" y="770.0" type="line"/>
      <point x="1240.0" y="770.0" type="line"/>
      <point x="1240.0" y="1100.0" type="line"/>
      <point x="0.0" y="1100.0" type="line"/>
    </contour>
  </outline>
</glyph>
<glyph name="plus.osf" format="2">
  <advance width="1116.0"/>
  <outline>
    <contour>
      <point x="391.0" y="94.0" type="line"/>
      <point x="725.0" y="94.0" type="line"/>
      <point x="725.0" y="400.0" type="line"/>
      <point x="1020.0" y="400.0" type="line"/>
      <point x="1020.0" y="720.0" type="line"/>
      <point x="725.0" y="720.0" type="line"/>
      <point x="725.0" y="1026.0" type="line"/>
      <point x="391.0" y="1026.0" type="line"/>
      <point x="391.0" y="720.0" type="line"/>
      <point x="96.0" y="720.0" type="line"/>
      <point x="96.0" y="400.0" type="line"/>
      <point x="391.0" y="400.0" type="line"/>
    </contour>
  </outline>
</glyph>
<glyph name="plus.tosf" format="2">
  <advance width="1320.0"/>
  <outline>
    <contour>
      <point x="493.0" y="94.0" type="line"/>
      <point x="827.0" y="94.0" type="line"/>
      <point x="827.0" y="400.0" type="line"/>
      <point x="1122.0" y="400.0" type="line"/>
      <point x="1122.0" y="720.0" type="line"/>
      <point x="827.0" y="720.0" type="line"/>
      <point x="827.0" y="1026.0" type="line"/>
      <point x="493.0" y="1026.0" type="line"/>
      <point x="493.0" y="720.0" type="line"/>
      <point x="198.0" y="720.0" type="line"/>
      <point x="198.0" y="400.0" type="line"/>
      <point x="493.0" y="400.0" type="line"/>
    </contour>
  </outline>
</glyph>
<glyph name="plusminus.tosf" format="2">
  <advance width="1320.0"/>
  <outline>
    <contour>
      <point x="493.0" y="356.0" type="line"/>
      <point x="827.0" y="356.0" type="line"/>
      <point x="827.0" y="581.0" type="line"/>
      <point x="1122.0" y="581.0" type="line"/>
      <point x="1122.0" y="875.0" type="line"/>
      <point x="827.0" y="875.0" type="line"/>
      <point x="827.0" y="1100.0" type="line"/>
      <point x="493.0" y="1100.0" type="line"/>
      <point x="493.0" y="875.0" type="line"/>
      <point x="198.0" y="875.0" type="line"/>
      <point x="198.0" y="581.0" type="line"/>
      <point x="493.0" y="581.0" type="line"/>
    </contour>
    <contour>
      <point x="198.0" y="0.0" type="line"/>
      <point x="1122.0" y="0.0" type="line"/>
      <point x="1122.0" y="296.0" type="line"/>
      <point x="198.0" y="296.0" type="line"/>
    </contour>
  </outline>
</glyph>
<glyph name="quotesingle.tf" format="2">
  <advance width="660.0"/>
  <outline>
    <contour>
      <point x="200.0" y="798.0" type="line"/>
      <point x="460.0" y="798.0" type="line"/>
      <point x="537.0" y="1616.0" type="line"/>
      <point x="123.0" y="1616.0" type="line"/>
    </contour>
  </outline>
</glyph>
<glyph name="radical.tf" format="2">
  <advance width="1320.0"/>
  <outline>
    <contour>
      <point x="402.0" y="0.0" type="line"/>
      <point x="953.0" y="0.0" type="line"/>
      <point x="1303.0" y="1480.0" type="line"/>
      <point x="914.0" y="1480.0" type="line"/>
      <point x="642.0" y="217.0" type="line"/>
      <point x="722.0" y="217.0" type="line"/>
      <point x="556.0" y="1100.0" type="line"/>
      <point x="16.0" y="1100.0" type="line"/>
      <point x="16.0" y="780.0" type="line"/>
      <point x="246.0" y="780.0" type="line"/>
    </contour>
  </outline>
</glyph>
<glyph name="ruble.tf" format="2">
  <advance width="1320.0"/>
  <outline>
    <contour>
      <point x="240.0" y="0.0" type="line"/>
      <point x="669.0" y="0.0" type="line"/>
      <point x="669.0" y="1199.0" type="line"/>
      <point x="689.0" y="1203.0"/>
      <point x="707.0" y="1205.0"/>
      <point x="723.0" y="1205.0" type="curve" smooth="yes"/>
      <point x="798.0" y="1205.0"/>
      <point x="850.0" y="1167.0"/>
      <point x="850.0" y="1002.0" type="curve" smooth="yes"/>
      <point x="850.0" y="823.0"/>
      <point x="779.0" y="771.0"/>
      <point x="551.0" y="771.0" type="curve" smooth="yes"/>
      <point x="60.0" y="771.0" type="line"/>
      <point x="60.0" y="529.0" type="line"/>
      <point x="622.0" y="529.0" type="line" smooth="yes"/>
      <point x="1052.0" y="529.0"/>
      <point x="1259.0" y="692.0"/>
      <point x="1259.0" y="1016.0" type="curve" smooth="yes"/>
      <point x="1259.0" y="1351.0"/>
      <point x="1054.0" y="1500.0"/>
      <point x="656.0" y="1500.0" type="curve" smooth="yes"/>
      <point x="509.0" y="1500.0"/>
      <point x="372.0" y="1479.0"/>
      <point x="240.0" y="1450.0" type="curve"/>
    </contour>
    <contour>
      <point x="60.0" y="197.0" type="line"/>
      <point x="976.0" y="197.0" type="line"/>
      <point x="976.0" y="439.0" type="line"/>
      <point x="60.0" y="439.0" type="line"/>
    </contour>
  </outline>
</glyph>
<glyph name="schwa.sc" format="2">
  <advance width="1435.0"/>
  <anchor x="726.0" y="0.0" name="bottom"/>
  <anchor x="726.0" y="1230.0" name="top"/>
  <outline>
    <contour>
      <point x="721.0" y="-16.0" type="curve" smooth="yes"/>
      <point x="1115.0" y="-16.0"/>
      <point x="1375.0" y="208.0"/>
      <point x="1375.0" y="576.0" type="curve" smooth="yes"/>
      <point x="1375.0" y="998.0"/>
      <point x="1106.0" y="1206.0"/>
      <point x="537.0" y="1206.0" type="curve" smooth="yes"/>
      <point x="419.0" y="1206.0"/>
      <point x="267.0" y="1195.0"/>
      <point x="146.0" y="1173.0" type="curve"/>
      <point x="146.0" y="850.0" type="line"/>
      <point x="254.0" y="872.0"/>
      <point x="391.0" y="887.0"/>
      <point x="518.0" y="887.0" type="curve" smooth="yes"/>
      <point x="817.0" y="887.0"/>
      <point x="957.0" y="809.0"/>
      <point x="957.0" y="568.0" type="curve" smooth="yes"/>
      <point x="957.0" y="351.0"/>
      <point x="893.0" y="286.0"/>
      <point x="727.0" y="286.0" type="curve" smooth="yes"/>
      <point x="543.0" y="286.0"/>
      <point x="483.0" y="363.0"/>
      <point x="483.0" y="568.0" type="curve"/>
      <point x="338.0" y="433.0" type="line"/>
      <point x="1083.0" y="433.0" type="line"/>
      <point x="1083.0" y="705.0" type="line"/>
      <point x="50.0" y="705.0" type="line"/>
      <point x="50.0" y="587.0" type="line" smooth="yes"/>
      <point x="50.0" y="194.0"/>
      <point x="322.0" y="-16.0"/>
    </contour>
  </outline>
</glyph>
<glyph name="semicolon.tf" format="2">
  <advance width="660.0"/>
  <outline>
    <contour>
      <point x="162.0" y="-360.0" type="curve"/>
      <point x="402.0" y="-360.0" type="line"/>
      <point x="520.0" y="-218.0"/>
      <point x="596.0" y="-24.0"/>
      <point x="596.0" y="155.0" type="curve" smooth="yes"/>
      <point x="596.0" y="369.0"/>
      <point x="502.0" y="478.0"/>
      <point x="324.0" y="478.0" type="curve" smooth="yes"/>
      <point x="163.0" y="478.0"/>
      <point x="62.0" y="386.0"/>
      <point x="62.0" y="229.0" type="curve" smooth="yes"/>
      <point x="62.0" y="75.0"/>
      <point x="169.0" y="-20.0"/>
      <point x="330.0" y="-20.0" type="curve" smooth="yes"/>
      <point x="382.0" y="-20.0" type="line"/>
      <point x="285.0" y="52.0" type="line"/>
      <point x="285.0" y="-82.0"/>
      <point x="240.0" y="-206.0"/>
    </contour>
    <contour>
      <point x="330.0" y="622.0" type="curve" smooth="yes"/>
      <point x="493.0" y="622.0"/>
      <point x="598.0" y="721.0"/>
      <point x="598.0" y="871.0" type="curve" smooth="yes"/>
      <point x="598.0" y="1021.0"/>
      <point x="497.0" y="1120.0"/>
      <point x="330.0" y="1120.0" type="curve" smooth="yes"/>
      <point x="163.0" y="1120.0"/>
      <point x="62.0" y="1025.0"/>
      <point x="62.0" y="871.0" type="curve" smooth="yes"/>
      <point x="62.0" y="717.0"/>
      <point x="167.0" y="622.0"/>
    </contour>
  </outline>
</glyph>
<glyph name="seven.dnom" format="2">
  <advance width="900.0"/>
  <outline>
    <contour>
      <point x="174.0" y="-136.0" type="line"/>
      <point x="519.0" y="-136.0" type="line"/>
      <point x="808.0" y="692.0" type="line"/>
      <point x="808.0" y="864.0" type="line"/>
      <point x="64.0" y="864.0" type="line"/>
      <point x="64.0" y="599.0" type="line"/>
      <point x="602.0" y="599.0" type="line"/>
      <point x="481.0" y="692.0" type="line"/>
    </contour>
  </outline>
</glyph>
<glyph name="seven.osf" format="2">
  <advance width="1033.0"/>
  <outline>
    <contour>
      <point x="129.0" y="-400.0" type="line"/>
      <point x="573.0" y="-400.0" type="line"/>
      <point x="1014.0" y="869.0" type="line"/>
      <point x="1014.0" y="1100.0" type="line"/>
      <point x="4.0" y="1100.0" type="line"/>
      <point x="4.0" y="745.0" type="line"/>
      <point x="750.0" y="745.0" type="line"/>
      <point x="603.0" y="869.0" type="line"/>
    </contour>
  </outline>
</glyph>
